{"glyphs":{"0":{"ha":553,"x_min":69,"x_max":483,"o":"m 276 -11 q 138 24 179 -11 q 83 155 96 58 q 69 478 69 251 q 83 801 69 704 q 138 932 96 897 q 276 967 179 967 q 422 932 381 967 q 473 806 463 897 q 483 478 483 715 q 470 155 483 251 q 415 24 457 58 q 276 -11 374 -11 m 276 36 q 383 61 353 36 q 423 173 413 86 q 433 478 433 260 q 423 783 433 696 q 383 894 413 869 q 276 919 353 919 q 170 894 200 919 q 130 783 140 869 q 119 478 119 696 q 130 173 119 260 q 170 61 140 86 q 276 36 200 36 z "},"1":{"ha":293,"x_min":42,"x_max":196,"o":"m 146 0 l 146 883 l 42 822 l 42 875 l 158 956 l 196 956 l 196 0 l 146 0 z "},"2":{"ha":483,"x_min":56,"x_max":428,"o":"m 104 47 l 428 47 l 428 0 l 56 0 l 56 99 q 60 266 56 218 q 83 345 64 314 q 149 410 101 376 l 311 529 q 366 601 353 558 q 379 726 379 643 q 367 847 379 807 q 326 903 356 888 q 240 919 297 919 q 67 904 165 919 l 67 949 q 149 962 99 957 q 247 967 200 967 q 347 951 308 967 q 406 887 385 936 q 428 739 428 838 q 419 615 428 661 q 389 541 410 569 q 328 483 368 513 l 154 357 q 115 307 126 338 q 106 253 108 288 q 104 139 104 219 l 104 47 z "},"3":{"ha":463,"x_min":28,"x_max":400,"o":"m 190 -11 q 109 -6 154 -11 q 28 8 64 0 l 28 53 q 190 36 125 36 q 279 52 246 36 q 331 114 313 68 q 350 246 350 160 q 322 411 350 361 q 231 461 294 461 l 128 461 l 128 508 l 231 508 q 310 553 278 508 q 343 713 343 599 q 326 843 343 799 q 276 903 310 888 q 182 919 242 919 q 108 915 150 919 q 32 903 65 910 l 32 947 q 111 961 67 956 q 190 967 156 967 q 312 941 268 967 q 374 861 356 915 q 393 715 393 807 q 367 561 393 614 q 290 492 342 508 l 290 486 q 372 419 343 472 q 400 256 400 367 q 384 107 400 164 q 322 19 368 50 q 190 -11 276 -11 z "},"4":{"ha":531,"x_min":42,"x_max":482,"o":"m 342 0 l 342 244 l 42 244 l 42 288 l 260 956 l 311 956 l 93 292 l 343 292 l 343 708 l 392 708 l 392 292 l 482 292 l 482 244 l 392 244 l 392 0 l 342 0 z "},"5":{"ha":483,"x_min":63,"x_max":435,"o":"m 63 53 q 225 36 160 36 q 326 58 292 36 q 372 131 360 81 q 385 274 385 181 q 372 422 385 375 q 322 484 358 468 q 208 500 286 500 q 69 479 161 500 l 69 956 l 392 956 l 392 908 l 119 908 l 119 533 q 240 547 165 547 q 367 519 325 547 q 422 438 408 492 q 435 283 435 383 q 417 107 435 169 q 356 17 400 44 q 225 -11 311 -11 q 144 -6 189 -11 q 63 8 99 0 l 63 53 z "},"6":{"ha":539,"x_min":69,"x_max":483,"o":"m 286 -11 q 152 19 197 -11 q 82 133 107 49 q 72 234 74 163 q 69 464 69 306 q 72 683 69 610 q 86 799 75 757 q 159 928 110 890 q 306 967 208 967 q 378 961 336 967 q 453 947 419 956 l 453 903 q 384 915 424 910 q 313 919 344 919 q 184 885 224 919 q 131 763 144 851 q 118 479 118 675 l 124 479 q 174 533 139 514 q 283 551 208 551 q 406 534 365 551 q 465 463 447 517 q 483 292 483 408 q 469 107 483 169 q 413 17 454 44 q 286 -11 371 -11 m 279 36 q 378 53 346 36 q 422 117 410 69 q 435 265 435 165 q 423 428 435 381 q 381 490 411 476 q 279 504 351 504 q 175 486 208 504 q 131 430 142 468 q 121 317 121 392 q 135 137 121 196 q 181 57 149 78 q 279 36 214 36 z "},"7":{"ha":442,"x_min":28,"x_max":407,"o":"m 108 0 l 356 908 l 28 908 l 28 956 l 407 956 l 407 915 l 158 0 l 108 0 z "},"8":{"ha":553,"x_min":63,"x_max":490,"o":"m 276 -11 q 140 17 186 -11 q 78 101 94 46 q 63 256 63 157 q 74 383 63 338 q 108 450 86 428 q 167 485 129 472 l 167 490 q 92 558 115 506 q 68 715 68 611 q 86 862 68 808 q 149 941 104 915 q 276 967 193 967 q 404 941 360 967 q 467 862 449 915 q 485 715 485 808 q 461 558 485 611 q 386 490 438 506 l 386 485 q 445 450 424 472 q 478 383 467 428 q 490 256 490 338 q 474 101 490 157 q 413 17 458 46 q 276 -11 367 -11 m 276 507 q 375 525 342 507 q 422 586 408 543 q 435 713 435 629 q 422 840 435 796 q 376 901 410 883 q 276 919 343 919 q 176 901 210 919 q 131 840 143 883 q 118 713 118 796 q 131 586 118 629 q 178 525 144 543 q 276 507 211 507 m 276 36 q 376 53 342 36 q 426 114 411 69 q 440 246 440 158 q 427 384 440 340 q 381 444 414 428 q 276 460 347 460 q 172 444 206 460 q 126 384 139 428 q 113 246 113 340 q 127 114 113 158 q 176 53 142 69 q 276 36 211 36 z "},"9":{"ha":539,"x_min":56,"x_max":469,"o":"m 233 -11 q 159 -6 200 -11 q 86 8 118 0 l 86 53 q 155 41 115 46 q 226 36 194 36 q 355 70 315 36 q 408 192 394 104 q 421 476 421 281 l 415 476 q 365 423 400 442 q 256 404 331 404 q 133 422 174 404 q 74 493 92 439 q 56 664 56 547 q 70 849 56 786 q 126 939 85 911 q 253 967 168 967 q 390 935 346 967 q 456 822 435 904 q 467 712 465 783 q 469 492 469 640 q 466 251 469 329 q 447 131 463 172 q 372 22 421 54 q 233 -11 322 -11 m 260 451 q 364 469 331 451 q 408 526 397 488 q 418 639 418 564 q 404 819 418 760 q 358 899 390 878 q 260 919 325 919 q 161 903 193 919 q 117 838 129 886 q 104 690 104 790 q 116 527 104 575 q 158 465 128 479 q 260 451 188 451 z "},"\u0000":{"ha":0,"x_min":0,"x_max":0,"o":""},"\r":{"ha":236,"x_min":0,"x_max":0,"o":""}," ":{"ha":236,"x_min":0,"x_max":0,"o":""},"A":{"ha":557,"x_min":28,"x_max":529,"o":"m 478 0 l 408 301 l 146 301 l 78 0 l 28 0 l 250 956 l 307 956 l 529 0 l 478 0 m 281 857 l 274 857 l 157 349 l 397 349 l 281 857 z "},"Á":{"ha":557,"x_min":28,"x_max":529,"o":"m 478 0 l 408 301 l 146 301 l 78 0 l 28 0 l 250 956 l 307 956 l 529 0 l 478 0 m 281 857 l 274 857 l 157 349 l 397 349 l 281 857 m 257 1042 l 257 1049 l 303 1233 l 358 1233 l 358 1226 l 289 1042 l 257 1042 z "},"Ă":{"ha":557,"x_min":28,"x_max":529,"o":"m 478 0 l 408 301 l 146 301 l 78 0 l 28 0 l 250 956 l 307 956 l 529 0 l 478 0 m 281 857 l 274 857 l 157 349 l 397 349 l 281 857 m 406 1233 q 399 1124 406 1163 q 365 1061 393 1085 q 278 1038 338 1038 q 191 1061 218 1038 q 158 1123 164 1085 q 151 1233 151 1161 l 197 1233 q 201 1140 197 1171 q 223 1093 206 1110 q 278 1076 240 1076 q 334 1093 317 1076 q 356 1140 351 1110 q 360 1233 360 1171 l 406 1233 z "},"Ắ":{"ha":557,"x_min":28,"x_max":529,"o":"m 478 0 l 408 301 l 146 301 l 78 0 l 28 0 l 250 956 l 307 956 l 529 0 l 478 0 m 281 857 l 274 857 l 157 349 l 397 349 l 281 857 m 406 1233 q 399 1124 406 1163 q 365 1061 393 1085 q 278 1038 338 1038 q 191 1061 218 1038 q 158 1123 164 1085 q 151 1233 151 1161 l 197 1233 q 201 1140 197 1171 q 223 1093 206 1110 q 278 1076 240 1076 q 334 1093 317 1076 q 356 1140 351 1110 q 360 1233 360 1171 l 406 1233 m 264 1282 l 264 1289 l 310 1474 l 365 1474 l 365 1467 l 296 1282 l 264 1282 z "},"Ặ":{"ha":557,"x_min":28,"x_max":529,"o":"m 478 0 l 408 301 l 146 301 l 78 0 l 28 0 l 250 956 l 307 956 l 529 0 l 478 0 m 281 857 l 274 857 l 157 349 l 397 349 l 281 857 m 249 -176 l 249 -86 l 310 -86 l 310 -176 l 249 -176 m 406 1233 q 399 1124 406 1163 q 365 1061 393 1085 q 278 1038 338 1038 q 191 1061 218 1038 q 158 1123 164 1085 q 151 1233 151 1161 l 197 1233 q 201 1140 197 1171 q 223 1093 206 1110 q 278 1076 240 1076 q 334 1093 317 1076 q 356 1140 351 1110 q 360 1233 360 1171 l 406 1233 z "},"Ằ":{"ha":557,"x_min":28,"x_max":529,"o":"m 478 0 l 408 301 l 146 301 l 78 0 l 28 0 l 250 956 l 307 956 l 529 0 l 478 0 m 281 857 l 274 857 l 157 349 l 397 349 l 281 857 m 406 1233 q 399 1124 406 1163 q 365 1061 393 1085 q 278 1038 338 1038 q 191 1061 218 1038 q 158 1123 164 1085 q 151 1233 151 1161 l 197 1233 q 201 1140 197 1171 q 223 1093 206 1110 q 278 1076 240 1076 q 334 1093 317 1076 q 356 1140 351 1110 q 360 1233 360 1171 l 406 1233 m 265 1282 l 196 1467 l 196 1474 l 251 1474 l 297 1289 l 297 1282 l 265 1282 z "},"Ẳ":{"ha":557,"x_min":28,"x_max":529,"o":"m 478 0 l 408 301 l 146 301 l 78 0 l 28 0 l 250 956 l 307 956 l 529 0 l 478 0 m 281 857 l 274 857 l 157 349 l 397 349 l 281 857 m 406 1233 q 399 1124 406 1163 q 365 1061 393 1085 q 278 1038 338 1038 q 191 1061 218 1038 q 158 1123 164 1085 q 151 1233 151 1161 l 197 1233 q 201 1140 197 1171 q 223 1093 206 1110 q 278 1076 240 1076 q 334 1093 317 1076 q 356 1140 351 1110 q 360 1233 360 1171 l 406 1233 m 235 1244 q 246 1283 235 1272 q 283 1301 257 1293 l 299 1306 q 341 1326 329 1315 q 353 1367 353 1338 q 349 1400 353 1390 q 326 1415 344 1410 q 268 1419 308 1419 q 168 1414 251 1419 l 168 1450 q 275 1458 246 1458 q 351 1449 325 1458 q 386 1422 378 1440 q 394 1374 394 1404 q 386 1315 394 1335 q 342 1283 378 1296 l 329 1279 q 283 1260 292 1267 q 275 1233 275 1253 l 235 1233 l 235 1244 z "},"Ẵ":{"ha":557,"x_min":28,"x_max":529,"o":"m 478 0 l 408 301 l 146 301 l 78 0 l 28 0 l 250 956 l 307 956 l 529 0 l 478 0 m 281 857 l 274 857 l 157 349 l 397 349 l 281 857 m 403 1233 q 397 1124 403 1163 q 363 1061 390 1085 q 275 1038 335 1038 q 188 1061 215 1038 q 155 1123 161 1085 q 149 1233 149 1161 l 194 1233 q 199 1140 194 1171 q 220 1093 203 1110 q 275 1076 238 1076 q 331 1093 314 1076 q 353 1140 349 1110 q 357 1233 357 1171 l 403 1233 m 436 1474 q 423 1370 436 1399 q 369 1342 410 1342 q 326 1351 347 1342 q 274 1378 304 1360 q 226 1403 246 1394 q 188 1413 206 1413 q 164 1394 169 1413 q 158 1326 158 1376 l 121 1326 q 134 1430 121 1401 q 188 1458 147 1458 q 233 1449 211 1458 q 289 1419 256 1439 q 369 1388 342 1388 q 393 1406 388 1388 q 399 1474 399 1424 l 436 1474 z "},"Ǎ":{"ha":557,"x_min":28,"x_max":529,"o":"m 478 0 l 408 301 l 146 301 l 78 0 l 28 0 l 250 956 l 307 956 l 529 0 l 478 0 m 281 857 l 274 857 l 157 349 l 397 349 l 281 857 m 247 1042 l 154 1226 l 154 1233 l 192 1233 l 279 1083 l 367 1233 l 404 1233 l 404 1226 l 311 1042 l 247 1042 z "},"Â":{"ha":557,"x_min":28,"x_max":529,"o":"m 478 0 l 408 301 l 146 301 l 78 0 l 28 0 l 250 956 l 307 956 l 529 0 l 478 0 m 281 857 l 274 857 l 157 349 l 397 349 l 281 857 m 153 1042 l 153 1049 l 246 1233 l 310 1233 l 403 1049 l 403 1042 l 365 1042 l 278 1192 l 190 1042 l 153 1042 z "},"Ấ":{"ha":557,"x_min":28,"x_max":529,"o":"m 478 0 l 408 301 l 146 301 l 78 0 l 28 0 l 250 956 l 307 956 l 529 0 l 478 0 m 281 857 l 274 857 l 157 349 l 397 349 l 281 857 m 153 1031 l 153 1038 l 246 1222 l 310 1222 l 403 1038 l 403 1031 l 365 1031 l 278 1181 l 190 1031 l 153 1031 m 361 1222 l 361 1229 l 407 1414 l 463 1414 l 463 1407 l 393 1222 l 361 1222 z "},"Ậ":{"ha":557,"x_min":28,"x_max":529,"o":"m 478 0 l 408 301 l 146 301 l 78 0 l 28 0 l 250 956 l 307 956 l 529 0 l 478 0 m 281 857 l 274 857 l 157 349 l 397 349 l 281 857 m 249 -176 l 249 -86 l 310 -86 l 310 -176 l 249 -176 m 154 1042 l 154 1049 l 247 1233 l 311 1233 l 404 1049 l 404 1042 l 367 1042 l 279 1192 l 192 1042 l 154 1042 z "},"Ầ":{"ha":557,"x_min":28,"x_max":529,"o":"m 478 0 l 408 301 l 146 301 l 78 0 l 28 0 l 250 956 l 307 956 l 529 0 l 478 0 m 281 857 l 274 857 l 157 349 l 397 349 l 281 857 m 154 1031 l 154 1038 l 247 1222 l 311 1222 l 404 1038 l 404 1031 l 367 1031 l 279 1181 l 192 1031 l 154 1031 m 361 1222 l 292 1407 l 292 1414 l 347 1414 l 393 1229 l 393 1222 l 361 1222 z "},"Ẩ":{"ha":557,"x_min":28,"x_max":529,"o":"m 478 0 l 408 301 l 146 301 l 78 0 l 28 0 l 250 956 l 307 956 l 529 0 l 478 0 m 281 857 l 274 857 l 157 349 l 397 349 l 281 857 m 154 1031 l 154 1038 l 247 1222 l 311 1222 l 404 1038 l 404 1031 l 367 1031 l 279 1181 l 192 1031 l 154 1031 m 332 1233 q 343 1272 332 1261 q 381 1290 354 1282 l 396 1294 q 438 1315 426 1304 q 450 1356 450 1326 q 446 1389 450 1379 q 424 1403 442 1399 q 365 1408 406 1408 q 265 1403 349 1408 l 265 1439 q 372 1447 343 1447 q 449 1438 422 1447 q 483 1411 475 1429 q 492 1363 492 1393 q 483 1304 492 1324 q 439 1272 475 1285 l 426 1268 q 381 1249 389 1256 q 372 1222 372 1242 l 332 1222 l 332 1233 z "},"Ẫ":{"ha":557,"x_min":28,"x_max":529,"o":"m 478 0 l 408 301 l 146 301 l 78 0 l 28 0 l 250 956 l 307 956 l 529 0 l 478 0 m 281 857 l 274 857 l 157 349 l 397 349 l 281 857 m 151 1032 l 151 1039 l 244 1224 l 308 1224 l 401 1039 l 401 1032 l 364 1032 l 276 1182 l 189 1032 l 151 1032 m 436 1464 q 423 1360 436 1389 q 369 1332 410 1332 q 326 1341 347 1332 q 274 1368 304 1350 q 226 1394 246 1385 q 188 1403 206 1403 q 164 1385 169 1403 q 158 1317 158 1367 l 121 1317 q 134 1420 121 1392 q 188 1449 147 1449 q 233 1439 211 1449 q 289 1410 256 1429 q 369 1378 342 1378 q 393 1396 388 1378 q 399 1464 399 1414 l 436 1464 z "},"Ȁ":{"ha":557,"x_min":28,"x_max":529,"o":"m 478 0 l 408 301 l 146 301 l 78 0 l 28 0 l 250 956 l 307 956 l 529 0 l 478 0 m 281 857 l 274 857 l 157 349 l 397 349 l 281 857 m 226 1050 l 194 1050 l 128 1208 l 128 1215 l 183 1215 l 226 1057 l 226 1050 m 365 1050 l 333 1050 l 267 1208 l 267 1215 l 322 1215 l 365 1057 l 365 1050 z "},"Ä":{"ha":557,"x_min":28,"x_max":529,"o":"m 478 0 l 408 301 l 146 301 l 78 0 l 28 0 l 250 956 l 307 956 l 529 0 l 478 0 m 281 857 l 274 857 l 157 349 l 397 349 l 281 857 m 132 1069 l 132 1154 l 189 1154 l 189 1069 l 132 1069 m 368 1069 l 368 1154 l 425 1154 l 425 1069 l 368 1069 z "},"Ạ":{"ha":557,"x_min":28,"x_max":529,"o":"m 478 0 l 408 301 l 146 301 l 78 0 l 28 0 l 250 956 l 307 956 l 529 0 l 478 0 m 281 857 l 274 857 l 157 349 l 397 349 l 281 857 m 249 -176 l 249 -86 l 310 -86 l 310 -176 l 249 -176 z "},"À":{"ha":557,"x_min":28,"x_max":529,"o":"m 478 0 l 408 301 l 146 301 l 78 0 l 28 0 l 250 956 l 307 956 l 529 0 l 478 0 m 281 857 l 274 857 l 157 349 l 397 349 l 281 857 m 268 1042 l 199 1226 l 199 1233 l 254 1233 l 300 1049 l 300 1042 l 268 1042 z "},"Ả":{"ha":557,"x_min":28,"x_max":529,"o":"m 478 0 l 408 301 l 146 301 l 78 0 l 28 0 l 250 956 l 307 956 l 529 0 l 478 0 m 281 857 l 274 857 l 157 349 l 397 349 l 281 857 m 232 1043 q 243 1081 232 1071 q 281 1100 254 1092 l 296 1104 q 338 1125 326 1114 q 350 1165 350 1136 q 346 1199 350 1189 q 324 1213 342 1208 q 265 1218 306 1218 q 165 1213 249 1218 l 165 1249 q 272 1257 243 1257 q 349 1248 322 1257 q 383 1221 375 1239 q 392 1172 392 1203 q 383 1114 392 1133 q 339 1082 375 1094 l 326 1078 q 281 1058 289 1065 q 272 1032 272 1051 l 232 1032 l 232 1043 z "},"Ȃ":{"ha":557,"x_min":28,"x_max":529,"o":"m 478 0 l 408 301 l 146 301 l 78 0 l 28 0 l 250 956 l 307 956 l 529 0 l 478 0 m 281 857 l 274 857 l 157 349 l 397 349 l 281 857 m 151 1046 q 158 1156 151 1117 q 192 1218 164 1194 q 279 1242 219 1242 q 366 1218 339 1242 q 399 1156 393 1194 q 406 1046 406 1118 l 360 1046 q 356 1139 360 1108 q 334 1186 351 1169 q 279 1203 317 1203 q 223 1186 240 1203 q 201 1139 206 1169 q 197 1046 197 1108 l 151 1046 z "},"Ā":{"ha":557,"x_min":28,"x_max":529,"o":"m 478 0 l 408 301 l 146 301 l 78 0 l 28 0 l 250 956 l 307 956 l 529 0 l 478 0 m 281 857 l 274 857 l 157 349 l 397 349 l 281 857 m 164 1183 l 164 1233 l 393 1233 l 393 1183 l 164 1183 z "},"Ą":{"ha":557,"x_min":28,"x_max":529,"o":"m 439 -164 q 504 -228 439 -228 l 528 -226 l 528 -271 q 497 -272 515 -272 q 417 -245 443 -272 q 392 -172 392 -218 q 415 -83 392 -131 q 476 4 439 -35 l 408 301 l 146 301 l 78 0 l 28 0 l 250 956 l 307 956 l 529 0 l 521 0 q 465 -78 490 -29 q 439 -164 439 -126 m 157 349 l 397 349 l 281 857 l 274 857 l 157 349 z "},"Å":{"ha":557,"x_min":28,"x_max":529,"o":"m 529 0 l 478 0 l 408 301 l 146 301 l 78 0 l 28 0 l 249 954 q 194 969 211 957 q 172 1005 176 982 q 167 1072 167 1028 q 174 1145 167 1121 q 205 1181 182 1169 q 278 1192 228 1192 q 351 1181 328 1192 q 383 1145 375 1169 q 390 1072 390 1121 q 375 984 390 1010 q 307 954 360 958 l 529 0 m 213 1072 q 217 1022 213 1038 q 234 1000 221 1007 q 278 993 247 993 q 333 1008 321 993 q 344 1072 344 1024 q 333 1137 344 1121 q 278 1153 321 1153 q 234 1146 247 1153 q 217 1123 221 1139 q 213 1072 213 1107 m 157 349 l 397 349 l 281 857 l 274 857 l 157 349 z "},"Ǻ":{"ha":557,"x_min":28,"x_max":529,"o":"m 529 0 l 478 0 l 408 301 l 146 301 l 78 0 l 28 0 l 249 954 q 194 969 211 957 q 172 1005 176 982 q 167 1072 167 1028 q 174 1145 167 1121 q 205 1181 182 1169 q 278 1192 228 1192 q 351 1181 328 1192 q 383 1145 375 1169 q 390 1072 390 1121 q 375 984 390 1010 q 307 954 360 958 l 529 0 m 213 1072 q 217 1022 213 1038 q 234 1000 221 1007 q 278 993 247 993 q 333 1008 321 993 q 344 1072 344 1024 q 333 1137 344 1121 q 278 1153 321 1153 q 234 1146 247 1153 q 217 1123 221 1139 q 213 1072 213 1107 m 157 349 l 397 349 l 281 857 l 274 857 l 157 349 m 258 1278 l 258 1285 l 304 1469 l 360 1469 l 360 1463 l 290 1278 l 258 1278 z "},"Ã":{"ha":557,"x_min":28,"x_max":529,"o":"m 478 0 l 408 301 l 146 301 l 78 0 l 28 0 l 250 956 l 307 956 l 529 0 l 478 0 m 281 857 l 274 857 l 157 349 l 397 349 l 281 857 m 436 1189 q 423 1085 436 1114 q 369 1057 410 1057 q 326 1066 347 1057 q 274 1093 304 1075 q 226 1119 246 1110 q 188 1128 206 1128 q 164 1110 169 1128 q 158 1042 158 1092 l 121 1042 q 134 1145 121 1117 q 188 1174 147 1174 q 233 1164 211 1174 q 289 1135 256 1154 q 369 1103 342 1103 q 393 1121 388 1103 q 399 1189 399 1139 l 436 1189 z "},"Æ":{"ha":757,"x_min":0,"x_max":715,"o":"m 450 0 l 404 301 l 143 301 l 50 0 l 0 0 l 299 956 l 715 956 l 715 908 l 363 908 l 424 507 l 676 507 l 676 460 l 431 460 l 494 47 l 715 47 l 715 0 l 450 0 m 322 857 l 315 857 l 157 349 l 397 349 l 322 857 z "},"Ǽ":{"ha":757,"x_min":0,"x_max":715,"o":"m 450 0 l 404 301 l 143 301 l 50 0 l 0 0 l 299 956 l 715 956 l 715 908 l 363 908 l 424 507 l 676 507 l 676 460 l 431 460 l 494 47 l 715 47 l 715 0 l 450 0 m 322 857 l 315 857 l 157 349 l 397 349 l 322 857 m 360 1042 l 360 1049 l 406 1233 l 461 1233 l 461 1226 l 392 1042 l 360 1042 z "},"B":{"ha":560,"x_min":90,"x_max":497,"o":"m 90 956 l 292 956 q 447 894 403 956 q 490 717 490 833 q 458 564 490 619 q 357 492 426 508 l 357 486 q 469 408 440 469 q 497 250 497 346 q 453 68 497 136 q 283 0 410 0 l 90 0 l 90 956 m 285 508 q 399 559 358 508 q 440 708 440 610 q 407 863 440 817 q 285 908 374 908 l 140 908 l 140 508 l 285 508 m 288 47 q 412 96 376 47 q 447 254 447 144 q 410 413 447 364 q 288 461 372 461 l 140 461 l 140 47 l 288 47 z "},"C":{"ha":442,"x_min":69,"x_max":407,"o":"m 407 3 q 292 -11 356 -11 q 147 23 192 -11 q 85 156 101 57 q 69 478 69 256 q 85 798 69 699 q 147 932 101 897 q 292 967 192 967 q 352 962 319 967 q 404 950 385 957 l 404 906 q 300 919 356 919 q 178 890 214 919 q 131 774 142 861 q 119 478 119 688 q 131 181 119 268 q 178 65 142 94 q 300 36 214 36 q 356 40 325 36 q 407 50 386 44 l 407 3 z "},"Ć":{"ha":442,"x_min":69,"x_max":407,"o":"m 407 3 q 292 -11 356 -11 q 147 23 192 -11 q 85 156 101 57 q 69 478 69 256 q 85 798 69 699 q 147 932 101 897 q 292 967 192 967 q 352 962 319 967 q 404 950 385 957 l 404 906 q 300 919 356 919 q 178 890 214 919 q 131 774 142 861 q 119 478 119 688 q 131 181 119 268 q 178 65 142 94 q 300 36 214 36 q 356 40 325 36 q 407 50 386 44 l 407 3 m 201 1042 l 201 1049 l 247 1233 l 303 1233 l 303 1226 l 233 1042 l 201 1042 z "},"Č":{"ha":442,"x_min":69,"x_max":407,"o":"m 407 3 q 292 -11 356 -11 q 147 23 192 -11 q 85 156 101 57 q 69 478 69 256 q 85 798 69 699 q 147 932 101 897 q 292 967 192 967 q 352 962 319 967 q 404 950 385 957 l 404 906 q 300 919 356 919 q 178 890 214 919 q 131 774 142 861 q 119 478 119 688 q 131 181 119 268 q 178 65 142 94 q 300 36 214 36 q 356 40 325 36 q 407 50 386 44 l 407 3 m 189 1042 l 96 1226 l 96 1233 l 133 1233 l 221 1083 l 308 1233 l 346 1233 l 346 1226 l 253 1042 l 189 1042 z "},"Ç":{"ha":442,"x_min":69,"x_max":407,"o":"m 300 36 q 356 40 325 36 q 407 50 386 44 l 407 3 q 292 -11 356 -11 q 236 -8 269 -11 l 178 -264 l 122 -264 l 122 -257 l 199 -3 q 117 59 144 13 q 79 201 89 106 q 69 478 69 296 q 85 798 69 699 q 147 932 101 897 q 292 967 192 967 q 352 962 319 967 q 404 950 385 957 l 404 906 q 300 919 356 919 q 178 890 214 919 q 131 774 142 861 q 119 478 119 688 q 131 181 119 268 q 178 65 142 94 q 300 36 214 36 z "},"Ĉ":{"ha":442,"x_min":69,"x_max":407,"o":"m 407 3 q 292 -11 356 -11 q 147 23 192 -11 q 85 156 101 57 q 69 478 69 256 q 85 798 69 699 q 147 932 101 897 q 292 967 192 967 q 352 962 319 967 q 404 950 385 957 l 404 906 q 300 919 356 919 q 178 890 214 919 q 131 774 142 861 q 119 478 119 688 q 131 181 119 268 q 178 65 142 94 q 300 36 214 36 q 356 40 325 36 q 407 50 386 44 l 407 3 m 96 1042 l 96 1049 l 189 1233 l 253 1233 l 346 1049 l 346 1042 l 308 1042 l 221 1192 l 133 1042 l 96 1042 z "},"Ċ":{"ha":442,"x_min":69,"x_max":407,"o":"m 407 3 q 292 -11 356 -11 q 147 23 192 -11 q 85 156 101 57 q 69 478 69 256 q 85 798 69 699 q 147 932 101 897 q 292 967 192 967 q 352 962 319 967 q 404 950 385 957 l 404 906 q 300 919 356 919 q 178 890 214 919 q 131 774 142 861 q 119 478 119 688 q 131 181 119 268 q 178 65 142 94 q 300 36 214 36 q 356 40 325 36 q 407 50 386 44 l 407 3 m 192 1131 l 192 1215 l 249 1215 l 249 1131 l 192 1131 z "},"D":{"ha":565,"x_min":90,"x_max":496,"o":"m 90 956 l 268 956 q 419 922 374 956 q 481 792 465 888 q 496 478 496 697 q 481 163 496 258 q 419 34 465 68 q 268 0 374 0 l 90 0 l 90 956 m 268 47 q 385 71 351 47 q 433 181 419 94 q 446 478 446 268 q 433 774 446 688 q 385 885 419 861 q 268 908 351 908 l 140 908 l 140 47 l 268 47 z "},"Ǳ":{"ha":1026,"x_min":90,"x_max":999,"o":"m 90 956 l 268 956 q 419 922 374 956 q 481 792 465 888 q 496 478 496 697 q 481 163 496 258 q 419 34 465 68 q 268 0 374 0 l 90 0 l 90 956 m 268 47 q 385 71 351 47 q 433 181 419 94 q 446 478 446 268 q 433 774 446 688 q 385 885 419 861 q 268 908 351 908 l 140 908 l 140 47 l 268 47 m 593 0 l 593 44 l 938 908 l 603 908 l 603 956 l 992 956 l 992 911 l 649 47 l 999 47 l 999 0 l 593 0 z "},"Ǆ":{"ha":1026,"x_min":90,"x_max":999,"o":"m 90 956 l 268 956 q 419 922 374 956 q 481 792 465 888 q 496 478 496 697 q 481 163 496 258 q 419 34 465 68 q 268 0 374 0 l 90 0 l 90 956 m 268 47 q 385 71 351 47 q 433 181 419 94 q 446 478 446 268 q 433 774 446 688 q 385 885 419 861 q 268 908 351 908 l 140 908 l 140 47 l 268 47 m 593 0 l 593 44 l 938 908 l 603 908 l 603 956 l 992 956 l 992 911 l 649 47 l 999 47 l 999 0 l 593 0 m 765 1042 l 672 1226 l 672 1233 l 710 1233 l 797 1083 l 885 1233 l 922 1233 l 922 1226 l 829 1042 l 765 1042 z "},"Ð":{"ha":565,"x_min":15,"x_max":496,"o":"m 90 460 l 15 460 l 15 510 l 90 510 l 90 956 l 268 956 q 419 922 374 956 q 481 792 465 888 q 496 478 496 697 q 481 163 496 258 q 419 34 465 68 q 268 0 374 0 l 90 0 l 90 460 m 268 47 q 385 71 351 47 q 433 181 419 94 q 446 478 446 268 q 433 774 446 688 q 385 885 419 861 q 268 908 351 908 l 140 908 l 140 510 l 300 510 l 300 460 l 140 460 l 140 47 l 268 47 z "},"Ď":{"ha":565,"x_min":90,"x_max":496,"o":"m 90 956 l 268 956 q 419 922 374 956 q 481 792 465 888 q 496 478 496 697 q 481 163 496 258 q 419 34 465 68 q 268 0 374 0 l 90 0 l 90 956 m 268 47 q 385 71 351 47 q 433 181 419 94 q 446 478 446 268 q 433 774 446 688 q 385 885 419 861 q 268 908 351 908 l 140 908 l 140 47 l 268 47 m 251 1042 l 158 1226 l 158 1233 l 196 1233 l 283 1083 l 371 1233 l 408 1233 l 408 1226 l 315 1042 l 251 1042 z "},"Đ":{"ha":565,"x_min":15,"x_max":496,"o":"m 90 460 l 15 460 l 15 510 l 90 510 l 90 956 l 268 956 q 419 922 374 956 q 481 792 465 888 q 496 478 496 697 q 481 163 496 258 q 419 34 465 68 q 268 0 374 0 l 90 0 l 90 460 m 268 47 q 385 71 351 47 q 433 181 419 94 q 446 478 446 268 q 433 774 446 688 q 385 885 419 861 q 268 908 351 908 l 140 908 l 140 510 l 300 510 l 300 460 l 140 460 l 140 47 l 268 47 z "},"Ḍ":{"ha":565,"x_min":90,"x_max":496,"o":"m 90 956 l 268 956 q 419 922 374 956 q 481 792 465 888 q 496 478 496 697 q 481 163 496 258 q 419 34 465 68 q 268 0 374 0 l 90 0 l 90 956 m 268 47 q 385 71 351 47 q 433 181 419 94 q 446 478 446 268 q 433 774 446 688 q 385 885 419 861 q 268 908 351 908 l 140 908 l 140 47 l 268 47 m 253 -176 l 253 -86 l 314 -86 l 314 -176 l 253 -176 z "},"ǲ":{"ha":979,"x_min":90,"x_max":943,"o":"m 90 956 l 268 956 q 419 922 374 956 q 481 792 465 888 q 496 478 496 697 q 481 163 496 258 q 419 34 465 68 q 268 0 374 0 l 90 0 l 90 956 m 268 47 q 385 71 351 47 q 433 181 419 94 q 446 478 446 268 q 433 774 446 688 q 385 885 419 861 q 268 908 351 908 l 140 908 l 140 47 l 268 47 m 601 0 l 601 39 l 886 664 l 611 664 l 611 708 l 942 708 l 942 669 l 657 44 l 943 44 l 943 0 l 601 0 z "},"ǅ":{"ha":979,"x_min":90,"x_max":943,"o":"m 90 956 l 268 956 q 419 922 374 956 q 481 792 465 888 q 496 478 496 697 q 481 163 496 258 q 419 34 465 68 q 268 0 374 0 l 90 0 l 90 956 m 268 47 q 385 71 351 47 q 433 181 419 94 q 446 478 446 268 q 433 774 446 688 q 385 885 419 861 q 268 908 351 908 l 140 908 l 140 47 l 268 47 m 601 0 l 601 39 l 886 664 l 611 664 l 611 708 l 942 708 l 942 669 l 657 44 l 943 44 l 943 0 l 601 0 m 751 840 l 658 1025 l 658 1032 l 696 1032 l 783 882 l 871 1032 l 908 1032 l 908 1025 l 815 840 l 751 840 z "},"E":{"ha":488,"x_min":90,"x_max":446,"o":"m 90 0 l 90 956 l 446 956 l 446 908 l 142 908 l 142 507 l 407 507 l 407 460 l 142 460 l 142 47 l 446 47 l 446 0 l 90 0 z "},"É":{"ha":488,"x_min":90,"x_max":446,"o":"m 90 0 l 90 956 l 446 956 l 446 908 l 142 908 l 142 507 l 407 507 l 407 460 l 142 460 l 142 47 l 446 47 l 446 0 l 90 0 m 258 1042 l 258 1049 l 304 1233 l 360 1233 l 360 1226 l 290 1042 l 258 1042 z "},"Ĕ":{"ha":488,"x_min":90,"x_max":446,"o":"m 90 0 l 90 956 l 446 956 l 446 908 l 142 908 l 142 507 l 407 507 l 407 460 l 142 460 l 142 47 l 446 47 l 446 0 l 90 0 m 394 1233 q 388 1124 394 1163 q 354 1061 382 1085 q 267 1038 326 1038 q 180 1061 207 1038 q 147 1123 153 1085 q 140 1233 140 1161 l 186 1233 q 190 1140 186 1171 q 212 1093 194 1110 q 267 1076 229 1076 q 323 1093 306 1076 q 344 1140 340 1110 q 349 1233 349 1171 l 394 1233 z "},"Ě":{"ha":488,"x_min":90,"x_max":446,"o":"m 90 0 l 90 956 l 446 956 l 446 908 l 142 908 l 142 507 l 407 507 l 407 460 l 142 460 l 142 47 l 446 47 l 446 0 l 90 0 m 236 1042 l 143 1226 l 143 1233 l 181 1233 l 268 1083 l 356 1233 l 393 1233 l 393 1226 l 300 1042 l 236 1042 z "},"Ê":{"ha":488,"x_min":90,"x_max":446,"o":"m 90 0 l 90 956 l 446 956 l 446 908 l 142 908 l 142 507 l 407 507 l 407 460 l 142 460 l 142 47 l 446 47 l 446 0 l 90 0 m 143 1042 l 143 1049 l 236 1233 l 300 1233 l 393 1049 l 393 1042 l 356 1042 l 268 1192 l 181 1042 l 143 1042 z "},"Ế":{"ha":488,"x_min":90,"x_max":451,"o":"m 90 0 l 90 956 l 446 956 l 446 908 l 142 908 l 142 507 l 407 507 l 407 460 l 142 460 l 142 47 l 446 47 l 446 0 l 90 0 m 142 1031 l 142 1038 l 235 1222 l 299 1222 l 392 1038 l 392 1031 l 354 1031 l 267 1181 l 179 1031 l 142 1031 m 350 1222 l 350 1229 l 396 1414 l 451 1414 l 451 1407 l 382 1222 l 350 1222 z "},"Ệ":{"ha":488,"x_min":90,"x_max":446,"o":"m 90 0 l 90 956 l 446 956 l 446 908 l 142 908 l 142 507 l 407 507 l 407 460 l 142 460 l 142 47 l 446 47 l 446 0 l 90 0 m 238 -176 l 238 -86 l 299 -86 l 299 -176 l 238 -176 m 143 1042 l 143 1049 l 236 1233 l 300 1233 l 393 1049 l 393 1042 l 356 1042 l 268 1192 l 181 1042 l 143 1042 z "},"Ề":{"ha":488,"x_min":90,"x_max":446,"o":"m 90 0 l 90 956 l 446 956 l 446 908 l 142 908 l 142 507 l 407 507 l 407 460 l 142 460 l 142 47 l 446 47 l 446 0 l 90 0 m 143 1031 l 143 1038 l 236 1222 l 300 1222 l 393 1038 l 393 1031 l 356 1031 l 268 1181 l 181 1031 l 143 1031 m 350 1222 l 281 1407 l 281 1414 l 336 1414 l 382 1229 l 382 1222 l 350 1222 z "},"Ể":{"ha":488,"x_min":90,"x_max":481,"o":"m 90 0 l 90 956 l 446 956 l 446 908 l 142 908 l 142 507 l 407 507 l 407 460 l 142 460 l 142 47 l 446 47 l 446 0 l 90 0 m 143 1031 l 143 1038 l 236 1222 l 300 1222 l 393 1038 l 393 1031 l 356 1031 l 268 1181 l 181 1031 l 143 1031 m 321 1233 q 332 1272 321 1261 q 369 1290 343 1282 l 385 1294 q 427 1315 415 1304 q 439 1356 439 1326 q 435 1389 439 1379 q 413 1403 431 1399 q 354 1408 394 1408 q 254 1403 338 1408 l 254 1439 q 361 1447 332 1447 q 438 1438 411 1447 q 472 1411 464 1429 q 481 1363 481 1393 q 472 1304 481 1324 q 428 1272 464 1285 l 415 1268 q 369 1249 378 1256 q 361 1222 361 1242 l 321 1222 l 321 1233 z "},"Ễ":{"ha":488,"x_min":90,"x_max":446,"o":"m 90 0 l 90 956 l 446 956 l 446 908 l 142 908 l 142 507 l 407 507 l 407 460 l 142 460 l 142 47 l 446 47 l 446 0 l 90 0 m 140 1032 l 140 1039 l 233 1224 l 297 1224 l 390 1039 l 390 1032 l 353 1032 l 265 1182 l 178 1032 l 140 1032 m 425 1464 q 412 1360 425 1389 q 358 1332 399 1332 q 315 1341 336 1332 q 263 1368 293 1350 q 215 1394 235 1385 q 176 1403 194 1403 q 153 1385 158 1403 q 147 1317 147 1367 l 110 1317 q 123 1420 110 1392 q 176 1449 136 1449 q 222 1439 200 1449 q 278 1410 244 1429 q 358 1378 331 1378 q 382 1396 376 1378 q 388 1464 388 1414 l 425 1464 z "},"Ȅ":{"ha":488,"x_min":90,"x_max":446,"o":"m 90 0 l 90 956 l 446 956 l 446 908 l 142 908 l 142 507 l 407 507 l 407 460 l 142 460 l 142 47 l 446 47 l 446 0 l 90 0 m 215 1050 l 183 1050 l 117 1208 l 117 1215 l 172 1215 l 215 1057 l 215 1050 m 354 1050 l 322 1050 l 256 1208 l 256 1215 l 311 1215 l 354 1057 l 354 1050 z "},"Ë":{"ha":488,"x_min":90,"x_max":446,"o":"m 90 0 l 90 956 l 446 956 l 446 908 l 142 908 l 142 507 l 407 507 l 407 460 l 142 460 l 142 47 l 446 47 l 446 0 l 90 0 m 122 1069 l 122 1154 l 179 1154 l 179 1069 l 122 1069 m 358 1069 l 358 1154 l 415 1154 l 415 1069 l 358 1069 z "},"Ė":{"ha":488,"x_min":90,"x_max":446,"o":"m 90 0 l 90 956 l 446 956 l 446 908 l 142 908 l 142 507 l 407 507 l 407 460 l 142 460 l 142 47 l 446 47 l 446 0 l 90 0 m 239 1131 l 239 1215 l 296 1215 l 296 1131 l 239 1131 z "},"Ẹ":{"ha":488,"x_min":90,"x_max":446,"o":"m 90 0 l 90 956 l 446 956 l 446 908 l 142 908 l 142 507 l 407 507 l 407 460 l 142 460 l 142 47 l 446 47 l 446 0 l 90 0 m 238 -176 l 238 -86 l 299 -86 l 299 -176 l 238 -176 z "},"È":{"ha":488,"x_min":90,"x_max":446,"o":"m 90 0 l 90 956 l 446 956 l 446 908 l 142 908 l 142 507 l 407 507 l 407 460 l 142 460 l 142 47 l 446 47 l 446 0 l 90 0 m 268 1042 l 199 1226 l 199 1233 l 254 1233 l 300 1049 l 300 1042 l 268 1042 z "},"Ẻ":{"ha":488,"x_min":90,"x_max":446,"o":"m 90 0 l 90 956 l 446 956 l 446 908 l 142 908 l 142 507 l 407 507 l 407 460 l 142 460 l 142 47 l 446 47 l 446 0 l 90 0 m 221 1043 q 232 1081 221 1071 q 269 1100 243 1092 l 285 1104 q 327 1125 315 1114 q 339 1165 339 1136 q 335 1199 339 1189 q 313 1213 331 1208 q 254 1218 294 1218 q 154 1213 238 1218 l 154 1249 q 261 1257 232 1257 q 338 1248 311 1257 q 372 1221 364 1239 q 381 1172 381 1203 q 372 1114 381 1133 q 328 1082 364 1094 l 315 1078 q 269 1058 278 1065 q 261 1032 261 1051 l 221 1032 l 221 1043 z "},"Ȇ":{"ha":488,"x_min":90,"x_max":446,"o":"m 90 0 l 90 956 l 446 956 l 446 908 l 142 908 l 142 507 l 407 507 l 407 460 l 142 460 l 142 47 l 446 47 l 446 0 l 90 0 m 140 1046 q 147 1156 140 1117 q 181 1218 153 1194 q 268 1242 208 1242 q 355 1218 328 1242 q 388 1156 382 1194 q 394 1046 394 1118 l 349 1046 q 344 1139 349 1108 q 323 1186 340 1169 q 268 1203 306 1203 q 212 1186 229 1203 q 190 1139 194 1169 q 186 1046 186 1108 l 140 1046 z "},"Ē":{"ha":488,"x_min":90,"x_max":446,"o":"m 90 0 l 90 956 l 446 956 l 446 908 l 142 908 l 142 507 l 407 507 l 407 460 l 142 460 l 142 47 l 446 47 l 446 0 l 90 0 m 153 1183 l 153 1233 l 382 1233 l 382 1183 l 153 1183 z "},"Ę":{"ha":488,"x_min":90,"x_max":446,"o":"m 408 -272 q 328 -245 354 -272 q 303 -176 303 -218 q 329 -85 303 -132 q 397 0 356 -37 l 90 0 l 90 956 l 446 956 l 446 908 l 142 908 l 142 507 l 407 507 l 407 460 l 142 460 l 142 47 l 446 47 l 446 0 q 381 -76 411 -26 q 350 -165 350 -125 q 365 -210 350 -193 q 415 -228 381 -228 l 439 -226 l 439 -271 q 408 -272 426 -272 z "},"Ẽ":{"ha":488,"x_min":90,"x_max":446,"o":"m 90 0 l 90 956 l 446 956 l 446 908 l 142 908 l 142 507 l 407 507 l 407 460 l 142 460 l 142 47 l 446 47 l 446 0 l 90 0 m 425 1233 q 412 1130 425 1158 q 358 1101 399 1101 q 315 1110 336 1101 q 263 1138 293 1119 q 215 1163 235 1154 q 176 1172 194 1172 q 153 1154 158 1172 q 147 1086 147 1136 l 110 1086 q 123 1190 110 1161 q 176 1218 136 1218 q 222 1208 200 1218 q 278 1179 244 1199 q 358 1147 331 1147 q 382 1165 376 1147 q 388 1233 388 1183 l 425 1233 z "},"F":{"ha":464,"x_min":90,"x_max":429,"o":"m 90 0 l 90 956 l 429 956 l 429 908 l 142 908 l 142 488 l 399 488 l 399 440 l 142 440 l 142 0 l 90 0 z "},"G":{"ha":544,"x_min":69,"x_max":479,"o":"m 288 438 l 288 485 l 479 485 l 479 13 q 390 -5 439 1 q 304 -11 342 -11 q 156 24 204 -11 q 89 161 108 60 q 69 478 69 263 q 88 792 69 692 q 153 930 106 893 q 304 967 201 967 q 396 960 347 967 q 478 942 444 953 l 478 897 q 399 913 442 907 q 329 919 357 919 q 192 896 232 919 q 135 783 151 872 q 119 478 119 693 q 131 191 119 279 q 181 69 143 103 q 303 36 218 36 q 371 41 335 36 q 429 53 407 46 l 429 438 l 288 438 z "},"Ǵ":{"ha":544,"x_min":69,"x_max":479,"o":"m 288 438 l 288 485 l 479 485 l 479 13 q 390 -5 439 1 q 304 -11 342 -11 q 156 24 204 -11 q 89 161 108 60 q 69 478 69 263 q 88 792 69 692 q 153 930 106 893 q 304 967 201 967 q 396 960 347 967 q 478 942 444 953 l 478 897 q 399 913 442 907 q 329 919 357 919 q 192 896 232 919 q 135 783 151 872 q 119 478 119 693 q 131 191 119 279 q 181 69 143 103 q 303 36 218 36 q 371 41 335 36 q 429 53 407 46 l 429 438 l 288 438 m 253 1042 l 253 1049 l 299 1233 l 354 1233 l 354 1226 l 285 1042 l 253 1042 z "},"Ğ":{"ha":544,"x_min":69,"x_max":479,"o":"m 288 438 l 288 485 l 479 485 l 479 13 q 390 -5 439 1 q 304 -11 342 -11 q 156 24 204 -11 q 89 161 108 60 q 69 478 69 263 q 88 792 69 692 q 153 930 106 893 q 304 967 201 967 q 396 960 347 967 q 478 942 444 953 l 478 897 q 399 913 442 907 q 329 919 357 919 q 192 896 232 919 q 135 783 151 872 q 119 478 119 693 q 131 191 119 279 q 181 69 143 103 q 303 36 218 36 q 371 41 335 36 q 429 53 407 46 l 429 438 l 288 438 m 399 1233 q 392 1124 399 1163 q 358 1061 386 1085 q 271 1038 331 1038 q 184 1061 211 1038 q 151 1123 157 1085 q 144 1233 144 1161 l 190 1233 q 194 1140 190 1171 q 216 1093 199 1110 q 271 1076 233 1076 q 327 1093 310 1076 q 349 1140 344 1110 q 353 1233 353 1171 l 399 1233 z "},"Ǧ":{"ha":544,"x_min":69,"x_max":479,"o":"m 288 438 l 288 485 l 479 485 l 479 13 q 390 -5 439 1 q 304 -11 342 -11 q 156 24 204 -11 q 89 161 108 60 q 69 478 69 263 q 88 792 69 692 q 153 930 106 893 q 304 967 201 967 q 396 960 347 967 q 478 942 444 953 l 478 897 q 399 913 442 907 q 329 919 357 919 q 192 896 232 919 q 135 783 151 872 q 119 478 119 693 q 131 191 119 279 q 181 69 143 103 q 303 36 218 36 q 371 41 335 36 q 429 53 407 46 l 429 438 l 288 438 m 240 1042 l 147 1226 l 147 1233 l 185 1233 l 272 1083 l 360 1233 l 397 1233 l 397 1226 l 304 1042 l 240 1042 z "},"Ĝ":{"ha":544,"x_min":69,"x_max":479,"o":"m 288 438 l 288 485 l 479 485 l 479 13 q 390 -5 439 1 q 304 -11 342 -11 q 156 24 204 -11 q 89 161 108 60 q 69 478 69 263 q 88 792 69 692 q 153 930 106 893 q 304 967 201 967 q 396 960 347 967 q 478 942 444 953 l 478 897 q 399 913 442 907 q 329 919 357 919 q 192 896 232 919 q 135 783 151 872 q 119 478 119 693 q 131 191 119 279 q 181 69 143 103 q 303 36 218 36 q 371 41 335 36 q 429 53 407 46 l 429 438 l 288 438 m 147 1042 l 147 1049 l 240 1233 l 304 1233 l 397 1049 l 397 1042 l 360 1042 l 272 1192 l 185 1042 l 147 1042 z "},"Ģ":{"ha":544,"x_min":69,"x_max":479,"o":"m 288 438 l 288 485 l 479 485 l 479 13 q 390 -5 439 1 q 304 -11 342 -11 q 156 24 204 -11 q 89 161 108 60 q 69 478 69 263 q 88 792 69 692 q 153 930 106 893 q 304 967 201 967 q 396 960 347 967 q 478 942 444 953 l 478 897 q 399 913 442 907 q 329 919 357 919 q 192 896 232 919 q 135 783 151 872 q 119 478 119 693 q 131 191 119 279 q 181 69 143 103 q 303 36 218 36 q 371 41 335 36 q 429 53 407 46 l 429 438 l 288 438 m 224 -287 q 265 -280 253 -287 q 281 -256 278 -272 q 285 -200 285 -239 l 285 -176 l 257 -176 l 257 -86 l 321 -86 l 321 -190 q 313 -268 321 -242 q 285 -306 306 -294 q 224 -317 264 -317 l 224 -287 z "},"Ġ":{"ha":544,"x_min":69,"x_max":479,"o":"m 288 438 l 288 485 l 479 485 l 479 13 q 390 -5 439 1 q 304 -11 342 -11 q 156 24 204 -11 q 89 161 108 60 q 69 478 69 263 q 88 792 69 692 q 153 930 106 893 q 304 967 201 967 q 396 960 347 967 q 478 942 444 953 l 478 897 q 399 913 442 907 q 329 919 357 919 q 192 896 232 919 q 135 783 151 872 q 119 478 119 693 q 131 191 119 279 q 181 69 143 103 q 303 36 218 36 q 371 41 335 36 q 429 53 407 46 l 429 438 l 288 438 m 243 1131 l 243 1215 l 300 1215 l 300 1131 l 243 1131 z "},"H":{"ha":603,"x_min":90,"x_max":513,"o":"m 463 0 l 463 460 l 140 460 l 140 0 l 90 0 l 90 956 l 140 956 l 140 507 l 463 507 l 463 956 l 513 956 l 513 0 l 463 0 z "},"Ħ":{"ha":603,"x_min":90,"x_max":513,"o":"m 463 956 l 513 956 l 513 0 l 463 0 l 463 432 l 140 432 l 140 0 l 90 0 l 90 956 l 140 956 l 140 736 l 463 736 l 463 956 m 140 479 l 463 479 l 463 686 l 140 686 l 140 479 z "},"Ĥ":{"ha":603,"x_min":90,"x_max":513,"o":"m 463 0 l 463 460 l 140 460 l 140 0 l 90 0 l 90 956 l 140 956 l 140 507 l 463 507 l 463 956 l 513 956 l 513 0 l 463 0 m 176 1042 l 176 1049 l 269 1233 l 333 1233 l 426 1049 l 426 1042 l 389 1042 l 301 1192 l 214 1042 l 176 1042 z "},"Ḥ":{"ha":603,"x_min":90,"x_max":513,"o":"m 463 0 l 463 460 l 140 460 l 140 0 l 90 0 l 90 956 l 140 956 l 140 507 l 463 507 l 463 956 l 513 956 l 513 0 l 463 0 m 271 -176 l 271 -86 l 332 -86 l 332 -176 l 271 -176 z "},"I":{"ha":244,"x_min":97,"x_max":147,"o":"m 97 0 l 97 956 l 147 956 l 147 0 l 97 0 z "},"Ĳ":{"ha":490,"x_min":97,"x_max":407,"o":"m 97 0 l 97 956 l 147 956 l 147 0 l 97 0 m 258 47 q 330 64 313 50 q 352 125 347 78 q 357 314 357 172 l 357 956 l 407 956 l 407 311 q 399 96 407 154 q 363 20 390 38 q 258 0 335 3 l 258 47 z "},"Í":{"ha":244,"x_min":97,"x_max":199,"o":"m 97 0 l 97 956 l 147 956 l 147 0 l 97 0 m 97 1042 l 97 1049 l 143 1233 l 199 1233 l 199 1226 l 129 1042 l 97 1042 z "},"Ĭ":{"ha":244,"x_min":-6,"x_max":249,"o":"m 97 0 l 97 956 l 147 956 l 147 0 l 97 0 m 249 1233 q 242 1124 249 1163 q 208 1061 236 1085 q 121 1038 181 1038 q 34 1061 61 1038 q 1 1123 7 1085 q -6 1233 -6 1161 l 40 1233 q 44 1140 40 1171 q 66 1093 49 1110 q 121 1076 83 1076 q 177 1093 160 1076 q 199 1140 194 1110 q 203 1233 203 1171 l 249 1233 z "},"Ǐ":{"ha":244,"x_min":-3,"x_max":247,"o":"m 97 0 l 97 956 l 147 956 l 147 0 l 97 0 m 90 1042 l -3 1226 l -3 1233 l 35 1233 l 122 1083 l 210 1233 l 247 1233 l 247 1226 l 154 1042 l 90 1042 z "},"Î":{"ha":244,"x_min":-3,"x_max":247,"o":"m 97 0 l 97 956 l 147 956 l 147 0 l 97 0 m -3 1042 l -3 1049 l 90 1233 l 154 1233 l 247 1049 l 247 1042 l 210 1042 l 122 1192 l 35 1042 l -3 1042 z "},"Ȉ":{"ha":244,"x_min":-29,"x_max":208,"o":"m 97 0 l 97 956 l 147 956 l 147 0 l 97 0 m 69 1050 l 38 1050 l -29 1208 l -29 1215 l 26 1215 l 69 1057 l 69 1050 m 208 1050 l 176 1050 l 110 1208 l 110 1215 l 165 1215 l 208 1057 l 208 1050 z "},"Ï":{"ha":244,"x_min":-24,"x_max":269,"o":"m 97 0 l 97 956 l 147 956 l 147 0 l 97 0 m -24 1069 l -24 1154 l 33 1154 l 33 1069 l -24 1069 m 213 1069 l 213 1154 l 269 1154 l 269 1069 l 213 1069 z "},"İ":{"ha":244,"x_min":93,"x_max":150,"o":"m 97 0 l 97 956 l 147 956 l 147 0 l 97 0 m 93 1131 l 93 1215 l 150 1215 l 150 1131 l 93 1131 z "},"Ị":{"ha":244,"x_min":92,"x_max":153,"o":"m 97 0 l 97 956 l 147 956 l 147 0 l 97 0 m 92 -176 l 92 -86 l 153 -86 l 153 -176 l 92 -176 z "},"Ì":{"ha":244,"x_min":46,"x_max":147,"o":"m 97 0 l 97 956 l 147 956 l 147 0 l 97 0 m 115 1042 l 46 1226 l 46 1233 l 101 1233 l 147 1049 l 147 1042 l 115 1042 z "},"Ỉ":{"ha":244,"x_min":8,"x_max":235,"o":"m 97 0 l 97 956 l 147 956 l 147 0 l 97 0 m 75 1043 q 86 1081 75 1071 q 124 1100 97 1092 l 139 1104 q 181 1125 169 1114 q 193 1165 193 1136 q 189 1199 193 1189 q 167 1213 185 1208 q 108 1218 149 1218 q 8 1213 92 1218 l 8 1249 q 115 1257 86 1257 q 192 1248 165 1257 q 226 1221 218 1239 q 235 1172 235 1203 q 226 1114 235 1133 q 182 1082 218 1094 l 169 1078 q 124 1058 132 1065 q 115 1032 115 1051 l 75 1032 l 75 1043 z "},"Ȋ":{"ha":244,"x_min":-6,"x_max":249,"o":"m 97 0 l 97 956 l 147 956 l 147 0 l 97 0 m -6 1046 q 1 1156 -6 1117 q 35 1218 7 1194 q 122 1242 63 1242 q 209 1218 182 1242 q 242 1156 236 1194 q 249 1046 249 1118 l 203 1046 q 199 1139 203 1108 q 177 1186 194 1169 q 122 1203 160 1203 q 66 1186 83 1203 q 44 1139 49 1169 q 40 1046 40 1108 l -6 1046 z "},"Ī":{"ha":244,"x_min":7,"x_max":236,"o":"m 97 0 l 97 956 l 147 956 l 147 0 l 97 0 m 7 1183 l 7 1233 l 236 1233 l 236 1183 l 7 1183 z "},"Į":{"ha":244,"x_min":13,"x_max":149,"o":"m 118 -272 q 38 -245 64 -272 q 13 -172 13 -218 q 36 -85 13 -132 q 99 0 60 -37 l 97 0 l 97 956 l 147 956 l 147 0 q 88 -76 117 -26 q 60 -164 60 -125 q 125 -228 60 -228 l 149 -226 l 149 -271 q 118 -272 136 -272 z "},"Ĩ":{"ha":244,"x_min":-36,"x_max":279,"o":"m 97 0 l 97 956 l 147 956 l 147 0 l 97 0 m 279 1233 q 266 1130 279 1158 q 213 1101 253 1101 q 169 1110 190 1101 q 117 1138 147 1119 q 69 1163 89 1154 q 31 1172 49 1172 q 7 1154 13 1172 q 1 1086 1 1136 l -36 1086 q -23 1190 -36 1161 q 31 1218 -10 1218 q 76 1208 54 1218 q 132 1179 99 1199 q 213 1147 185 1147 q 236 1165 231 1147 q 242 1233 242 1183 l 279 1233 z "},"J":{"ha":246,"x_min":14,"x_max":163,"o":"m 14 47 q 85 64 68 50 q 108 125 103 78 q 113 314 113 172 l 113 956 l 163 956 l 163 311 q 154 96 163 154 q 118 20 146 38 q 14 0 90 3 l 14 47 z "},"Ĵ":{"ha":246,"x_min":13,"x_max":263,"o":"m 14 47 q 85 64 68 50 q 108 125 103 78 q 113 314 113 172 l 113 956 l 163 956 l 163 311 q 154 96 163 154 q 118 20 146 38 q 14 0 90 3 l 14 47 m 13 1042 l 13 1049 l 106 1233 l 169 1233 l 263 1049 l 263 1042 l 225 1042 l 138 1192 l 50 1042 l 13 1042 z "},"K":{"ha":536,"x_min":90,"x_max":515,"o":"m 461 0 l 257 461 l 140 461 l 140 0 l 90 0 l 90 956 l 140 956 l 140 508 l 257 508 l 460 956 l 513 956 l 300 485 l 515 0 l 461 0 z "},"Ķ":{"ha":536,"x_min":90,"x_max":515,"o":"m 461 0 l 257 461 l 140 461 l 140 0 l 90 0 l 90 956 l 140 956 l 140 508 l 257 508 l 460 956 l 513 956 l 300 485 l 515 0 l 461 0 m 219 -287 q 261 -280 249 -287 q 277 -256 274 -272 q 281 -200 281 -239 l 281 -176 l 253 -176 l 253 -86 l 317 -86 l 317 -190 q 309 -268 317 -242 q 281 -306 301 -294 q 219 -317 260 -317 l 219 -287 z "},"L":{"ha":419,"x_min":90,"x_max":413,"o":"m 90 0 l 90 956 l 142 956 l 142 47 l 413 47 l 413 0 l 90 0 z "},"Ǉ":{"ha":665,"x_min":90,"x_max":582,"o":"m 90 0 l 90 956 l 142 956 l 142 47 l 413 47 l 413 0 l 90 0 m 433 47 q 505 64 488 50 q 527 125 522 78 q 532 314 532 172 l 532 956 l 582 956 l 582 311 q 574 96 582 154 q 538 20 565 38 q 433 0 510 3 l 433 47 z "},"Ĺ":{"ha":419,"x_min":90,"x_max":413,"o":"m 90 0 l 90 956 l 142 956 l 142 47 l 413 47 l 413 0 l 90 0 m 97 1042 l 97 1049 l 143 1233 l 199 1233 l 199 1226 l 129 1042 l 97 1042 z "},"Ľ":{"ha":419,"x_min":90,"x_max":413,"o":"m 90 0 l 90 956 l 142 956 l 142 47 l 413 47 l 413 0 l 90 0 m 250 631 l 267 832 l 267 956 l 321 956 l 321 832 l 282 631 l 250 631 z "},"Ļ":{"ha":419,"x_min":90,"x_max":413,"o":"m 90 0 l 90 956 l 142 956 l 142 47 l 413 47 l 413 0 l 90 0 m 175 -287 q 217 -280 204 -287 q 233 -256 229 -272 q 236 -200 236 -239 l 236 -176 l 208 -176 l 208 -86 l 272 -86 l 272 -190 q 265 -268 272 -242 q 236 -306 257 -294 q 175 -317 215 -317 l 175 -287 z "},"Ŀ":{"ha":419,"x_min":90,"x_max":413,"o":"m 90 0 l 90 956 l 142 956 l 142 47 l 413 47 l 413 0 l 90 0 m 317 454 l 317 544 l 378 544 l 378 454 l 317 454 z "},"ǈ":{"ha":635,"x_min":90,"x_max":554,"o":"m 90 0 l 90 956 l 142 956 l 142 47 l 413 47 l 413 0 l 90 0 m 500 947 l 500 1032 l 554 1032 l 554 947 l 500 947 m 418 -222 q 474 -215 457 -222 q 497 -193 492 -208 q 503 -143 503 -178 l 503 708 l 551 708 l 551 -129 q 538 -220 551 -192 q 497 -256 524 -249 q 418 -264 471 -264 l 418 -222 z "},"Ł":{"ha":419,"x_min":28,"x_max":413,"o":"m 142 47 l 413 47 l 413 0 l 90 0 l 90 403 l 28 381 l 28 428 l 90 450 l 90 956 l 142 956 l 142 469 l 324 536 l 324 489 l 142 422 l 142 47 z "},"M":{"ha":751,"x_min":90,"x_max":661,"o":"m 611 0 l 611 826 l 606 826 l 403 0 l 344 0 l 144 826 l 139 826 l 139 0 l 90 0 l 90 956 l 163 956 l 372 101 l 379 101 l 590 956 l 661 956 l 661 0 l 611 0 z "},"N":{"ha":603,"x_min":90,"x_max":513,"o":"m 453 0 l 144 826 l 139 826 l 139 0 l 90 0 l 90 956 l 150 956 l 458 129 l 464 129 l 464 956 l 513 956 l 513 0 l 453 0 z "},"Ǌ":{"ha":849,"x_min":90,"x_max":765,"o":"m 453 0 l 144 826 l 139 826 l 139 0 l 90 0 l 90 956 l 150 956 l 458 129 l 464 129 l 464 956 l 513 956 l 513 0 l 453 0 m 617 47 q 688 64 671 50 q 710 125 706 78 q 715 314 715 172 l 715 956 l 765 956 l 765 311 q 757 96 765 154 q 721 20 749 38 q 617 0 693 3 l 617 47 z "},"Ń":{"ha":603,"x_min":90,"x_max":513,"o":"m 453 0 l 144 826 l 139 826 l 139 0 l 90 0 l 90 956 l 150 956 l 458 129 l 464 129 l 464 956 l 513 956 l 513 0 l 453 0 m 282 1042 l 282 1049 l 328 1233 l 383 1233 l 383 1226 l 314 1042 l 282 1042 z "},"Ň":{"ha":603,"x_min":90,"x_max":513,"o":"m 453 0 l 144 826 l 139 826 l 139 0 l 90 0 l 90 956 l 150 956 l 458 129 l 464 129 l 464 956 l 513 956 l 513 0 l 453 0 m 269 1042 l 176 1226 l 176 1233 l 214 1233 l 301 1083 l 389 1233 l 426 1233 l 426 1226 l 333 1042 l 269 1042 z "},"Ņ":{"ha":603,"x_min":90,"x_max":513,"o":"m 453 0 l 144 826 l 139 826 l 139 0 l 90 0 l 90 956 l 150 956 l 458 129 l 464 129 l 464 956 l 513 956 l 513 0 l 453 0 m 253 -287 q 294 -280 282 -287 q 310 -256 307 -272 q 314 -200 314 -239 l 314 -176 l 286 -176 l 286 -86 l 350 -86 l 350 -190 q 342 -268 350 -242 q 314 -306 335 -294 q 253 -317 293 -317 l 253 -287 z "},"Ṅ":{"ha":603,"x_min":90,"x_max":513,"o":"m 453 0 l 144 826 l 139 826 l 139 0 l 90 0 l 90 956 l 150 956 l 458 129 l 464 129 l 464 956 l 513 956 l 513 0 l 453 0 m 272 1131 l 272 1215 l 329 1215 l 329 1131 l 272 1131 z "},"Ŋ":{"ha":603,"x_min":90,"x_max":513,"o":"m 513 956 l 513 -129 q 499 -220 513 -192 q 458 -256 485 -249 q 379 -264 432 -264 l 379 -222 q 435 -215 418 -222 q 458 -193 453 -208 q 464 -143 464 -178 l 464 0 l 144 826 l 139 826 l 139 0 l 90 0 l 90 956 l 150 956 l 458 140 l 464 140 l 464 956 l 513 956 z "},"Ɲ":{"ha":603,"x_min":6,"x_max":513,"o":"m 513 956 l 513 0 l 453 0 l 144 826 l 139 826 l 139 -129 q 125 -220 139 -192 q 85 -256 111 -249 q 6 -264 58 -264 l 6 -222 q 62 -215 44 -222 q 85 -193 79 -208 q 90 -143 90 -178 l 90 956 l 150 956 l 458 129 l 464 129 l 464 956 l 513 956 z "},"ǋ":{"ha":818,"x_min":90,"x_max":738,"o":"m 453 0 l 144 826 l 139 826 l 139 0 l 90 0 l 90 956 l 150 956 l 458 129 l 464 129 l 464 956 l 513 956 l 513 0 l 453 0 m 683 947 l 683 1032 l 738 1032 l 738 947 l 683 947 m 601 -222 q 658 -215 640 -222 q 681 -193 675 -208 q 686 -143 686 -178 l 686 708 l 735 708 l 735 -129 q 721 -220 735 -192 q 681 -256 707 -249 q 601 -264 654 -264 l 601 -222 z "},"Ñ":{"ha":603,"x_min":90,"x_max":513,"o":"m 453 0 l 144 826 l 139 826 l 139 0 l 90 0 l 90 956 l 150 956 l 458 129 l 464 129 l 464 956 l 513 956 l 513 0 l 453 0 m 460 1189 q 447 1085 460 1114 q 393 1057 433 1057 q 349 1066 371 1057 q 297 1093 328 1075 q 249 1119 269 1110 q 211 1128 229 1128 q 188 1110 193 1128 q 182 1042 182 1092 l 144 1042 q 158 1145 144 1117 q 211 1174 171 1174 q 257 1164 235 1174 q 313 1135 279 1154 q 393 1103 365 1103 q 417 1121 411 1103 q 422 1189 422 1139 l 460 1189 z "},"O":{"ha":594,"x_min":69,"x_max":525,"o":"m 297 -11 q 146 24 192 -11 q 85 156 100 58 q 69 478 69 254 q 85 799 69 701 q 146 932 100 897 q 297 967 192 967 q 449 932 403 967 q 510 799 494 897 q 525 478 525 701 q 510 156 525 254 q 449 24 494 58 q 297 -11 403 -11 m 297 36 q 415 60 381 36 q 462 174 449 85 q 475 478 475 263 q 462 782 475 693 q 415 895 449 871 q 297 919 381 919 q 180 895 214 919 q 133 782 146 871 q 119 478 119 693 q 133 174 119 263 q 180 60 146 85 q 297 36 214 36 z "},"Ó":{"ha":594,"x_min":69,"x_max":525,"o":"m 297 -11 q 146 24 192 -11 q 85 156 100 58 q 69 478 69 254 q 85 799 69 701 q 146 932 100 897 q 297 967 192 967 q 449 932 403 967 q 510 799 494 897 q 525 478 525 701 q 510 156 525 254 q 449 24 494 58 q 297 -11 403 -11 m 297 36 q 415 60 381 36 q 462 174 449 85 q 475 478 475 263 q 462 782 475 693 q 415 895 449 871 q 297 919 381 919 q 180 895 214 919 q 133 782 146 871 q 119 478 119 693 q 133 174 119 263 q 180 60 146 85 q 297 36 214 36 m 276 1042 l 276 1049 l 322 1233 l 378 1233 l 378 1226 l 308 1042 l 276 1042 z "},"Ŏ":{"ha":594,"x_min":69,"x_max":525,"o":"m 297 -11 q 146 24 192 -11 q 85 156 100 58 q 69 478 69 254 q 85 799 69 701 q 146 932 100 897 q 297 967 192 967 q 449 932 403 967 q 510 799 494 897 q 525 478 525 701 q 510 156 525 254 q 449 24 494 58 q 297 -11 403 -11 m 297 36 q 415 60 381 36 q 462 174 449 85 q 475 478 475 263 q 462 782 475 693 q 415 895 449 871 q 297 919 381 919 q 180 895 214 919 q 133 782 146 871 q 119 478 119 693 q 133 174 119 263 q 180 60 146 85 q 297 36 214 36 m 424 1233 q 417 1124 424 1163 q 383 1061 411 1085 q 296 1038 356 1038 q 209 1061 236 1038 q 176 1123 182 1085 q 169 1233 169 1161 l 215 1233 q 219 1140 215 1171 q 241 1093 224 1110 q 296 1076 258 1076 q 352 1093 335 1076 q 374 1140 369 1110 q 378 1233 378 1171 l 424 1233 z "},"Ǒ":{"ha":594,"x_min":69,"x_max":525,"o":"m 297 -11 q 146 24 192 -11 q 85 156 100 58 q 69 478 69 254 q 85 799 69 701 q 146 932 100 897 q 297 967 192 967 q 449 932 403 967 q 510 799 494 897 q 525 478 525 701 q 510 156 525 254 q 449 24 494 58 q 297 -11 403 -11 m 297 36 q 415 60 381 36 q 462 174 449 85 q 475 478 475 263 q 462 782 475 693 q 415 895 449 871 q 297 919 381 919 q 180 895 214 919 q 133 782 146 871 q 119 478 119 693 q 133 174 119 263 q 180 60 146 85 q 297 36 214 36 m 265 1042 l 172 1226 l 172 1233 l 210 1233 l 297 1083 l 385 1233 l 422 1233 l 422 1226 l 329 1042 l 265 1042 z "},"Ô":{"ha":594,"x_min":69,"x_max":525,"o":"m 297 -11 q 146 24 192 -11 q 85 156 100 58 q 69 478 69 254 q 85 799 69 701 q 146 932 100 897 q 297 967 192 967 q 449 932 403 967 q 510 799 494 897 q 525 478 525 701 q 510 156 525 254 q 449 24 494 58 q 297 -11 403 -11 m 297 36 q 415 60 381 36 q 462 174 449 85 q 475 478 475 263 q 462 782 475 693 q 415 895 449 871 q 297 919 381 919 q 180 895 214 919 q 133 782 146 871 q 119 478 119 693 q 133 174 119 263 q 180 60 146 85 q 297 36 214 36 m 172 1042 l 172 1049 l 265 1233 l 329 1233 l 422 1049 l 422 1042 l 385 1042 l 297 1192 l 210 1042 l 172 1042 z "},"Ố":{"ha":594,"x_min":69,"x_max":525,"o":"m 297 -11 q 146 24 192 -11 q 85 156 100 58 q 69 478 69 254 q 85 799 69 701 q 146 932 100 897 q 297 967 192 967 q 449 932 403 967 q 510 799 494 897 q 525 478 525 701 q 510 156 525 254 q 449 24 494 58 q 297 -11 403 -11 m 297 36 q 415 60 381 36 q 462 174 449 85 q 475 478 475 263 q 462 782 475 693 q 415 895 449 871 q 297 919 381 919 q 180 895 214 919 q 133 782 146 871 q 119 478 119 693 q 133 174 119 263 q 180 60 146 85 q 297 36 214 36 m 171 1031 l 171 1038 l 264 1222 l 328 1222 l 421 1038 l 421 1031 l 383 1031 l 296 1181 l 208 1031 l 171 1031 m 379 1222 l 379 1229 l 425 1414 l 481 1414 l 481 1407 l 411 1222 l 379 1222 z "},"Ộ":{"ha":594,"x_min":69,"x_max":525,"o":"m 297 -11 q 146 24 192 -11 q 85 156 100 58 q 69 478 69 254 q 85 799 69 701 q 146 932 100 897 q 297 967 192 967 q 449 932 403 967 q 510 799 494 897 q 525 478 525 701 q 510 156 525 254 q 449 24 494 58 q 297 -11 403 -11 m 297 36 q 415 60 381 36 q 462 174 449 85 q 475 478 475 263 q 462 782 475 693 q 415 895 449 871 q 297 919 381 919 q 180 895 214 919 q 133 782 146 871 q 119 478 119 693 q 133 174 119 263 q 180 60 146 85 q 297 36 214 36 m 267 -176 l 267 -86 l 328 -86 l 328 -176 l 267 -176 m 172 1042 l 172 1049 l 265 1233 l 329 1233 l 422 1049 l 422 1042 l 385 1042 l 297 1192 l 210 1042 l 172 1042 z "},"Ồ":{"ha":594,"x_min":69,"x_max":525,"o":"m 297 -11 q 146 24 192 -11 q 85 156 100 58 q 69 478 69 254 q 85 799 69 701 q 146 932 100 897 q 297 967 192 967 q 449 932 403 967 q 510 799 494 897 q 525 478 525 701 q 510 156 525 254 q 449 24 494 58 q 297 -11 403 -11 m 297 36 q 415 60 381 36 q 462 174 449 85 q 475 478 475 263 q 462 782 475 693 q 415 895 449 871 q 297 919 381 919 q 180 895 214 919 q 133 782 146 871 q 119 478 119 693 q 133 174 119 263 q 180 60 146 85 q 297 36 214 36 m 172 1031 l 172 1038 l 265 1222 l 329 1222 l 422 1038 l 422 1031 l 385 1031 l 297 1181 l 210 1031 l 172 1031 m 379 1222 l 310 1407 l 310 1414 l 365 1414 l 411 1229 l 411 1222 l 379 1222 z "},"Ổ":{"ha":594,"x_min":69,"x_max":525,"o":"m 297 -11 q 146 24 192 -11 q 85 156 100 58 q 69 478 69 254 q 85 799 69 701 q 146 932 100 897 q 297 967 192 967 q 449 932 403 967 q 510 799 494 897 q 525 478 525 701 q 510 156 525 254 q 449 24 494 58 q 297 -11 403 -11 m 297 36 q 415 60 381 36 q 462 174 449 85 q 475 478 475 263 q 462 782 475 693 q 415 895 449 871 q 297 919 381 919 q 180 895 214 919 q 133 782 146 871 q 119 478 119 693 q 133 174 119 263 q 180 60 146 85 q 297 36 214 36 m 172 1031 l 172 1038 l 265 1222 l 329 1222 l 422 1038 l 422 1031 l 385 1031 l 297 1181 l 210 1031 l 172 1031 m 350 1233 q 361 1272 350 1261 q 399 1290 372 1282 l 414 1294 q 456 1315 444 1304 q 468 1356 468 1326 q 464 1389 468 1379 q 442 1403 460 1399 q 383 1408 424 1408 q 283 1403 367 1408 l 283 1439 q 390 1447 361 1447 q 467 1438 440 1447 q 501 1411 493 1429 q 510 1363 510 1393 q 501 1304 510 1324 q 457 1272 493 1285 l 444 1268 q 399 1249 407 1256 q 390 1222 390 1242 l 350 1222 l 350 1233 z "},"Ỗ":{"ha":594,"x_min":69,"x_max":525,"o":"m 297 -11 q 146 24 192 -11 q 85 156 100 58 q 69 478 69 254 q 85 799 69 701 q 146 932 100 897 q 297 967 192 967 q 449 932 403 967 q 510 799 494 897 q 525 478 525 701 q 510 156 525 254 q 449 24 494 58 q 297 -11 403 -11 m 297 36 q 415 60 381 36 q 462 174 449 85 q 475 478 475 263 q 462 782 475 693 q 415 895 449 871 q 297 919 381 919 q 180 895 214 919 q 133 782 146 871 q 119 478 119 693 q 133 174 119 263 q 180 60 146 85 q 297 36 214 36 m 169 1032 l 169 1039 l 263 1224 l 326 1224 l 419 1039 l 419 1032 l 382 1032 l 294 1182 l 207 1032 l 169 1032 m 454 1464 q 441 1360 454 1389 q 388 1332 428 1332 q 344 1341 365 1332 q 292 1368 322 1350 q 244 1394 264 1385 q 206 1403 224 1403 q 182 1385 188 1403 q 176 1317 176 1367 l 139 1317 q 152 1420 139 1392 q 206 1449 165 1449 q 251 1439 229 1449 q 307 1410 274 1429 q 388 1378 360 1378 q 411 1396 406 1378 q 417 1464 417 1414 l 454 1464 z "},"Ȍ":{"ha":594,"x_min":69,"x_max":525,"o":"m 297 -11 q 146 24 192 -11 q 85 156 100 58 q 69 478 69 254 q 85 799 69 701 q 146 932 100 897 q 297 967 192 967 q 449 932 403 967 q 510 799 494 897 q 525 478 525 701 q 510 156 525 254 q 449 24 494 58 q 297 -11 403 -11 m 297 36 q 415 60 381 36 q 462 174 449 85 q 475 478 475 263 q 462 782 475 693 q 415 895 449 871 q 297 919 381 919 q 180 895 214 919 q 133 782 146 871 q 119 478 119 693 q 133 174 119 263 q 180 60 146 85 q 297 36 214 36 m 244 1050 l 213 1050 l 146 1208 l 146 1215 l 201 1215 l 244 1057 l 244 1050 m 383 1050 l 351 1050 l 285 1208 l 285 1215 l 340 1215 l 383 1057 l 383 1050 z "},"Ö":{"ha":594,"x_min":69,"x_max":525,"o":"m 297 -11 q 146 24 192 -11 q 85 156 100 58 q 69 478 69 254 q 85 799 69 701 q 146 932 100 897 q 297 967 192 967 q 449 932 403 967 q 510 799 494 897 q 525 478 525 701 q 510 156 525 254 q 449 24 494 58 q 297 -11 403 -11 m 297 36 q 415 60 381 36 q 462 174 449 85 q 475 478 475 263 q 462 782 475 693 q 415 895 449 871 q 297 919 381 919 q 180 895 214 919 q 133 782 146 871 q 119 478 119 693 q 133 174 119 263 q 180 60 146 85 q 297 36 214 36 m 150 1069 l 150 1154 l 207 1154 l 207 1069 l 150 1069 m 386 1069 l 386 1154 l 443 1154 l 443 1069 l 386 1069 z "},"Ọ":{"ha":594,"x_min":69,"x_max":525,"o":"m 297 -11 q 146 24 192 -11 q 85 156 100 58 q 69 478 69 254 q 85 799 69 701 q 146 932 100 897 q 297 967 192 967 q 449 932 403 967 q 510 799 494 897 q 525 478 525 701 q 510 156 525 254 q 449 24 494 58 q 297 -11 403 -11 m 297 36 q 415 60 381 36 q 462 174 449 85 q 475 478 475 263 q 462 782 475 693 q 415 895 449 871 q 297 919 381 919 q 180 895 214 919 q 133 782 146 871 q 119 478 119 693 q 133 174 119 263 q 180 60 146 85 q 297 36 214 36 m 267 -176 l 267 -86 l 328 -86 l 328 -176 l 267 -176 z "},"Ò":{"ha":594,"x_min":69,"x_max":525,"o":"m 297 -11 q 146 24 192 -11 q 85 156 100 58 q 69 478 69 254 q 85 799 69 701 q 146 932 100 897 q 297 967 192 967 q 449 932 403 967 q 510 799 494 897 q 525 478 525 701 q 510 156 525 254 q 449 24 494 58 q 297 -11 403 -11 m 297 36 q 415 60 381 36 q 462 174 449 85 q 475 478 475 263 q 462 782 475 693 q 415 895 449 871 q 297 919 381 919 q 180 895 214 919 q 133 782 146 871 q 119 478 119 693 q 133 174 119 263 q 180 60 146 85 q 297 36 214 36 m 288 1042 l 218 1226 l 218 1233 l 274 1233 l 319 1049 l 319 1042 l 288 1042 z "},"Ỏ":{"ha":594,"x_min":69,"x_max":525,"o":"m 297 -11 q 146 24 192 -11 q 85 156 100 58 q 69 478 69 254 q 85 799 69 701 q 146 932 100 897 q 297 967 192 967 q 449 932 403 967 q 510 799 494 897 q 525 478 525 701 q 510 156 525 254 q 449 24 494 58 q 297 -11 403 -11 m 297 36 q 415 60 381 36 q 462 174 449 85 q 475 478 475 263 q 462 782 475 693 q 415 895 449 871 q 297 919 381 919 q 180 895 214 919 q 133 782 146 871 q 119 478 119 693 q 133 174 119 263 q 180 60 146 85 q 297 36 214 36 m 250 1043 q 261 1081 250 1071 q 299 1100 272 1092 l 314 1104 q 356 1125 344 1114 q 368 1165 368 1136 q 364 1199 368 1189 q 342 1213 360 1208 q 283 1218 324 1218 q 183 1213 267 1218 l 183 1249 q 290 1257 261 1257 q 367 1248 340 1257 q 401 1221 393 1239 q 410 1172 410 1203 q 401 1114 410 1133 q 357 1082 393 1094 l 344 1078 q 299 1058 307 1065 q 290 1032 290 1051 l 250 1032 l 250 1043 z "},"Ơ":{"ha":594,"x_min":69,"x_max":558,"o":"m 558 1092 l 558 1043 q 540 944 558 971 q 464 917 521 918 q 513 777 500 874 q 525 478 525 681 q 510 156 525 254 q 449 24 494 58 q 297 -11 403 -11 q 146 24 192 -11 q 85 156 100 58 q 69 478 69 254 q 85 799 69 701 q 146 932 100 897 q 297 967 192 967 q 401 956 364 967 l 454 956 q 505 972 494 956 q 515 1033 515 988 l 515 1092 l 558 1092 m 297 36 q 415 60 381 36 q 462 174 449 85 q 475 478 475 263 q 462 782 475 693 q 415 895 449 871 q 297 919 381 919 q 180 895 214 919 q 133 782 146 871 q 119 478 119 693 q 133 174 119 263 q 180 60 146 85 q 297 36 214 36 z "},"Ớ":{"ha":594,"x_min":69,"x_max":558,"o":"m 558 1092 l 558 1043 q 540 944 558 971 q 464 917 521 918 q 513 777 500 874 q 525 478 525 681 q 510 156 525 254 q 449 24 494 58 q 297 -11 403 -11 q 146 24 192 -11 q 85 156 100 58 q 69 478 69 254 q 85 799 69 701 q 146 932 100 897 q 297 967 192 967 q 401 956 364 967 l 454 956 q 505 972 494 956 q 515 1033 515 988 l 515 1092 l 558 1092 m 297 36 q 415 60 381 36 q 462 174 449 85 q 475 478 475 263 q 462 782 475 693 q 415 895 449 871 q 297 919 381 919 q 180 895 214 919 q 133 782 146 871 q 119 478 119 693 q 133 174 119 263 q 180 60 146 85 q 297 36 214 36 m 278 1042 l 278 1049 l 324 1233 l 379 1233 l 379 1226 l 310 1042 l 278 1042 z "},"Ợ":{"ha":594,"x_min":69,"x_max":558,"o":"m 558 1092 l 558 1043 q 540 944 558 971 q 464 917 521 918 q 513 777 500 874 q 525 478 525 681 q 510 156 525 254 q 449 24 494 58 q 297 -11 403 -11 q 146 24 192 -11 q 85 156 100 58 q 69 478 69 254 q 85 799 69 701 q 146 932 100 897 q 297 967 192 967 q 401 956 364 967 l 454 956 q 505 972 494 956 q 515 1033 515 988 l 515 1092 l 558 1092 m 297 36 q 415 60 381 36 q 462 174 449 85 q 475 478 475 263 q 462 782 475 693 q 415 895 449 871 q 297 919 381 919 q 180 895 214 919 q 133 782 146 871 q 119 478 119 693 q 133 174 119 263 q 180 60 146 85 q 297 36 214 36 m 267 -176 l 267 -86 l 328 -86 l 328 -176 l 267 -176 z "},"Ờ":{"ha":594,"x_min":69,"x_max":558,"o":"m 558 1092 l 558 1043 q 540 944 558 971 q 464 917 521 918 q 513 777 500 874 q 525 478 525 681 q 510 156 525 254 q 449 24 494 58 q 297 -11 403 -11 q 146 24 192 -11 q 85 156 100 58 q 69 478 69 254 q 85 799 69 701 q 146 932 100 897 q 297 967 192 967 q 401 956 364 967 l 454 956 q 505 972 494 956 q 515 1033 515 988 l 515 1092 l 558 1092 m 297 36 q 415 60 381 36 q 462 174 449 85 q 475 478 475 263 q 462 782 475 693 q 415 895 449 871 q 297 919 381 919 q 180 895 214 919 q 133 782 146 871 q 119 478 119 693 q 133 174 119 263 q 180 60 146 85 q 297 36 214 36 m 285 1042 l 215 1226 l 215 1233 l 271 1233 l 317 1049 l 317 1042 l 285 1042 z "},"Ở":{"ha":594,"x_min":69,"x_max":558,"o":"m 558 1092 l 558 1043 q 540 944 558 971 q 464 917 521 918 q 513 777 500 874 q 525 478 525 681 q 510 156 525 254 q 449 24 494 58 q 297 -11 403 -11 q 146 24 192 -11 q 85 156 100 58 q 69 478 69 254 q 85 799 69 701 q 146 932 100 897 q 297 967 192 967 q 401 956 364 967 l 454 956 q 505 972 494 956 q 515 1033 515 988 l 515 1092 l 558 1092 m 297 36 q 415 60 381 36 q 462 174 449 85 q 475 478 475 263 q 462 782 475 693 q 415 895 449 871 q 297 919 381 919 q 180 895 214 919 q 133 782 146 871 q 119 478 119 693 q 133 174 119 263 q 180 60 146 85 q 297 36 214 36 m 250 1043 q 261 1081 250 1071 q 299 1100 272 1092 l 314 1104 q 356 1125 344 1114 q 368 1165 368 1136 q 364 1199 368 1189 q 342 1213 360 1208 q 283 1218 324 1218 q 183 1213 267 1218 l 183 1249 q 290 1257 261 1257 q 367 1248 340 1257 q 401 1221 393 1239 q 410 1172 410 1203 q 401 1114 410 1133 q 357 1082 393 1094 l 344 1078 q 299 1058 307 1065 q 290 1032 290 1051 l 250 1032 l 250 1043 z "},"Ỡ":{"ha":594,"x_min":69,"x_max":558,"o":"m 558 1092 l 558 1043 q 540 944 558 971 q 464 917 521 918 q 513 777 500 874 q 525 478 525 681 q 510 156 525 254 q 449 24 494 58 q 297 -11 403 -11 q 146 24 192 -11 q 85 156 100 58 q 69 478 69 254 q 85 799 69 701 q 146 932 100 897 q 297 967 192 967 q 401 956 364 967 l 454 956 q 505 972 494 956 q 515 1033 515 988 l 515 1092 l 558 1092 m 297 36 q 415 60 381 36 q 462 174 449 85 q 475 478 475 263 q 462 782 475 693 q 415 895 449 871 q 297 919 381 919 q 180 895 214 919 q 133 782 146 871 q 119 478 119 693 q 133 174 119 263 q 180 60 146 85 q 297 36 214 36 m 454 1233 q 441 1130 454 1158 q 388 1101 428 1101 q 344 1110 365 1101 q 292 1138 322 1119 q 244 1163 264 1154 q 206 1172 224 1172 q 182 1154 188 1172 q 176 1086 176 1136 l 139 1086 q 152 1190 139 1161 q 206 1218 165 1218 q 251 1208 229 1218 q 307 1179 274 1199 q 388 1147 360 1147 q 411 1165 406 1147 q 417 1233 417 1183 l 454 1233 z "},"Ő":{"ha":594,"x_min":69,"x_max":525,"o":"m 297 -11 q 146 24 192 -11 q 85 156 100 58 q 69 478 69 254 q 85 799 69 701 q 146 932 100 897 q 297 967 192 967 q 449 932 403 967 q 510 799 494 897 q 525 478 525 701 q 510 156 525 254 q 449 24 494 58 q 297 -11 403 -11 m 297 36 q 415 60 381 36 q 462 174 449 85 q 475 478 475 263 q 462 782 475 693 q 415 895 449 871 q 297 919 381 919 q 180 895 214 919 q 133 782 146 871 q 119 478 119 693 q 133 174 119 263 q 180 60 146 85 q 297 36 214 36 m 217 1050 l 217 1057 l 260 1215 l 315 1215 l 315 1208 l 249 1050 l 217 1050 m 356 1050 l 356 1057 l 399 1215 l 454 1215 l 454 1208 l 388 1050 l 356 1050 z "},"Ȏ":{"ha":594,"x_min":69,"x_max":525,"o":"m 297 -11 q 146 24 192 -11 q 85 156 100 58 q 69 478 69 254 q 85 799 69 701 q 146 932 100 897 q 297 967 192 967 q 449 932 403 967 q 510 799 494 897 q 525 478 525 701 q 510 156 525 254 q 449 24 494 58 q 297 -11 403 -11 m 297 36 q 415 60 381 36 q 462 174 449 85 q 475 478 475 263 q 462 782 475 693 q 415 895 449 871 q 297 919 381 919 q 180 895 214 919 q 133 782 146 871 q 119 478 119 693 q 133 174 119 263 q 180 60 146 85 q 297 36 214 36 m 169 1046 q 176 1156 169 1117 q 210 1218 182 1194 q 297 1242 238 1242 q 384 1218 357 1242 q 417 1156 411 1194 q 424 1046 424 1118 l 378 1046 q 374 1139 378 1108 q 352 1186 369 1169 q 297 1203 335 1203 q 241 1186 258 1203 q 219 1139 224 1169 q 215 1046 215 1108 l 169 1046 z "},"Ō":{"ha":594,"x_min":69,"x_max":525,"o":"m 297 -11 q 146 24 192 -11 q 85 156 100 58 q 69 478 69 254 q 85 799 69 701 q 146 932 100 897 q 297 967 192 967 q 449 932 403 967 q 510 799 494 897 q 525 478 525 701 q 510 156 525 254 q 449 24 494 58 q 297 -11 403 -11 m 297 36 q 415 60 381 36 q 462 174 449 85 q 475 478 475 263 q 462 782 475 693 q 415 895 449 871 q 297 919 381 919 q 180 895 214 919 q 133 782 146 871 q 119 478 119 693 q 133 174 119 263 q 180 60 146 85 q 297 36 214 36 m 182 1183 l 182 1233 l 411 1233 l 411 1183 l 182 1183 z "},"Ǫ":{"ha":594,"x_min":69,"x_max":525,"o":"m 399 -272 q 319 -245 344 -272 q 293 -175 293 -218 q 313 -90 293 -135 q 368 -7 333 -46 q 297 -11 338 -11 q 146 24 192 -11 q 85 156 100 58 q 69 478 69 254 q 85 799 69 701 q 146 932 100 897 q 297 967 192 967 q 449 932 403 967 q 510 799 494 897 q 525 478 525 701 q 519 235 525 322 q 495 95 513 147 q 443 19 478 43 q 372 -62 404 -6 q 340 -165 340 -119 q 406 -228 340 -228 l 429 -226 l 429 -271 q 399 -272 417 -272 m 297 36 q 415 60 381 36 q 462 174 449 85 q 475 478 475 263 q 462 782 475 693 q 415 895 449 871 q 297 919 381 919 q 180 895 214 919 q 133 782 146 871 q 119 478 119 693 q 133 174 119 263 q 180 60 146 85 q 297 36 214 36 z "},"Ø":{"ha":594,"x_min":69,"x_max":525,"o":"m 476 900 q 515 760 506 854 q 525 478 525 667 q 510 156 525 254 q 449 24 494 58 q 297 -11 403 -11 q 153 18 197 -11 l 118 -76 l 69 -76 l 118 56 q 79 195 89 101 q 69 478 69 289 q 85 799 69 701 q 146 932 100 897 q 297 967 192 967 q 442 938 399 967 l 476 1032 l 525 1032 l 476 900 m 119 478 q 124 238 119 319 q 139 114 128 157 l 426 894 q 380 915 408 911 q 297 919 351 919 q 180 895 214 919 q 133 782 146 871 q 119 478 119 693 m 475 478 q 471 717 475 636 q 456 842 467 799 l 168 61 q 215 40 186 44 q 297 36 243 36 q 415 60 381 36 q 462 174 449 85 q 475 478 475 263 z "},"Ǿ":{"ha":594,"x_min":69,"x_max":525,"o":"m 476 900 q 515 760 506 854 q 525 478 525 667 q 510 156 525 254 q 449 24 494 58 q 297 -11 403 -11 q 153 18 197 -11 l 118 -76 l 69 -76 l 118 56 q 79 195 89 101 q 69 478 69 289 q 85 799 69 701 q 146 932 100 897 q 297 967 192 967 q 442 938 399 967 l 476 1032 l 525 1032 l 476 900 m 119 478 q 124 238 119 319 q 139 114 128 157 l 426 894 q 380 915 408 911 q 297 919 351 919 q 180 895 214 919 q 133 782 146 871 q 119 478 119 693 m 475 478 q 471 717 475 636 q 456 842 467 799 l 168 61 q 215 40 186 44 q 297 36 243 36 q 415 60 381 36 q 462 174 449 85 q 475 478 475 263 m 278 1042 l 278 1049 l 324 1233 l 379 1233 l 379 1226 l 310 1042 l 278 1042 z "},"Õ":{"ha":594,"x_min":69,"x_max":525,"o":"m 297 -11 q 146 24 192 -11 q 85 156 100 58 q 69 478 69 254 q 85 799 69 701 q 146 932 100 897 q 297 967 192 967 q 449 932 403 967 q 510 799 494 897 q 525 478 525 701 q 510 156 525 254 q 449 24 494 58 q 297 -11 403 -11 m 297 36 q 415 60 381 36 q 462 174 449 85 q 475 478 475 263 q 462 782 475 693 q 415 895 449 871 q 297 919 381 919 q 180 895 214 919 q 133 782 146 871 q 119 478 119 693 q 133 174 119 263 q 180 60 146 85 q 297 36 214 36 m 454 1189 q 441 1085 454 1114 q 388 1057 428 1057 q 344 1066 365 1057 q 292 1093 322 1075 q 244 1119 264 1110 q 206 1128 224 1128 q 182 1110 188 1128 q 176 1042 176 1092 l 139 1042 q 152 1145 139 1117 q 206 1174 165 1174 q 251 1164 229 1174 q 307 1135 274 1154 q 388 1103 360 1103 q 411 1121 406 1103 q 417 1189 417 1139 l 454 1189 z "},"Œ":{"ha":844,"x_min":69,"x_max":803,"o":"m 297 0 q 146 34 192 0 q 85 163 100 68 q 69 478 69 258 q 85 792 69 697 q 146 922 100 888 q 297 956 192 956 l 803 956 l 803 908 l 525 908 q 451 914 488 908 q 509 786 494 878 q 525 507 524 694 l 764 507 l 764 460 l 525 460 q 509 172 524 267 q 451 42 494 78 q 525 47 485 47 l 803 47 l 803 0 l 297 0 m 297 47 q 415 71 381 47 q 462 181 449 94 q 475 478 475 268 q 462 774 475 688 q 415 885 449 861 q 297 908 381 908 q 180 885 214 908 q 133 774 146 861 q 119 478 119 688 q 133 181 119 268 q 180 71 146 94 q 297 47 214 47 z "},"P":{"ha":521,"x_min":90,"x_max":486,"o":"m 90 956 l 297 956 q 424 917 383 956 q 476 822 465 879 q 486 668 486 764 q 474 517 486 576 q 422 419 463 457 q 297 381 381 381 l 140 381 l 140 0 l 90 0 l 90 956 m 296 428 q 389 456 358 428 q 428 533 419 483 q 436 668 436 582 q 428 803 436 754 q 389 881 419 853 q 296 908 358 908 l 140 908 l 140 428 l 296 428 z "},"Þ":{"ha":521,"x_min":90,"x_max":486,"o":"m 90 956 l 140 956 l 140 774 l 297 774 q 424 735 383 774 q 476 640 465 697 q 486 486 486 582 q 474 335 486 394 q 422 237 463 275 q 297 199 381 199 l 140 199 l 140 0 l 90 0 l 90 956 m 296 246 q 389 274 358 246 q 428 351 419 301 q 436 486 436 400 q 428 622 436 572 q 389 699 419 671 q 296 726 358 726 l 140 726 l 140 246 l 296 246 z "},"Q":{"ha":594,"x_min":69,"x_max":538,"o":"m 538 -157 l 538 -160 l 485 -160 l 408 1 q 297 -11 371 -11 q 146 24 192 -11 q 85 156 100 58 q 69 478 69 254 q 85 799 69 701 q 146 932 100 897 q 297 967 192 967 q 449 932 403 967 q 510 799 494 897 q 525 478 525 701 q 519 244 525 331 q 498 104 514 157 q 451 25 482 51 l 538 -157 m 297 36 q 348 38 324 36 q 388 44 372 39 l 265 303 l 319 303 l 429 71 q 466 194 457 106 q 475 478 475 282 q 462 782 475 693 q 415 895 449 871 q 297 919 381 919 q 180 895 214 919 q 133 782 146 871 q 119 478 119 693 q 133 174 119 263 q 180 60 146 85 q 297 36 214 36 z "},"R":{"ha":563,"x_min":90,"x_max":507,"o":"m 454 0 l 339 410 q 304 408 328 408 l 140 408 l 140 0 l 90 0 l 90 956 l 304 956 q 431 919 390 956 q 483 828 472 883 q 493 682 493 772 q 474 510 493 574 q 388 421 454 446 l 507 0 l 454 0 m 303 456 q 396 482 365 456 q 435 555 426 508 q 443 682 443 601 q 435 810 443 764 q 396 882 426 856 q 303 908 365 908 l 140 908 l 140 456 l 303 456 z "},"Ŕ":{"ha":563,"x_min":90,"x_max":507,"o":"m 454 0 l 339 410 q 304 408 328 408 l 140 408 l 140 0 l 90 0 l 90 956 l 304 956 q 431 919 390 956 q 483 828 472 883 q 493 682 493 772 q 474 510 493 574 q 388 421 454 446 l 507 0 l 454 0 m 303 456 q 396 482 365 456 q 435 555 426 508 q 443 682 443 601 q 435 810 443 764 q 396 882 426 856 q 303 908 365 908 l 140 908 l 140 456 l 303 456 m 263 1042 l 263 1049 l 308 1233 l 364 1233 l 364 1226 l 294 1042 l 263 1042 z "},"Ř":{"ha":563,"x_min":90,"x_max":507,"o":"m 454 0 l 339 410 q 304 408 328 408 l 140 408 l 140 0 l 90 0 l 90 956 l 304 956 q 431 919 390 956 q 483 828 472 883 q 493 682 493 772 q 474 510 493 574 q 388 421 454 446 l 507 0 l 454 0 m 303 456 q 396 482 365 456 q 435 555 426 508 q 443 682 443 601 q 435 810 443 764 q 396 882 426 856 q 303 908 365 908 l 140 908 l 140 456 l 303 456 m 250 1042 l 157 1226 l 157 1233 l 194 1233 l 282 1083 l 369 1233 l 407 1233 l 407 1226 l 314 1042 l 250 1042 z "},"Ŗ":{"ha":563,"x_min":90,"x_max":507,"o":"m 454 0 l 339 410 q 304 408 328 408 l 140 408 l 140 0 l 90 0 l 90 956 l 304 956 q 431 919 390 956 q 483 828 472 883 q 493 682 493 772 q 474 510 493 574 q 388 421 454 446 l 507 0 l 454 0 m 303 456 q 396 482 365 456 q 435 555 426 508 q 443 682 443 601 q 435 810 443 764 q 396 882 426 856 q 303 908 365 908 l 140 908 l 140 456 l 303 456 m 233 -287 q 275 -280 263 -287 q 291 -256 288 -272 q 294 -200 294 -239 l 294 -176 l 267 -176 l 267 -86 l 331 -86 l 331 -190 q 323 -268 331 -242 q 294 -306 315 -294 q 233 -317 274 -317 l 233 -287 z "},"Ȑ":{"ha":563,"x_min":90,"x_max":507,"o":"m 454 0 l 339 410 q 304 408 328 408 l 140 408 l 140 0 l 90 0 l 90 956 l 304 956 q 431 919 390 956 q 483 828 472 883 q 493 682 493 772 q 474 510 493 574 q 388 421 454 446 l 507 0 l 454 0 m 303 456 q 396 482 365 456 q 435 555 426 508 q 443 682 443 601 q 435 810 443 764 q 396 882 426 856 q 303 908 365 908 l 140 908 l 140 456 l 303 456 m 229 1050 l 197 1050 l 131 1208 l 131 1215 l 186 1215 l 229 1057 l 229 1050 m 368 1050 l 336 1050 l 269 1208 l 269 1215 l 325 1215 l 368 1057 l 368 1050 z "},"Ṛ":{"ha":563,"x_min":90,"x_max":507,"o":"m 454 0 l 339 410 q 304 408 328 408 l 140 408 l 140 0 l 90 0 l 90 956 l 304 956 q 431 919 390 956 q 483 828 472 883 q 493 682 493 772 q 474 510 493 574 q 388 421 454 446 l 507 0 l 454 0 m 303 456 q 396 482 365 456 q 435 555 426 508 q 443 682 443 601 q 435 810 443 764 q 396 882 426 856 q 303 908 365 908 l 140 908 l 140 456 l 303 456 m 251 -176 l 251 -86 l 313 -86 l 313 -176 l 251 -176 z "},"Ȓ":{"ha":563,"x_min":90,"x_max":507,"o":"m 454 0 l 339 410 q 304 408 328 408 l 140 408 l 140 0 l 90 0 l 90 956 l 304 956 q 431 919 390 956 q 483 828 472 883 q 493 682 493 772 q 474 510 493 574 q 388 421 454 446 l 507 0 l 454 0 m 303 456 q 396 482 365 456 q 435 555 426 508 q 443 682 443 601 q 435 810 443 764 q 396 882 426 856 q 303 908 365 908 l 140 908 l 140 456 l 303 456 m 154 1046 q 160 1156 154 1117 q 194 1218 167 1194 q 282 1242 222 1242 q 369 1218 342 1242 q 402 1156 396 1194 q 408 1046 408 1118 l 363 1046 q 358 1139 363 1108 q 337 1186 354 1169 q 282 1203 319 1203 q 226 1186 243 1203 q 204 1139 208 1169 q 200 1046 200 1108 l 154 1046 z "},"S":{"ha":494,"x_min":49,"x_max":446,"o":"m 246 -11 q 152 -6 203 -11 q 65 6 101 -1 l 65 54 q 150 42 103 47 q 229 36 197 36 q 308 45 278 36 q 361 76 339 54 q 389 139 382 96 q 396 254 396 182 q 390 386 396 350 q 365 437 385 422 q 292 461 346 451 l 144 489 q 78 525 99 497 q 53 594 58 553 q 49 715 49 635 q 94 905 49 843 q 254 967 139 967 q 349 962 304 967 q 417 949 394 957 l 417 903 q 344 915 386 910 q 265 919 301 919 q 174 906 207 919 q 125 864 142 892 q 104 801 110 838 q 99 713 99 764 q 104 602 99 636 q 125 555 110 568 q 176 535 140 542 l 310 508 q 392 480 364 499 q 436 417 421 461 q 444 366 443 399 q 446 261 446 333 q 433 109 446 165 q 378 21 421 53 q 246 -11 335 -11 z "},"Ś":{"ha":494,"x_min":49,"x_max":446,"o":"m 246 -11 q 152 -6 203 -11 q 65 6 101 -1 l 65 54 q 150 42 103 47 q 229 36 197 36 q 308 45 278 36 q 361 76 339 54 q 389 139 382 96 q 396 254 396 182 q 390 386 396 350 q 365 437 385 422 q 292 461 346 451 l 144 489 q 78 525 99 497 q 53 594 58 553 q 49 715 49 635 q 94 905 49 843 q 254 967 139 967 q 349 962 304 967 q 417 949 394 957 l 417 903 q 344 915 386 910 q 265 919 301 919 q 174 906 207 919 q 125 864 142 892 q 104 801 110 838 q 99 713 99 764 q 104 602 99 636 q 125 555 110 568 q 176 535 140 542 l 310 508 q 392 480 364 499 q 436 417 421 461 q 444 366 443 399 q 446 261 446 333 q 433 109 446 165 q 378 21 421 53 q 246 -11 335 -11 m 228 1042 l 228 1049 l 274 1233 l 329 1233 l 329 1226 l 260 1042 l 228 1042 z "},"Ꞌ":{"ha":110,"x_min":28,"x_max":82,"o":"m 28 408 l 28 956 l 82 956 l 82 708 l 60 408 l 28 408 z "},"Š":{"ha":494,"x_min":49,"x_max":446,"o":"m 246 -11 q 152 -6 203 -11 q 65 6 101 -1 l 65 54 q 150 42 103 47 q 229 36 197 36 q 308 45 278 36 q 361 76 339 54 q 389 139 382 96 q 396 254 396 182 q 390 386 396 350 q 365 437 385 422 q 292 461 346 451 l 144 489 q 78 525 99 497 q 53 594 58 553 q 49 715 49 635 q 94 905 49 843 q 254 967 139 967 q 349 962 304 967 q 417 949 394 957 l 417 903 q 344 915 386 910 q 265 919 301 919 q 174 906 207 919 q 125 864 142 892 q 104 801 110 838 q 99 713 99 764 q 104 602 99 636 q 125 555 110 568 q 176 535 140 542 l 310 508 q 392 480 364 499 q 436 417 421 461 q 444 366 443 399 q 446 261 446 333 q 433 109 446 165 q 378 21 421 53 q 246 -11 335 -11 m 218 1042 l 125 1226 l 125 1233 l 163 1233 l 250 1083 l 338 1233 l 375 1233 l 375 1226 l 282 1042 l 218 1042 z "},"Ş":{"ha":494,"x_min":49,"x_max":446,"o":"m 446 261 q 435 113 446 168 q 384 25 424 58 q 263 -11 344 -8 l 204 -264 l 149 -264 l 149 -257 l 222 -11 q 65 6 138 -8 l 65 54 q 150 42 103 47 q 229 36 197 36 q 308 45 278 36 q 361 76 339 54 q 389 139 382 96 q 396 254 396 182 q 390 386 396 350 q 365 437 385 422 q 292 461 346 451 l 144 489 q 78 525 99 497 q 53 594 58 553 q 49 715 49 635 q 94 905 49 843 q 254 967 139 967 q 349 962 304 967 q 417 949 394 957 l 417 903 q 344 915 386 910 q 265 919 301 919 q 174 906 207 919 q 125 864 142 892 q 104 801 110 838 q 99 713 99 764 q 104 602 99 636 q 125 555 110 568 q 176 535 140 542 l 310 508 q 392 480 364 499 q 436 417 421 461 q 444 366 443 399 q 446 261 446 333 z "},"Ŝ":{"ha":494,"x_min":49,"x_max":446,"o":"m 246 -11 q 152 -6 203 -11 q 65 6 101 -1 l 65 54 q 150 42 103 47 q 229 36 197 36 q 308 45 278 36 q 361 76 339 54 q 389 139 382 96 q 396 254 396 182 q 390 386 396 350 q 365 437 385 422 q 292 461 346 451 l 144 489 q 78 525 99 497 q 53 594 58 553 q 49 715 49 635 q 94 905 49 843 q 254 967 139 967 q 349 962 304 967 q 417 949 394 957 l 417 903 q 344 915 386 910 q 265 919 301 919 q 174 906 207 919 q 125 864 142 892 q 104 801 110 838 q 99 713 99 764 q 104 602 99 636 q 125 555 110 568 q 176 535 140 542 l 310 508 q 392 480 364 499 q 436 417 421 461 q 444 366 443 399 q 446 261 446 333 q 433 109 446 165 q 378 21 421 53 q 246 -11 335 -11 m 122 1042 l 122 1049 l 215 1233 l 279 1233 l 372 1049 l 372 1042 l 335 1042 l 247 1192 l 160 1042 l 122 1042 z "},"Ș":{"ha":494,"x_min":49,"x_max":446,"o":"m 246 -11 q 152 -6 203 -11 q 65 6 101 -1 l 65 54 q 150 42 103 47 q 229 36 197 36 q 308 45 278 36 q 361 76 339 54 q 389 139 382 96 q 396 254 396 182 q 390 386 396 350 q 365 437 385 422 q 292 461 346 451 l 144 489 q 78 525 99 497 q 53 594 58 553 q 49 715 49 635 q 94 905 49 843 q 254 967 139 967 q 349 962 304 967 q 417 949 394 957 l 417 903 q 344 915 386 910 q 265 919 301 919 q 174 906 207 919 q 125 864 142 892 q 104 801 110 838 q 99 713 99 764 q 104 602 99 636 q 125 555 110 568 q 176 535 140 542 l 310 508 q 392 480 364 499 q 436 417 421 461 q 444 366 443 399 q 446 261 446 333 q 433 109 446 165 q 378 21 421 53 q 246 -11 335 -11 m 199 -287 q 240 -280 228 -287 q 256 -256 253 -272 q 260 -200 260 -239 l 260 -176 l 232 -176 l 232 -86 l 296 -86 l 296 -190 q 288 -268 296 -242 q 260 -306 281 -294 q 199 -317 239 -317 l 199 -287 z "},"Ṣ":{"ha":494,"x_min":49,"x_max":446,"o":"m 246 -11 q 152 -6 203 -11 q 65 6 101 -1 l 65 54 q 150 42 103 47 q 229 36 197 36 q 308 45 278 36 q 361 76 339 54 q 389 139 382 96 q 396 254 396 182 q 390 386 396 350 q 365 437 385 422 q 292 461 346 451 l 144 489 q 78 525 99 497 q 53 594 58 553 q 49 715 49 635 q 94 905 49 843 q 254 967 139 967 q 349 962 304 967 q 417 949 394 957 l 417 903 q 344 915 386 910 q 265 919 301 919 q 174 906 207 919 q 125 864 142 892 q 104 801 110 838 q 99 713 99 764 q 104 602 99 636 q 125 555 110 568 q 176 535 140 542 l 310 508 q 392 480 364 499 q 436 417 421 461 q 444 366 443 399 q 446 261 446 333 q 433 109 446 165 q 378 21 421 53 q 246 -11 335 -11 m 217 -176 l 217 -86 l 278 -86 l 278 -176 l 217 -176 z "},"ẞ":{"ha":650,"x_min":83,"x_max":588,"o":"m 414 508 q 547 446 506 508 q 588 256 588 383 q 572 107 588 164 q 510 19 556 50 q 378 -11 464 -11 q 303 -6 344 -11 q 229 8 263 0 l 229 53 q 378 36 317 36 q 467 52 433 36 q 519 114 500 68 q 538 246 538 160 q 510 411 538 361 q 418 461 482 461 l 315 461 l 315 500 l 500 883 q 299 919 411 919 q 189 894 222 919 q 144 794 156 869 q 133 547 133 719 l 133 0 l 83 0 l 83 547 q 98 812 83 726 q 156 932 113 897 q 290 967 199 967 q 436 951 369 967 q 549 913 503 936 l 549 874 l 371 508 l 414 508 z "},"Ə":{"ha":594,"x_min":69,"x_max":525,"o":"m 286 967 q 442 933 393 967 q 508 799 490 899 q 525 478 525 700 q 510 156 525 254 q 449 24 494 58 q 297 -11 403 -11 q 146 24 192 -11 q 85 156 100 58 q 69 478 69 254 l 69 507 l 475 507 q 460 783 474 701 q 406 892 447 865 q 267 919 364 919 q 132 904 208 919 l 132 950 q 286 967 207 967 m 297 36 q 413 60 379 36 q 460 169 447 83 q 475 460 474 254 l 119 460 q 134 169 121 254 q 181 60 147 83 q 297 36 215 36 z "},"T":{"ha":461,"x_min":21,"x_max":440,"o":"m 206 0 l 206 908 l 21 908 l 21 956 l 440 956 l 440 908 l 256 908 l 256 0 l 206 0 z "},"Ŧ":{"ha":461,"x_min":21,"x_max":440,"o":"m 440 908 l 256 908 l 256 503 l 397 503 l 397 458 l 256 458 l 256 0 l 206 0 l 206 458 l 64 458 l 64 503 l 206 503 l 206 908 l 21 908 l 21 956 l 440 956 l 440 908 z "},"Ť":{"ha":461,"x_min":21,"x_max":440,"o":"m 206 0 l 206 908 l 21 908 l 21 956 l 440 956 l 440 908 l 256 908 l 256 0 l 206 0 m 199 1042 l 106 1226 l 106 1233 l 143 1233 l 231 1083 l 318 1233 l 356 1233 l 356 1226 l 263 1042 l 199 1042 z "},"Ţ":{"ha":461,"x_min":21,"x_max":440,"o":"m 21 956 l 440 956 l 440 908 l 256 908 l 256 0 l 247 0 l 188 -264 l 132 -264 l 132 -257 l 210 0 l 206 0 l 206 908 l 21 908 l 21 956 z "},"Ț":{"ha":461,"x_min":21,"x_max":440,"o":"m 206 0 l 206 908 l 21 908 l 21 956 l 440 956 l 440 908 l 256 908 l 256 0 l 206 0 m 182 -287 q 224 -280 211 -287 q 240 -256 236 -272 q 243 -200 243 -239 l 243 -176 l 215 -176 l 215 -86 l 279 -86 l 279 -190 q 272 -268 279 -242 q 243 -306 264 -294 q 182 -317 222 -317 l 182 -287 z "},"Ṭ":{"ha":461,"x_min":21,"x_max":440,"o":"m 206 0 l 206 908 l 21 908 l 21 956 l 440 956 l 440 908 l 256 908 l 256 0 l 206 0 m 200 -176 l 200 -86 l 261 -86 l 261 -176 l 200 -176 z "},"U":{"ha":590,"x_min":83,"x_max":507,"o":"m 507 956 l 507 408 q 494 142 507 225 q 438 24 481 58 q 296 -11 394 -11 q 153 24 197 -11 q 97 142 110 58 q 83 408 83 225 l 83 956 l 133 956 l 133 367 q 142 155 133 219 q 185 63 151 90 q 296 36 219 36 q 406 63 372 36 q 448 155 439 90 q 457 367 457 219 l 457 956 l 507 956 z "},"Ú":{"ha":590,"x_min":83,"x_max":507,"o":"m 507 956 l 507 408 q 494 142 507 225 q 438 24 481 58 q 296 -11 394 -11 q 153 24 197 -11 q 97 142 110 58 q 83 408 83 225 l 83 956 l 133 956 l 133 367 q 142 155 133 219 q 185 63 151 90 q 296 36 219 36 q 406 63 372 36 q 448 155 439 90 q 457 367 457 219 l 457 956 l 507 956 m 281 1042 l 281 1049 l 326 1233 l 382 1233 l 382 1226 l 313 1042 l 281 1042 z "},"Ŭ":{"ha":590,"x_min":83,"x_max":507,"o":"m 507 956 l 507 408 q 494 142 507 225 q 438 24 481 58 q 296 -11 394 -11 q 153 24 197 -11 q 97 142 110 58 q 83 408 83 225 l 83 956 l 133 956 l 133 367 q 142 155 133 219 q 185 63 151 90 q 296 36 219 36 q 406 63 372 36 q 448 155 439 90 q 457 367 457 219 l 457 956 l 507 956 m 422 1233 q 416 1124 422 1163 q 382 1061 410 1085 q 294 1038 354 1038 q 208 1061 235 1038 q 174 1123 181 1085 q 168 1233 168 1161 l 214 1233 q 218 1140 214 1171 q 240 1093 222 1110 q 294 1076 257 1076 q 351 1093 333 1076 q 372 1140 368 1110 q 376 1233 376 1171 l 422 1233 z "},"Ǔ":{"ha":590,"x_min":83,"x_max":507,"o":"m 507 956 l 507 408 q 494 142 507 225 q 438 24 481 58 q 296 -11 394 -11 q 153 24 197 -11 q 97 142 110 58 q 83 408 83 225 l 83 956 l 133 956 l 133 367 q 142 155 133 219 q 185 63 151 90 q 296 36 219 36 q 406 63 372 36 q 448 155 439 90 q 457 367 457 219 l 457 956 l 507 956 m 264 1042 l 171 1226 l 171 1233 l 208 1233 l 296 1083 l 383 1233 l 421 1233 l 421 1226 l 328 1042 l 264 1042 z "},"Û":{"ha":590,"x_min":83,"x_max":507,"o":"m 507 956 l 507 408 q 494 142 507 225 q 438 24 481 58 q 296 -11 394 -11 q 153 24 197 -11 q 97 142 110 58 q 83 408 83 225 l 83 956 l 133 956 l 133 367 q 142 155 133 219 q 185 63 151 90 q 296 36 219 36 q 406 63 372 36 q 448 155 439 90 q 457 367 457 219 l 457 956 l 507 956 m 169 1042 l 169 1049 l 263 1233 l 326 1233 l 419 1049 l 419 1042 l 382 1042 l 294 1192 l 207 1042 l 169 1042 z "},"Ȕ":{"ha":590,"x_min":83,"x_max":507,"o":"m 507 956 l 507 408 q 494 142 507 225 q 438 24 481 58 q 296 -11 394 -11 q 153 24 197 -11 q 97 142 110 58 q 83 408 83 225 l 83 956 l 133 956 l 133 367 q 142 155 133 219 q 185 63 151 90 q 296 36 219 36 q 406 63 372 36 q 448 155 439 90 q 457 367 457 219 l 457 956 l 507 956 m 243 1050 l 211 1050 l 144 1208 l 144 1215 l 200 1215 l 243 1057 l 243 1050 m 382 1050 l 350 1050 l 283 1208 l 283 1215 l 339 1215 l 382 1057 l 382 1050 z "},"Ü":{"ha":590,"x_min":83,"x_max":507,"o":"m 507 956 l 507 408 q 494 142 507 225 q 438 24 481 58 q 296 -11 394 -11 q 153 24 197 -11 q 97 142 110 58 q 83 408 83 225 l 83 956 l 133 956 l 133 367 q 142 155 133 219 q 185 63 151 90 q 296 36 219 36 q 406 63 372 36 q 448 155 439 90 q 457 367 457 219 l 457 956 l 507 956 m 149 1069 l 149 1154 l 206 1154 l 206 1069 l 149 1069 m 385 1069 l 385 1154 l 442 1154 l 442 1069 l 385 1069 z "},"Ǘ":{"ha":590,"x_min":83,"x_max":507,"o":"m 507 956 l 507 408 q 494 142 507 225 q 438 24 481 58 q 296 -11 394 -11 q 153 24 197 -11 q 97 142 110 58 q 83 408 83 225 l 83 956 l 133 956 l 133 367 q 142 155 133 219 q 185 63 151 90 q 296 36 219 36 q 406 63 372 36 q 448 155 439 90 q 457 367 457 219 l 457 956 l 507 956 m 149 1131 l 149 1215 l 206 1215 l 206 1131 l 149 1131 m 385 1131 l 385 1215 l 442 1215 l 442 1131 l 385 1131 m 279 1218 l 279 1225 l 325 1410 l 381 1410 l 381 1403 l 311 1218 l 279 1218 z "},"Ǚ":{"ha":590,"x_min":83,"x_max":507,"o":"m 507 956 l 507 408 q 494 142 507 225 q 438 24 481 58 q 296 -11 394 -11 q 153 24 197 -11 q 97 142 110 58 q 83 408 83 225 l 83 956 l 133 956 l 133 367 q 142 155 133 219 q 185 63 151 90 q 296 36 219 36 q 406 63 372 36 q 448 155 439 90 q 457 367 457 219 l 457 956 l 507 956 m 149 1131 l 149 1215 l 206 1215 l 206 1131 l 149 1131 m 385 1131 l 385 1215 l 442 1215 l 442 1131 l 385 1131 m 267 1218 l 174 1403 l 174 1410 l 211 1410 l 299 1260 l 386 1410 l 424 1410 l 424 1403 l 331 1218 l 267 1218 z "},"Ǜ":{"ha":590,"x_min":83,"x_max":507,"o":"m 507 956 l 507 408 q 494 142 507 225 q 438 24 481 58 q 296 -11 394 -11 q 153 24 197 -11 q 97 142 110 58 q 83 408 83 225 l 83 956 l 133 956 l 133 367 q 142 155 133 219 q 185 63 151 90 q 296 36 219 36 q 406 63 372 36 q 448 155 439 90 q 457 367 457 219 l 457 956 l 507 956 m 149 1131 l 149 1215 l 206 1215 l 206 1131 l 149 1131 m 385 1131 l 385 1215 l 442 1215 l 442 1131 l 385 1131 m 286 1218 l 217 1403 l 217 1410 l 272 1410 l 318 1225 l 318 1218 l 286 1218 z "},"Ǖ":{"ha":590,"x_min":83,"x_max":507,"o":"m 507 956 l 507 408 q 494 142 507 225 q 438 24 481 58 q 296 -11 394 -11 q 153 24 197 -11 q 97 142 110 58 q 83 408 83 225 l 83 956 l 133 956 l 133 367 q 142 155 133 219 q 185 63 151 90 q 296 36 219 36 q 406 63 372 36 q 448 155 439 90 q 457 367 457 219 l 457 956 l 507 956 m 149 1131 l 149 1215 l 206 1215 l 206 1131 l 149 1131 m 385 1131 l 385 1215 l 442 1215 l 442 1131 l 385 1131 m 183 1360 l 183 1410 l 413 1410 l 413 1360 l 183 1360 z "},"Ụ":{"ha":590,"x_min":83,"x_max":507,"o":"m 507 956 l 507 408 q 494 142 507 225 q 438 24 481 58 q 296 -11 394 -11 q 153 24 197 -11 q 97 142 110 58 q 83 408 83 225 l 83 956 l 133 956 l 133 367 q 142 155 133 219 q 185 63 151 90 q 296 36 219 36 q 406 63 372 36 q 448 155 439 90 q 457 367 457 219 l 457 956 l 507 956 m 265 -176 l 265 -86 l 326 -86 l 326 -176 l 265 -176 z "},"Ù":{"ha":590,"x_min":83,"x_max":507,"o":"m 507 956 l 507 408 q 494 142 507 225 q 438 24 481 58 q 296 -11 394 -11 q 153 24 197 -11 q 97 142 110 58 q 83 408 83 225 l 83 956 l 133 956 l 133 367 q 142 155 133 219 q 185 63 151 90 q 296 36 219 36 q 406 63 372 36 q 448 155 439 90 q 457 367 457 219 l 457 956 l 507 956 m 290 1042 l 221 1226 l 221 1233 l 276 1233 l 322 1049 l 322 1042 l 290 1042 z "},"Ủ":{"ha":590,"x_min":83,"x_max":507,"o":"m 507 956 l 507 408 q 494 142 507 225 q 438 24 481 58 q 296 -11 394 -11 q 153 24 197 -11 q 97 142 110 58 q 83 408 83 225 l 83 956 l 133 956 l 133 367 q 142 155 133 219 q 185 63 151 90 q 296 36 219 36 q 406 63 372 36 q 448 155 439 90 q 457 367 457 219 l 457 956 l 507 956 m 249 1043 q 260 1081 249 1071 q 297 1100 271 1092 l 313 1104 q 355 1125 343 1114 q 367 1165 367 1136 q 363 1199 367 1189 q 340 1213 358 1208 q 282 1218 322 1218 q 182 1213 265 1218 l 182 1249 q 289 1257 260 1257 q 365 1248 339 1257 q 400 1221 392 1239 q 408 1172 408 1203 q 400 1114 408 1133 q 356 1082 392 1094 l 343 1078 q 297 1058 306 1065 q 289 1032 289 1051 l 249 1032 l 249 1043 z "},"Ư":{"ha":590,"x_min":83,"x_max":619,"o":"m 619 1092 l 619 1043 q 611 965 619 992 q 581 928 603 939 q 515 917 558 917 l 507 917 l 507 408 q 494 142 507 225 q 438 24 481 58 q 296 -11 394 -11 q 153 24 197 -11 q 97 142 110 58 q 83 408 83 225 l 83 956 l 133 956 l 133 367 q 142 155 133 219 q 185 63 151 90 q 296 36 219 36 q 406 63 372 36 q 448 155 439 90 q 457 367 457 219 l 457 956 l 515 956 q 566 972 556 956 q 576 1033 576 988 l 576 1092 l 619 1092 z "},"Ứ":{"ha":590,"x_min":83,"x_max":619,"o":"m 619 1092 l 619 1043 q 611 965 619 992 q 581 928 603 939 q 515 917 558 917 l 507 917 l 507 408 q 494 142 507 225 q 438 24 481 58 q 296 -11 394 -11 q 153 24 197 -11 q 97 142 110 58 q 83 408 83 225 l 83 956 l 133 956 l 133 367 q 142 155 133 219 q 185 63 151 90 q 296 36 219 36 q 406 63 372 36 q 448 155 439 90 q 457 367 457 219 l 457 956 l 515 956 q 566 972 556 956 q 576 1033 576 988 l 576 1092 l 619 1092 m 276 1042 l 276 1049 l 322 1233 l 378 1233 l 378 1226 l 308 1042 l 276 1042 z "},"Ự":{"ha":590,"x_min":83,"x_max":619,"o":"m 619 1092 l 619 1043 q 611 965 619 992 q 581 928 603 939 q 515 917 558 917 l 507 917 l 507 408 q 494 142 507 225 q 438 24 481 58 q 296 -11 394 -11 q 153 24 197 -11 q 97 142 110 58 q 83 408 83 225 l 83 956 l 133 956 l 133 367 q 142 155 133 219 q 185 63 151 90 q 296 36 219 36 q 406 63 372 36 q 448 155 439 90 q 457 367 457 219 l 457 956 l 515 956 q 566 972 556 956 q 576 1033 576 988 l 576 1092 l 619 1092 m 265 -176 l 265 -86 l 326 -86 l 326 -176 l 265 -176 z "},"Ừ":{"ha":590,"x_min":83,"x_max":619,"o":"m 619 1092 l 619 1043 q 611 965 619 992 q 581 928 603 939 q 515 917 558 917 l 507 917 l 507 408 q 494 142 507 225 q 438 24 481 58 q 296 -11 394 -11 q 153 24 197 -11 q 97 142 110 58 q 83 408 83 225 l 83 956 l 133 956 l 133 367 q 142 155 133 219 q 185 63 151 90 q 296 36 219 36 q 406 63 372 36 q 448 155 439 90 q 457 367 457 219 l 457 956 l 515 956 q 566 972 556 956 q 576 1033 576 988 l 576 1092 l 619 1092 m 283 1042 l 214 1226 l 214 1233 l 269 1233 l 315 1049 l 315 1042 l 283 1042 z "},"Ử":{"ha":590,"x_min":83,"x_max":619,"o":"m 619 1092 l 619 1043 q 611 965 619 992 q 581 928 603 939 q 515 917 558 917 l 507 917 l 507 408 q 494 142 507 225 q 438 24 481 58 q 296 -11 394 -11 q 153 24 197 -11 q 97 142 110 58 q 83 408 83 225 l 83 956 l 133 956 l 133 367 q 142 155 133 219 q 185 63 151 90 q 296 36 219 36 q 406 63 372 36 q 448 155 439 90 q 457 367 457 219 l 457 956 l 515 956 q 566 972 556 956 q 576 1033 576 988 l 576 1092 l 619 1092 m 249 1043 q 260 1081 249 1071 q 297 1100 271 1092 l 313 1104 q 355 1125 343 1114 q 367 1165 367 1136 q 363 1199 367 1189 q 340 1213 358 1208 q 282 1218 322 1218 q 182 1213 265 1218 l 182 1249 q 289 1257 260 1257 q 365 1248 339 1257 q 400 1221 392 1239 q 408 1172 408 1203 q 400 1114 408 1133 q 356 1082 392 1094 l 343 1078 q 297 1058 306 1065 q 289 1032 289 1051 l 249 1032 l 249 1043 z "},"Ữ":{"ha":590,"x_min":83,"x_max":619,"o":"m 619 1092 l 619 1043 q 611 965 619 992 q 581 928 603 939 q 515 917 558 917 l 507 917 l 507 408 q 494 142 507 225 q 438 24 481 58 q 296 -11 394 -11 q 153 24 197 -11 q 97 142 110 58 q 83 408 83 225 l 83 956 l 133 956 l 133 367 q 142 155 133 219 q 185 63 151 90 q 296 36 219 36 q 406 63 372 36 q 448 155 439 90 q 457 367 457 219 l 457 956 l 515 956 q 566 972 556 956 q 576 1033 576 988 l 576 1092 l 619 1092 m 453 1233 q 440 1130 453 1158 q 386 1101 426 1101 q 342 1110 364 1101 q 290 1138 321 1119 q 242 1163 263 1154 q 204 1172 222 1172 q 181 1154 186 1172 q 175 1086 175 1136 l 138 1086 q 151 1190 138 1161 q 204 1218 164 1218 q 250 1208 228 1218 q 306 1179 272 1199 q 386 1147 358 1147 q 410 1165 404 1147 q 415 1233 415 1183 l 453 1233 z "},"Ű":{"ha":590,"x_min":83,"x_max":507,"o":"m 507 956 l 507 408 q 494 142 507 225 q 438 24 481 58 q 296 -11 394 -11 q 153 24 197 -11 q 97 142 110 58 q 83 408 83 225 l 83 956 l 133 956 l 133 367 q 142 155 133 219 q 185 63 151 90 q 296 36 219 36 q 406 63 372 36 q 448 155 439 90 q 457 367 457 219 l 457 956 l 507 956 m 215 1050 l 215 1057 l 258 1215 l 314 1215 l 314 1208 l 247 1050 l 215 1050 m 354 1050 l 354 1057 l 397 1215 l 453 1215 l 453 1208 l 386 1050 l 354 1050 z "},"Ȗ":{"ha":590,"x_min":83,"x_max":507,"o":"m 507 956 l 507 408 q 494 142 507 225 q 438 24 481 58 q 296 -11 394 -11 q 153 24 197 -11 q 97 142 110 58 q 83 408 83 225 l 83 956 l 133 956 l 133 367 q 142 155 133 219 q 185 63 151 90 q 296 36 219 36 q 406 63 372 36 q 448 155 439 90 q 457 367 457 219 l 457 956 l 507 956 m 168 1046 q 174 1156 168 1117 q 208 1218 181 1194 q 296 1242 236 1242 q 383 1218 356 1242 q 416 1156 410 1194 q 422 1046 422 1118 l 376 1046 q 372 1139 376 1108 q 351 1186 368 1169 q 296 1203 333 1203 q 240 1186 257 1203 q 218 1139 222 1169 q 214 1046 214 1108 l 168 1046 z "},"Ū":{"ha":590,"x_min":83,"x_max":507,"o":"m 507 956 l 507 408 q 494 142 507 225 q 438 24 481 58 q 296 -11 394 -11 q 153 24 197 -11 q 97 142 110 58 q 83 408 83 225 l 83 956 l 133 956 l 133 367 q 142 155 133 219 q 185 63 151 90 q 296 36 219 36 q 406 63 372 36 q 448 155 439 90 q 457 367 457 219 l 457 956 l 507 956 m 181 1183 l 181 1233 l 410 1233 l 410 1183 l 181 1183 z "},"Ų":{"ha":590,"x_min":83,"x_max":507,"o":"m 507 956 l 507 408 q 501 208 507 281 q 480 88 496 135 q 431 18 464 42 q 357 -64 386 -12 q 328 -164 328 -115 q 393 -228 328 -228 l 417 -226 l 417 -271 q 386 -272 404 -272 q 306 -245 332 -272 q 281 -172 281 -218 q 301 -90 281 -135 q 357 -7 322 -46 q 296 -11 331 -11 q 153 24 197 -11 q 97 142 110 58 q 83 408 83 225 l 83 956 l 133 956 l 133 367 q 142 155 133 219 q 185 63 151 90 q 296 36 219 36 q 406 63 372 36 q 448 155 439 90 q 457 367 457 219 l 457 956 l 507 956 z "},"Ů":{"ha":590,"x_min":83,"x_max":507,"o":"m 507 956 l 507 408 q 494 142 507 225 q 438 24 481 58 q 296 -11 394 -11 q 153 24 197 -11 q 97 142 110 58 q 83 408 83 225 l 83 956 l 133 956 l 133 367 q 142 155 133 219 q 185 63 151 90 q 296 36 219 36 q 406 63 372 36 q 448 155 439 90 q 457 367 457 219 l 457 956 l 507 956 m 294 1021 q 222 1032 244 1021 q 191 1067 199 1043 q 183 1139 183 1090 q 191 1212 183 1188 q 222 1247 199 1236 q 294 1258 244 1258 q 368 1247 344 1258 q 399 1212 392 1236 q 407 1139 407 1188 q 399 1067 407 1090 q 368 1032 392 1043 q 294 1021 344 1021 m 294 1060 q 349 1075 338 1060 q 361 1139 361 1090 q 349 1203 361 1188 q 294 1219 338 1219 q 251 1213 264 1219 q 233 1190 238 1206 q 229 1139 229 1174 q 233 1089 229 1104 q 251 1067 238 1074 q 294 1060 264 1060 z "},"Ũ":{"ha":590,"x_min":83,"x_max":507,"o":"m 507 956 l 507 408 q 494 142 507 225 q 438 24 481 58 q 296 -11 394 -11 q 153 24 197 -11 q 97 142 110 58 q 83 408 83 225 l 83 956 l 133 956 l 133 367 q 142 155 133 219 q 185 63 151 90 q 296 36 219 36 q 406 63 372 36 q 448 155 439 90 q 457 367 457 219 l 457 956 l 507 956 m 453 1233 q 440 1130 453 1158 q 386 1101 426 1101 q 342 1110 364 1101 q 290 1138 321 1119 q 242 1163 263 1154 q 204 1172 222 1172 q 181 1154 186 1172 q 175 1086 175 1136 l 138 1086 q 151 1190 138 1161 q 204 1218 164 1218 q 250 1208 228 1218 q 306 1179 272 1199 q 386 1147 358 1147 q 410 1165 404 1147 q 415 1233 415 1183 l 453 1233 z "},"V":{"ha":499,"x_min":7,"x_max":492,"o":"m 221 0 l 7 956 l 60 956 l 247 99 l 254 99 l 443 956 l 492 956 l 278 0 l 221 0 z "},"W":{"ha":749,"x_min":11,"x_max":738,"o":"m 525 0 l 376 846 l 371 846 l 224 0 l 167 0 l 11 956 l 63 956 l 193 110 l 200 110 l 344 956 l 404 956 l 550 110 l 557 110 l 688 956 l 738 956 l 582 0 l 525 0 z "},"Ẃ":{"ha":749,"x_min":11,"x_max":738,"o":"m 525 0 l 376 846 l 371 846 l 224 0 l 167 0 l 11 956 l 63 956 l 193 110 l 200 110 l 344 956 l 404 956 l 550 110 l 557 110 l 688 956 l 738 956 l 582 0 l 525 0 m 356 1042 l 356 1049 l 401 1233 l 457 1233 l 457 1226 l 388 1042 l 356 1042 z "},"Ŵ":{"ha":749,"x_min":11,"x_max":738,"o":"m 525 0 l 376 846 l 371 846 l 224 0 l 167 0 l 11 956 l 63 956 l 193 110 l 200 110 l 344 956 l 404 956 l 550 110 l 557 110 l 688 956 l 738 956 l 582 0 l 525 0 m 250 1042 l 250 1049 l 343 1233 l 407 1233 l 500 1049 l 500 1042 l 463 1042 l 375 1192 l 288 1042 l 250 1042 z "},"Ẅ":{"ha":749,"x_min":11,"x_max":738,"o":"m 525 0 l 376 846 l 371 846 l 224 0 l 167 0 l 11 956 l 63 956 l 193 110 l 200 110 l 344 956 l 404 956 l 550 110 l 557 110 l 688 956 l 738 956 l 582 0 l 525 0 m 228 1131 l 228 1215 l 285 1215 l 285 1131 l 228 1131 m 464 1131 l 464 1215 l 521 1215 l 521 1131 l 464 1131 z "},"Ẁ":{"ha":749,"x_min":11,"x_max":738,"o":"m 525 0 l 376 846 l 371 846 l 224 0 l 167 0 l 11 956 l 63 956 l 193 110 l 200 110 l 344 956 l 404 956 l 550 110 l 557 110 l 688 956 l 738 956 l 582 0 l 525 0 m 363 1042 l 293 1226 l 293 1233 l 349 1233 l 394 1049 l 394 1042 l 363 1042 z "},"X":{"ha":536,"x_min":21,"x_max":515,"o":"m 461 0 l 269 426 l 264 426 l 74 0 l 21 0 l 236 481 l 24 956 l 78 956 l 267 533 l 272 533 l 460 956 l 513 956 l 300 482 l 515 0 l 461 0 z "},"Y":{"ha":465,"x_min":0,"x_max":465,"o":"m 207 0 l 207 390 l 0 956 l 53 956 l 231 464 l 238 464 l 415 956 l 465 956 l 257 390 l 257 0 l 207 0 z "},"Ý":{"ha":465,"x_min":0,"x_max":465,"o":"m 207 0 l 207 390 l 0 956 l 53 956 l 231 464 l 238 464 l 415 956 l 465 956 l 257 390 l 257 0 l 207 0 m 219 1042 l 219 1049 l 265 1233 l 321 1233 l 321 1226 l 251 1042 l 219 1042 z "},"Ŷ":{"ha":465,"x_min":0,"x_max":465,"o":"m 207 0 l 207 390 l 0 956 l 53 956 l 231 464 l 238 464 l 415 956 l 465 956 l 257 390 l 257 0 l 207 0 m 108 1042 l 108 1049 l 201 1233 l 265 1233 l 358 1049 l 358 1042 l 321 1042 l 233 1192 l 146 1042 l 108 1042 z "},"Ÿ":{"ha":465,"x_min":0,"x_max":465,"o":"m 207 0 l 207 390 l 0 956 l 53 956 l 231 464 l 238 464 l 415 956 l 465 956 l 257 390 l 257 0 l 207 0 m 88 1069 l 88 1154 l 144 1154 l 144 1069 l 88 1069 m 324 1069 l 324 1154 l 381 1154 l 381 1069 l 324 1069 z "},"Ỵ":{"ha":465,"x_min":0,"x_max":465,"o":"m 207 0 l 207 390 l 0 956 l 53 956 l 231 464 l 238 464 l 415 956 l 465 956 l 257 390 l 257 0 l 207 0 m 203 -176 l 203 -86 l 264 -86 l 264 -176 l 203 -176 z "},"Ỳ":{"ha":465,"x_min":0,"x_max":465,"o":"m 207 0 l 207 390 l 0 956 l 53 956 l 231 464 l 238 464 l 415 956 l 465 956 l 257 390 l 257 0 l 207 0 m 221 1042 l 151 1226 l 151 1233 l 207 1233 l 253 1049 l 253 1042 l 221 1042 z "},"Ỷ":{"ha":465,"x_min":0,"x_max":465,"o":"m 207 0 l 207 390 l 0 956 l 53 956 l 231 464 l 238 464 l 415 956 l 465 956 l 257 390 l 257 0 l 207 0 m 186 1043 q 197 1081 186 1071 q 235 1100 208 1092 l 250 1104 q 292 1125 281 1114 q 304 1165 304 1136 q 300 1199 304 1189 q 278 1213 296 1208 q 219 1218 260 1218 q 119 1213 203 1218 l 119 1249 q 226 1257 197 1257 q 303 1248 276 1257 q 338 1221 329 1239 q 346 1172 346 1203 q 338 1114 346 1133 q 293 1082 329 1094 l 281 1078 q 235 1058 243 1065 q 226 1032 226 1051 l 186 1032 l 186 1043 z "},"Ȳ":{"ha":465,"x_min":0,"x_max":465,"o":"m 207 0 l 207 390 l 0 956 l 53 956 l 231 464 l 238 464 l 415 956 l 465 956 l 257 390 l 257 0 l 207 0 m 118 1183 l 118 1233 l 347 1233 l 347 1183 l 118 1183 z "},"Ỹ":{"ha":465,"x_min":0,"x_max":465,"o":"m 207 0 l 207 390 l 0 956 l 53 956 l 231 464 l 238 464 l 415 956 l 465 956 l 257 390 l 257 0 l 207 0 m 390 1233 q 377 1130 390 1158 q 324 1101 364 1101 q 280 1110 301 1101 q 228 1138 258 1119 q 180 1163 200 1154 q 142 1172 160 1172 q 118 1154 124 1172 q 113 1086 113 1136 l 75 1086 q 88 1190 75 1161 q 142 1218 101 1218 q 188 1208 165 1218 q 243 1179 210 1199 q 324 1147 296 1147 q 347 1165 342 1147 q 353 1233 353 1183 l 390 1233 z "},"Z":{"ha":461,"x_min":28,"x_max":433,"o":"m 28 0 l 28 44 l 372 908 l 38 908 l 38 956 l 426 956 l 426 911 l 83 47 l 433 47 l 433 0 l 28 0 z "},"Ź":{"ha":461,"x_min":28,"x_max":433,"o":"m 28 0 l 28 44 l 372 908 l 38 908 l 38 956 l 426 956 l 426 911 l 83 47 l 433 47 l 433 0 l 28 0 m 211 1042 l 211 1049 l 257 1233 l 313 1233 l 313 1226 l 243 1042 l 211 1042 z "},"Ž":{"ha":461,"x_min":28,"x_max":433,"o":"m 28 0 l 28 44 l 372 908 l 38 908 l 38 956 l 426 956 l 426 911 l 83 47 l 433 47 l 433 0 l 28 0 m 207 1042 l 114 1226 l 114 1233 l 151 1233 l 239 1083 l 326 1233 l 364 1233 l 364 1226 l 271 1042 l 207 1042 z "},"Ż":{"ha":461,"x_min":28,"x_max":433,"o":"m 28 0 l 28 44 l 372 908 l 38 908 l 38 956 l 426 956 l 426 911 l 83 47 l 433 47 l 433 0 l 28 0 m 201 1131 l 201 1215 l 258 1215 l 258 1131 l 201 1131 z "},"Ẓ":{"ha":461,"x_min":28,"x_max":433,"o":"m 28 0 l 28 44 l 372 908 l 38 908 l 38 956 l 426 956 l 426 911 l 83 47 l 433 47 l 433 0 l 28 0 m 200 -176 l 200 -86 l 261 -86 l 261 -176 l 200 -176 z "},"a":{"ha":499,"x_min":42,"x_max":421,"o":"m 214 -11 q 115 5 151 -11 q 60 65 78 21 q 42 192 42 108 q 56 314 42 271 q 103 375 69 357 q 197 393 136 393 q 372 386 244 393 l 372 450 q 361 599 372 554 q 319 660 350 644 q 221 675 289 675 q 144 669 189 675 q 71 657 100 664 l 71 703 q 232 719 143 719 q 349 698 310 719 q 405 622 389 676 q 421 458 421 567 l 421 0 l 383 0 l 378 104 l 372 104 q 315 11 357 33 q 214 -11 272 -11 m 214 33 q 303 49 269 33 q 353 117 338 64 q 368 197 364 157 q 372 292 372 238 l 372 349 l 206 349 q 133 338 157 349 q 100 294 110 326 q 90 192 90 261 q 101 92 90 125 q 137 46 111 58 q 214 33 163 33 z "},"á":{"ha":499,"x_min":42,"x_max":421,"o":"m 214 -11 q 115 5 151 -11 q 60 65 78 21 q 42 192 42 108 q 56 314 42 271 q 103 375 69 357 q 197 393 136 393 q 372 386 244 393 l 372 450 q 361 599 372 554 q 319 660 350 644 q 221 675 289 675 q 144 669 189 675 q 71 657 100 664 l 71 703 q 232 719 143 719 q 349 698 310 719 q 405 622 389 676 q 421 458 421 567 l 421 0 l 383 0 l 378 104 l 372 104 q 315 11 357 33 q 214 -11 272 -11 m 214 33 q 303 49 269 33 q 353 117 338 64 q 368 197 364 157 q 372 292 372 238 l 372 349 l 206 349 q 133 338 157 349 q 100 294 110 326 q 90 192 90 261 q 101 92 90 125 q 137 46 111 58 q 214 33 163 33 m 225 840 l 225 847 l 271 1032 l 326 1032 l 326 1025 l 257 840 l 225 840 z "},"ă":{"ha":499,"x_min":42,"x_max":421,"o":"m 214 -11 q 115 5 151 -11 q 60 65 78 21 q 42 192 42 108 q 56 314 42 271 q 103 375 69 357 q 197 393 136 393 q 372 386 244 393 l 372 450 q 361 599 372 554 q 319 660 350 644 q 221 675 289 675 q 144 669 189 675 q 71 657 100 664 l 71 703 q 232 719 143 719 q 349 698 310 719 q 405 622 389 676 q 421 458 421 567 l 421 0 l 383 0 l 378 104 l 372 104 q 315 11 357 33 q 214 -11 272 -11 m 214 33 q 303 49 269 33 q 353 117 338 64 q 368 197 364 157 q 372 292 372 238 l 372 349 l 206 349 q 133 338 157 349 q 100 294 110 326 q 90 192 90 261 q 101 92 90 125 q 137 46 111 58 q 214 33 163 33 m 376 1032 q 370 922 376 961 q 336 860 364 883 q 249 836 308 836 q 162 860 189 836 q 128 922 135 883 q 122 1032 122 960 l 168 1032 q 172 939 168 969 q 194 892 176 908 q 249 875 211 875 q 305 892 288 875 q 326 939 322 908 q 331 1032 331 969 l 376 1032 z "},"ắ":{"ha":499,"x_min":42,"x_max":421,"o":"m 214 -11 q 115 5 151 -11 q 60 65 78 21 q 42 192 42 108 q 56 314 42 271 q 103 375 69 357 q 197 393 136 393 q 372 386 244 393 l 372 450 q 361 599 372 554 q 319 660 350 644 q 221 675 289 675 q 144 669 189 675 q 71 657 100 664 l 71 703 q 232 719 143 719 q 349 698 310 719 q 405 622 389 676 q 421 458 421 567 l 421 0 l 383 0 l 378 104 l 372 104 q 315 11 357 33 q 214 -11 272 -11 m 214 33 q 303 49 269 33 q 353 117 338 64 q 368 197 364 157 q 372 292 372 238 l 372 349 l 206 349 q 133 338 157 349 q 100 294 110 326 q 90 192 90 261 q 101 92 90 125 q 137 46 111 58 q 214 33 163 33 m 376 1032 q 370 922 376 961 q 336 860 364 883 q 249 836 308 836 q 162 860 189 836 q 128 922 135 883 q 122 1032 122 960 l 168 1032 q 172 939 168 969 q 194 892 176 908 q 249 875 211 875 q 305 892 288 875 q 326 939 322 908 q 331 1032 331 969 l 376 1032 m 235 1081 l 235 1088 l 281 1272 l 336 1272 l 336 1265 l 267 1081 l 235 1081 z "},"ặ":{"ha":499,"x_min":42,"x_max":421,"o":"m 214 -11 q 115 5 151 -11 q 60 65 78 21 q 42 192 42 108 q 56 314 42 271 q 103 375 69 357 q 197 393 136 393 q 372 386 244 393 l 372 450 q 361 599 372 554 q 319 660 350 644 q 221 675 289 675 q 144 669 189 675 q 71 657 100 664 l 71 703 q 232 719 143 719 q 349 698 310 719 q 405 622 389 676 q 421 458 421 567 l 421 0 l 383 0 l 378 104 l 372 104 q 315 11 357 33 q 214 -11 272 -11 m 214 33 q 303 49 269 33 q 353 117 338 64 q 368 197 364 157 q 372 292 372 238 l 372 349 l 206 349 q 133 338 157 349 q 100 294 110 326 q 90 192 90 261 q 101 92 90 125 q 137 46 111 58 q 214 33 163 33 m 219 -176 l 219 -86 l 281 -86 l 281 -176 l 219 -176 m 376 1032 q 370 922 376 961 q 336 860 364 883 q 249 836 308 836 q 162 860 189 836 q 128 922 135 883 q 122 1032 122 960 l 168 1032 q 172 939 168 969 q 194 892 176 908 q 249 875 211 875 q 305 892 288 875 q 326 939 322 908 q 331 1032 331 969 l 376 1032 z "},"ằ":{"ha":499,"x_min":42,"x_max":421,"o":"m 214 -11 q 115 5 151 -11 q 60 65 78 21 q 42 192 42 108 q 56 314 42 271 q 103 375 69 357 q 197 393 136 393 q 372 386 244 393 l 372 450 q 361 599 372 554 q 319 660 350 644 q 221 675 289 675 q 144 669 189 675 q 71 657 100 664 l 71 703 q 232 719 143 719 q 349 698 310 719 q 405 622 389 676 q 421 458 421 567 l 421 0 l 383 0 l 378 104 l 372 104 q 315 11 357 33 q 214 -11 272 -11 m 214 33 q 303 49 269 33 q 353 117 338 64 q 368 197 364 157 q 372 292 372 238 l 372 349 l 206 349 q 133 338 157 349 q 100 294 110 326 q 90 192 90 261 q 101 92 90 125 q 137 46 111 58 q 214 33 163 33 m 376 1032 q 370 922 376 961 q 336 860 364 883 q 249 836 308 836 q 162 860 189 836 q 128 922 135 883 q 122 1032 122 960 l 168 1032 q 172 939 168 969 q 194 892 176 908 q 249 875 211 875 q 305 892 288 875 q 326 939 322 908 q 331 1032 331 969 l 376 1032 m 236 1081 l 167 1265 l 167 1272 l 222 1272 l 268 1088 l 268 1081 l 236 1081 z "},"ẳ":{"ha":499,"x_min":42,"x_max":421,"o":"m 214 -11 q 115 5 151 -11 q 60 65 78 21 q 42 192 42 108 q 56 314 42 271 q 103 375 69 357 q 197 393 136 393 q 372 386 244 393 l 372 450 q 361 599 372 554 q 319 660 350 644 q 221 675 289 675 q 144 669 189 675 q 71 657 100 664 l 71 703 q 232 719 143 719 q 349 698 310 719 q 405 622 389 676 q 421 458 421 567 l 421 0 l 383 0 l 378 104 l 372 104 q 315 11 357 33 q 214 -11 272 -11 m 214 33 q 303 49 269 33 q 353 117 338 64 q 368 197 364 157 q 372 292 372 238 l 372 349 l 206 349 q 133 338 157 349 q 100 294 110 326 q 90 192 90 261 q 101 92 90 125 q 137 46 111 58 q 214 33 163 33 m 376 1032 q 370 922 376 961 q 336 860 364 883 q 249 836 308 836 q 162 860 189 836 q 128 922 135 883 q 122 1032 122 960 l 168 1032 q 172 939 168 969 q 194 892 176 908 q 249 875 211 875 q 305 892 288 875 q 326 939 322 908 q 331 1032 331 969 l 376 1032 m 206 1043 q 217 1081 206 1071 q 254 1100 228 1092 l 269 1104 q 312 1125 300 1114 q 324 1165 324 1136 q 319 1199 324 1189 q 297 1213 315 1208 q 239 1218 279 1218 q 139 1213 222 1218 l 139 1249 q 246 1257 217 1257 q 322 1248 296 1257 q 357 1221 349 1239 q 365 1172 365 1203 q 357 1114 365 1133 q 313 1082 349 1094 l 300 1078 q 254 1058 263 1065 q 246 1032 246 1051 l 206 1032 l 206 1043 z "},"ẵ":{"ha":499,"x_min":42,"x_max":421,"o":"m 214 -11 q 115 5 151 -11 q 60 65 78 21 q 42 192 42 108 q 56 314 42 271 q 103 375 69 357 q 197 393 136 393 q 372 386 244 393 l 372 450 q 361 599 372 554 q 319 660 350 644 q 221 675 289 675 q 144 669 189 675 q 71 657 100 664 l 71 703 q 232 719 143 719 q 349 698 310 719 q 405 622 389 676 q 421 458 421 567 l 421 0 l 383 0 l 378 104 l 372 104 q 315 11 357 33 q 214 -11 272 -11 m 214 33 q 303 49 269 33 q 353 117 338 64 q 368 197 364 157 q 372 292 372 238 l 372 349 l 206 349 q 133 338 157 349 q 100 294 110 326 q 90 192 90 261 q 101 92 90 125 q 137 46 111 58 q 214 33 163 33 m 374 1032 q 367 922 374 961 q 333 860 361 883 q 246 836 306 836 q 159 860 186 836 q 126 922 132 883 q 119 1032 119 960 l 165 1032 q 169 939 165 969 q 191 892 174 908 q 246 875 208 875 q 302 892 285 875 q 324 939 319 908 q 328 1032 328 969 l 374 1032 m 407 1272 q 394 1169 407 1197 q 340 1140 381 1140 q 297 1149 318 1140 q 244 1176 275 1158 q 197 1202 217 1193 q 158 1211 176 1211 q 135 1193 140 1211 q 129 1125 129 1175 l 92 1125 q 105 1228 92 1200 q 158 1257 118 1257 q 204 1247 182 1257 q 260 1218 226 1238 q 340 1186 313 1186 q 364 1204 358 1186 q 369 1272 369 1222 l 407 1272 z "},"ǎ":{"ha":499,"x_min":42,"x_max":421,"o":"m 214 -11 q 115 5 151 -11 q 60 65 78 21 q 42 192 42 108 q 56 314 42 271 q 103 375 69 357 q 197 393 136 393 q 372 386 244 393 l 372 450 q 361 599 372 554 q 319 660 350 644 q 221 675 289 675 q 144 669 189 675 q 71 657 100 664 l 71 703 q 232 719 143 719 q 349 698 310 719 q 405 622 389 676 q 421 458 421 567 l 421 0 l 383 0 l 378 104 l 372 104 q 315 11 357 33 q 214 -11 272 -11 m 214 33 q 303 49 269 33 q 353 117 338 64 q 368 197 364 157 q 372 292 372 238 l 372 349 l 206 349 q 133 338 157 349 q 100 294 110 326 q 90 192 90 261 q 101 92 90 125 q 137 46 111 58 q 214 33 163 33 m 218 840 l 125 1025 l 125 1032 l 163 1032 l 250 882 l 338 1032 l 375 1032 l 375 1025 l 282 840 l 218 840 z "},"â":{"ha":499,"x_min":42,"x_max":421,"o":"m 214 -11 q 115 5 151 -11 q 60 65 78 21 q 42 192 42 108 q 56 314 42 271 q 103 375 69 357 q 197 393 136 393 q 372 386 244 393 l 372 450 q 361 599 372 554 q 319 660 350 644 q 221 675 289 675 q 144 669 189 675 q 71 657 100 664 l 71 703 q 232 719 143 719 q 349 698 310 719 q 405 622 389 676 q 421 458 421 567 l 421 0 l 383 0 l 378 104 l 372 104 q 315 11 357 33 q 214 -11 272 -11 m 214 33 q 303 49 269 33 q 353 117 338 64 q 368 197 364 157 q 372 292 372 238 l 372 349 l 206 349 q 133 338 157 349 q 100 294 110 326 q 90 192 90 261 q 101 92 90 125 q 137 46 111 58 q 214 33 163 33 m 125 840 l 125 847 l 218 1032 l 282 1032 l 375 847 l 375 840 l 338 840 l 250 990 l 163 840 l 125 840 z "},"ấ":{"ha":499,"x_min":42,"x_max":433,"o":"m 214 -11 q 115 5 151 -11 q 60 65 78 21 q 42 192 42 108 q 56 314 42 271 q 103 375 69 357 q 197 393 136 393 q 372 386 244 393 l 372 450 q 361 599 372 554 q 319 660 350 644 q 221 675 289 675 q 144 669 189 675 q 71 657 100 664 l 71 703 q 232 719 143 719 q 349 698 310 719 q 405 622 389 676 q 421 458 421 567 l 421 0 l 383 0 l 378 104 l 372 104 q 315 11 357 33 q 214 -11 272 -11 m 214 33 q 303 49 269 33 q 353 117 338 64 q 368 197 364 157 q 372 292 372 238 l 372 349 l 206 349 q 133 338 157 349 q 100 294 110 326 q 90 192 90 261 q 101 92 90 125 q 137 46 111 58 q 214 33 163 33 m 124 840 l 124 847 l 217 1032 l 281 1032 l 374 847 l 374 840 l 336 840 l 249 990 l 161 840 l 124 840 m 332 1032 l 332 1039 l 378 1224 l 433 1224 l 433 1217 l 364 1032 l 332 1032 z "},"ậ":{"ha":499,"x_min":42,"x_max":421,"o":"m 214 -11 q 115 5 151 -11 q 60 65 78 21 q 42 192 42 108 q 56 314 42 271 q 103 375 69 357 q 197 393 136 393 q 372 386 244 393 l 372 450 q 361 599 372 554 q 319 660 350 644 q 221 675 289 675 q 144 669 189 675 q 71 657 100 664 l 71 703 q 232 719 143 719 q 349 698 310 719 q 405 622 389 676 q 421 458 421 567 l 421 0 l 383 0 l 378 104 l 372 104 q 315 11 357 33 q 214 -11 272 -11 m 214 33 q 303 49 269 33 q 353 117 338 64 q 368 197 364 157 q 372 292 372 238 l 372 349 l 206 349 q 133 338 157 349 q 100 294 110 326 q 90 192 90 261 q 101 92 90 125 q 137 46 111 58 q 214 33 163 33 m 219 -176 l 219 -86 l 281 -86 l 281 -176 l 219 -176 m 125 840 l 125 847 l 218 1032 l 282 1032 l 375 847 l 375 840 l 338 840 l 250 990 l 163 840 l 125 840 z "},"ầ":{"ha":499,"x_min":42,"x_max":421,"o":"m 214 -11 q 115 5 151 -11 q 60 65 78 21 q 42 192 42 108 q 56 314 42 271 q 103 375 69 357 q 197 393 136 393 q 372 386 244 393 l 372 450 q 361 599 372 554 q 319 660 350 644 q 221 675 289 675 q 144 669 189 675 q 71 657 100 664 l 71 703 q 232 719 143 719 q 349 698 310 719 q 405 622 389 676 q 421 458 421 567 l 421 0 l 383 0 l 378 104 l 372 104 q 315 11 357 33 q 214 -11 272 -11 m 214 33 q 303 49 269 33 q 353 117 338 64 q 368 197 364 157 q 372 292 372 238 l 372 349 l 206 349 q 133 338 157 349 q 100 294 110 326 q 90 192 90 261 q 101 92 90 125 q 137 46 111 58 q 214 33 163 33 m 125 840 l 125 847 l 218 1032 l 282 1032 l 375 847 l 375 840 l 338 840 l 250 990 l 163 840 l 125 840 m 332 1032 l 263 1217 l 263 1224 l 318 1224 l 364 1039 l 364 1032 l 332 1032 z "},"ẩ":{"ha":499,"x_min":42,"x_max":463,"o":"m 214 -11 q 115 5 151 -11 q 60 65 78 21 q 42 192 42 108 q 56 314 42 271 q 103 375 69 357 q 197 393 136 393 q 372 386 244 393 l 372 450 q 361 599 372 554 q 319 660 350 644 q 221 675 289 675 q 144 669 189 675 q 71 657 100 664 l 71 703 q 232 719 143 719 q 349 698 310 719 q 405 622 389 676 q 421 458 421 567 l 421 0 l 383 0 l 378 104 l 372 104 q 315 11 357 33 q 214 -11 272 -11 m 214 33 q 303 49 269 33 q 353 117 338 64 q 368 197 364 157 q 372 292 372 238 l 372 349 l 206 349 q 133 338 157 349 q 100 294 110 326 q 90 192 90 261 q 101 92 90 125 q 137 46 111 58 q 214 33 163 33 m 125 840 l 125 847 l 218 1032 l 282 1032 l 375 847 l 375 840 l 338 840 l 250 990 l 163 840 l 125 840 m 303 1043 q 314 1081 303 1071 q 351 1100 325 1092 l 367 1104 q 409 1125 397 1114 q 421 1165 421 1136 q 417 1199 421 1189 q 394 1213 413 1208 q 336 1218 376 1218 q 236 1213 319 1218 l 236 1249 q 343 1257 314 1257 q 419 1248 393 1257 q 454 1221 446 1239 q 463 1172 463 1203 q 454 1114 463 1133 q 410 1082 446 1094 l 397 1078 q 351 1058 360 1065 q 343 1032 343 1051 l 303 1032 l 303 1043 z "},"ẫ":{"ha":499,"x_min":42,"x_max":421,"o":"m 214 -11 q 115 5 151 -11 q 60 65 78 21 q 42 192 42 108 q 56 314 42 271 q 103 375 69 357 q 197 393 136 393 q 372 386 244 393 l 372 450 q 361 599 372 554 q 319 660 350 644 q 221 675 289 675 q 144 669 189 675 q 71 657 100 664 l 71 703 q 232 719 143 719 q 349 698 310 719 q 405 622 389 676 q 421 458 421 567 l 421 0 l 383 0 l 378 104 l 372 104 q 315 11 357 33 q 214 -11 272 -11 m 214 33 q 303 49 269 33 q 353 117 338 64 q 368 197 364 157 q 372 292 372 238 l 372 349 l 206 349 q 133 338 157 349 q 100 294 110 326 q 90 192 90 261 q 101 92 90 125 q 137 46 111 58 q 214 33 163 33 m 122 840 l 122 847 l 215 1032 l 279 1032 l 372 847 l 372 840 l 335 840 l 247 990 l 160 840 l 122 840 m 407 1272 q 394 1169 407 1197 q 340 1140 381 1140 q 297 1149 318 1140 q 244 1176 275 1158 q 197 1202 217 1193 q 158 1211 176 1211 q 135 1193 140 1211 q 129 1125 129 1175 l 92 1125 q 105 1228 92 1200 q 158 1257 118 1257 q 204 1247 182 1257 q 260 1218 226 1238 q 340 1186 313 1186 q 364 1204 358 1186 q 369 1272 369 1222 l 407 1272 z "},"ȁ":{"ha":499,"x_min":42,"x_max":421,"o":"m 214 -11 q 115 5 151 -11 q 60 65 78 21 q 42 192 42 108 q 56 314 42 271 q 103 375 69 357 q 197 393 136 393 q 372 386 244 393 l 372 450 q 361 599 372 554 q 319 660 350 644 q 221 675 289 675 q 144 669 189 675 q 71 657 100 664 l 71 703 q 232 719 143 719 q 349 698 310 719 q 405 622 389 676 q 421 458 421 567 l 421 0 l 383 0 l 378 104 l 372 104 q 315 11 357 33 q 214 -11 272 -11 m 214 33 q 303 49 269 33 q 353 117 338 64 q 368 197 364 157 q 372 292 372 238 l 372 349 l 206 349 q 133 338 157 349 q 100 294 110 326 q 90 192 90 261 q 101 92 90 125 q 137 46 111 58 q 214 33 163 33 m 197 849 l 165 849 l 99 1007 l 99 1014 l 154 1014 l 197 856 l 197 849 m 336 849 l 304 849 l 238 1007 l 238 1014 l 293 1014 l 336 856 l 336 849 z "},"ä":{"ha":499,"x_min":42,"x_max":421,"o":"m 214 -11 q 115 5 151 -11 q 60 65 78 21 q 42 192 42 108 q 56 314 42 271 q 103 375 69 357 q 197 393 136 393 q 372 386 244 393 l 372 450 q 361 599 372 554 q 319 660 350 644 q 221 675 289 675 q 144 669 189 675 q 71 657 100 664 l 71 703 q 232 719 143 719 q 349 698 310 719 q 405 622 389 676 q 421 458 421 567 l 421 0 l 383 0 l 378 104 l 372 104 q 315 11 357 33 q 214 -11 272 -11 m 214 33 q 303 49 269 33 q 353 117 338 64 q 368 197 364 157 q 372 292 372 238 l 372 349 l 206 349 q 133 338 157 349 q 100 294 110 326 q 90 192 90 261 q 101 92 90 125 q 137 46 111 58 q 214 33 163 33 m 104 929 l 104 1014 l 161 1014 l 161 929 l 104 929 m 340 929 l 340 1014 l 397 1014 l 397 929 l 340 929 z "},"ạ":{"ha":499,"x_min":42,"x_max":421,"o":"m 214 -11 q 115 5 151 -11 q 60 65 78 21 q 42 192 42 108 q 56 314 42 271 q 103 375 69 357 q 197 393 136 393 q 372 386 244 393 l 372 450 q 361 599 372 554 q 319 660 350 644 q 221 675 289 675 q 144 669 189 675 q 71 657 100 664 l 71 703 q 232 719 143 719 q 349 698 310 719 q 405 622 389 676 q 421 458 421 567 l 421 0 l 383 0 l 378 104 l 372 104 q 315 11 357 33 q 214 -11 272 -11 m 214 33 q 303 49 269 33 q 353 117 338 64 q 368 197 364 157 q 372 292 372 238 l 372 349 l 206 349 q 133 338 157 349 q 100 294 110 326 q 90 192 90 261 q 101 92 90 125 q 137 46 111 58 q 214 33 163 33 m 219 -176 l 219 -86 l 281 -86 l 281 -176 l 219 -176 z "},"à":{"ha":499,"x_min":42,"x_max":421,"o":"m 214 -11 q 115 5 151 -11 q 60 65 78 21 q 42 192 42 108 q 56 314 42 271 q 103 375 69 357 q 197 393 136 393 q 372 386 244 393 l 372 450 q 361 599 372 554 q 319 660 350 644 q 221 675 289 675 q 144 669 189 675 q 71 657 100 664 l 71 703 q 232 719 143 719 q 349 698 310 719 q 405 622 389 676 q 421 458 421 567 l 421 0 l 383 0 l 378 104 l 372 104 q 315 11 357 33 q 214 -11 272 -11 m 214 33 q 303 49 269 33 q 353 117 338 64 q 368 197 364 157 q 372 292 372 238 l 372 349 l 206 349 q 133 338 157 349 q 100 294 110 326 q 90 192 90 261 q 101 92 90 125 q 137 46 111 58 q 214 33 163 33 m 235 840 l 165 1025 l 165 1032 l 221 1032 l 267 847 l 267 840 l 235 840 z "},"ả":{"ha":499,"x_min":42,"x_max":421,"o":"m 214 -11 q 115 5 151 -11 q 60 65 78 21 q 42 192 42 108 q 56 314 42 271 q 103 375 69 357 q 197 393 136 393 q 372 386 244 393 l 372 450 q 361 599 372 554 q 319 660 350 644 q 221 675 289 675 q 144 669 189 675 q 71 657 100 664 l 71 703 q 232 719 143 719 q 349 698 310 719 q 405 622 389 676 q 421 458 421 567 l 421 0 l 383 0 l 378 104 l 372 104 q 315 11 357 33 q 214 -11 272 -11 m 214 33 q 303 49 269 33 q 353 117 338 64 q 368 197 364 157 q 372 292 372 238 l 372 349 l 206 349 q 133 338 157 349 q 100 294 110 326 q 90 192 90 261 q 101 92 90 125 q 137 46 111 58 q 214 33 163 33 m 203 860 q 214 898 203 888 q 251 917 225 908 l 267 921 q 309 942 297 931 q 321 982 321 953 q 317 1015 321 1006 q 294 1030 313 1025 q 236 1035 276 1035 q 136 1029 219 1035 l 136 1065 q 243 1074 214 1074 q 319 1065 293 1074 q 354 1038 346 1056 q 363 989 363 1019 q 354 931 363 950 q 310 899 346 911 l 297 894 q 251 875 260 882 q 243 849 243 868 l 203 849 l 203 860 z "},"ȃ":{"ha":499,"x_min":42,"x_max":421,"o":"m 214 -11 q 115 5 151 -11 q 60 65 78 21 q 42 192 42 108 q 56 314 42 271 q 103 375 69 357 q 197 393 136 393 q 372 386 244 393 l 372 450 q 361 599 372 554 q 319 660 350 644 q 221 675 289 675 q 144 669 189 675 q 71 657 100 664 l 71 703 q 232 719 143 719 q 349 698 310 719 q 405 622 389 676 q 421 458 421 567 l 421 0 l 383 0 l 378 104 l 372 104 q 315 11 357 33 q 214 -11 272 -11 m 214 33 q 303 49 269 33 q 353 117 338 64 q 368 197 364 157 q 372 292 372 238 l 372 349 l 206 349 q 133 338 157 349 q 100 294 110 326 q 90 192 90 261 q 101 92 90 125 q 137 46 111 58 q 214 33 163 33 m 122 844 q 128 954 122 915 q 163 1017 135 993 q 250 1040 190 1040 q 337 1017 310 1040 q 370 955 364 993 q 376 844 376 917 l 331 844 q 326 938 331 907 q 305 985 322 968 q 250 1001 288 1001 q 194 985 211 1001 q 172 938 176 968 q 168 844 168 907 l 122 844 z "},"ā":{"ha":499,"x_min":42,"x_max":421,"o":"m 214 -11 q 115 5 151 -11 q 60 65 78 21 q 42 192 42 108 q 56 314 42 271 q 103 375 69 357 q 197 393 136 393 q 372 386 244 393 l 372 450 q 361 599 372 554 q 319 660 350 644 q 221 675 289 675 q 144 669 189 675 q 71 657 100 664 l 71 703 q 232 719 143 719 q 349 698 310 719 q 405 622 389 676 q 421 458 421 567 l 421 0 l 383 0 l 378 104 l 372 104 q 315 11 357 33 q 214 -11 272 -11 m 214 33 q 303 49 269 33 q 353 117 338 64 q 368 197 364 157 q 372 292 372 238 l 372 349 l 206 349 q 133 338 157 349 q 100 294 110 326 q 90 192 90 261 q 101 92 90 125 q 137 46 111 58 q 214 33 163 33 m 135 982 l 135 1032 l 364 1032 l 364 982 l 135 982 z "},"ą":{"ha":499,"x_min":42,"x_max":426,"o":"m 426 -226 l 426 -271 q 396 -272 414 -272 q 316 -245 342 -272 q 290 -174 290 -218 q 316 -81 290 -129 q 383 8 342 -32 l 378 104 l 372 104 q 315 11 357 33 q 214 -11 272 -11 q 115 5 151 -11 q 60 65 78 21 q 42 192 42 108 q 56 314 42 271 q 103 375 69 357 q 197 393 136 393 q 372 386 244 393 l 372 450 q 361 599 372 554 q 319 660 350 644 q 221 675 289 675 q 144 669 189 675 q 71 657 100 664 l 71 703 q 232 719 143 719 q 349 698 310 719 q 405 622 389 676 q 421 458 421 567 l 421 0 q 365 -74 392 -25 q 338 -165 338 -124 q 403 -228 338 -228 l 426 -226 m 372 349 l 206 349 q 133 338 157 349 q 100 294 110 326 q 90 192 90 261 q 101 92 90 125 q 137 46 111 58 q 214 33 163 33 q 303 49 269 33 q 353 117 338 64 q 368 197 364 157 q 372 292 372 238 l 372 349 z "},"å":{"ha":499,"x_min":42,"x_max":421,"o":"m 214 -11 q 115 5 151 -11 q 60 65 78 21 q 42 192 42 108 q 56 314 42 271 q 103 375 69 357 q 197 393 136 393 q 372 386 244 393 l 372 450 q 361 599 372 554 q 319 660 350 644 q 221 675 289 675 q 144 669 189 675 q 71 657 100 664 l 71 703 q 232 719 143 719 q 349 698 310 719 q 405 622 389 676 q 421 458 421 567 l 421 0 l 383 0 l 378 104 l 372 104 q 315 11 357 33 q 214 -11 272 -11 m 214 33 q 303 49 269 33 q 353 117 338 64 q 368 197 364 157 q 372 292 372 238 l 372 349 l 206 349 q 133 338 157 349 q 100 294 110 326 q 90 192 90 261 q 101 92 90 125 q 137 46 111 58 q 214 33 163 33 m 249 861 q 176 872 199 861 q 145 907 153 883 q 138 979 138 931 q 145 1052 138 1028 q 176 1088 153 1076 q 249 1099 199 1099 q 322 1088 299 1099 q 353 1052 346 1076 q 361 979 361 1028 q 353 907 361 931 q 322 872 346 883 q 249 861 299 861 m 249 900 q 303 915 292 900 q 315 979 315 931 q 303 1044 315 1028 q 249 1060 292 1060 q 205 1053 218 1060 q 188 1030 192 1046 q 183 979 183 1014 q 188 929 183 944 q 205 907 192 914 q 249 900 218 900 z "},"ǻ":{"ha":499,"x_min":42,"x_max":421,"o":"m 214 -11 q 115 5 151 -11 q 60 65 78 21 q 42 192 42 108 q 56 314 42 271 q 103 375 69 357 q 197 393 136 393 q 372 386 244 393 l 372 450 q 361 599 372 554 q 319 660 350 644 q 221 675 289 675 q 144 669 189 675 q 71 657 100 664 l 71 703 q 232 719 143 719 q 349 698 310 719 q 405 622 389 676 q 421 458 421 567 l 421 0 l 383 0 l 378 104 l 372 104 q 315 11 357 33 q 214 -11 272 -11 m 214 33 q 303 49 269 33 q 353 117 338 64 q 368 197 364 157 q 372 292 372 238 l 372 349 l 206 349 q 133 338 157 349 q 100 294 110 326 q 90 192 90 261 q 101 92 90 125 q 137 46 111 58 q 214 33 163 33 m 249 861 q 176 872 199 861 q 145 907 153 883 q 138 979 138 931 q 145 1052 138 1028 q 176 1088 153 1076 q 249 1099 199 1099 q 322 1088 299 1099 q 353 1052 346 1076 q 361 979 361 1028 q 353 907 361 931 q 322 872 346 883 q 249 861 299 861 m 249 900 q 303 915 292 900 q 315 979 315 931 q 303 1044 315 1028 q 249 1060 292 1060 q 205 1053 218 1060 q 188 1030 192 1046 q 183 979 183 1014 q 188 929 183 944 q 205 907 192 914 q 249 900 218 900 m 232 1147 l 232 1154 l 278 1339 l 333 1339 l 333 1332 l 264 1147 l 232 1147 z "},"ã":{"ha":499,"x_min":42,"x_max":421,"o":"m 214 -11 q 115 5 151 -11 q 60 65 78 21 q 42 192 42 108 q 56 314 42 271 q 103 375 69 357 q 197 393 136 393 q 372 386 244 393 l 372 450 q 361 599 372 554 q 319 660 350 644 q 221 675 289 675 q 144 669 189 675 q 71 657 100 664 l 71 703 q 232 719 143 719 q 349 698 310 719 q 405 622 389 676 q 421 458 421 567 l 421 0 l 383 0 l 378 104 l 372 104 q 315 11 357 33 q 214 -11 272 -11 m 214 33 q 303 49 269 33 q 353 117 338 64 q 368 197 364 157 q 372 292 372 238 l 372 349 l 206 349 q 133 338 157 349 q 100 294 110 326 q 90 192 90 261 q 101 92 90 125 q 137 46 111 58 q 214 33 163 33 m 407 1032 q 394 928 407 957 q 340 900 381 900 q 297 909 318 900 q 244 936 275 918 q 197 962 217 953 q 158 971 176 971 q 135 953 140 971 q 129 885 129 935 l 92 885 q 105 988 92 960 q 158 1017 118 1017 q 204 1007 182 1017 q 260 978 226 997 q 340 946 313 946 q 364 964 358 946 q 369 1032 369 982 l 407 1032 z "},"æ":{"ha":818,"x_min":42,"x_max":756,"o":"m 756 343 l 421 343 q 431 146 421 208 q 475 58 442 83 q 582 33 508 33 q 663 39 619 33 q 739 53 707 44 l 739 7 q 667 -6 713 0 q 578 -11 621 -11 q 451 17 494 -11 q 390 115 408 44 q 324 13 369 38 q 214 -11 279 -11 q 115 5 151 -11 q 60 65 78 21 q 42 192 42 108 q 56 310 42 268 q 103 369 69 351 q 197 388 136 388 l 372 388 l 372 450 q 361 599 372 554 q 319 660 350 644 q 221 675 289 675 q 144 669 189 675 q 71 657 100 664 l 71 703 q 232 719 143 719 q 342 699 303 719 q 399 628 381 679 q 460 698 418 676 q 575 719 501 719 q 697 689 660 719 q 745 588 735 658 q 756 361 756 517 l 756 343 m 572 675 q 471 655 501 675 q 431 578 440 635 q 421 388 421 521 l 707 388 l 707 411 q 695 585 707 531 q 656 658 683 640 q 572 675 629 675 m 372 343 l 206 343 q 133 333 157 343 q 100 290 110 322 q 90 192 90 258 q 101 92 90 125 q 137 46 111 58 q 214 33 163 33 q 304 49 269 33 q 354 121 339 65 q 372 292 372 188 l 372 343 z "},"ǽ":{"ha":818,"x_min":42,"x_max":756,"o":"m 756 343 l 421 343 q 431 146 421 208 q 475 58 442 83 q 582 33 508 33 q 663 39 619 33 q 739 53 707 44 l 739 7 q 667 -6 713 0 q 578 -11 621 -11 q 451 17 494 -11 q 390 115 408 44 q 324 13 369 38 q 214 -11 279 -11 q 115 5 151 -11 q 60 65 78 21 q 42 192 42 108 q 56 310 42 268 q 103 369 69 351 q 197 388 136 388 l 372 388 l 372 450 q 361 599 372 554 q 319 660 350 644 q 221 675 289 675 q 144 669 189 675 q 71 657 100 664 l 71 703 q 232 719 143 719 q 342 699 303 719 q 399 628 381 679 q 460 698 418 676 q 575 719 501 719 q 697 689 660 719 q 745 588 735 658 q 756 361 756 517 l 756 343 m 572 675 q 471 655 501 675 q 431 578 440 635 q 421 388 421 521 l 707 388 l 707 411 q 695 585 707 531 q 656 658 683 640 q 572 675 629 675 m 372 343 l 206 343 q 133 333 157 343 q 100 290 110 322 q 90 192 90 258 q 101 92 90 125 q 137 46 111 58 q 214 33 163 33 q 304 49 269 33 q 354 121 339 65 q 372 292 372 188 l 372 343 m 389 840 l 389 847 l 435 1032 l 490 1032 l 490 1025 l 421 840 l 389 840 z "},"b":{"ha":536,"x_min":83,"x_max":474,"o":"m 286 -11 q 188 12 226 -11 q 132 104 149 35 l 126 104 l 121 0 l 83 0 l 83 1032 l 132 1032 l 132 617 l 138 617 q 188 696 151 672 q 286 719 224 719 q 406 690 367 719 q 459 585 444 660 q 474 354 474 510 q 459 124 474 200 q 406 19 444 49 q 286 -11 367 -11 m 278 33 q 374 56 344 33 q 415 142 404 78 q 425 354 425 207 q 415 566 425 501 q 374 653 404 631 q 278 675 344 675 q 190 649 222 675 q 147 568 158 624 q 132 354 132 492 q 135 234 132 282 q 146 143 138 186 q 190 60 157 86 q 278 33 222 33 z "},"c":{"ha":419,"x_min":63,"x_max":378,"o":"m 378 6 q 322 -6 356 -1 q 256 -11 288 -11 q 127 24 168 -11 q 74 131 86 58 q 63 353 63 204 q 78 581 63 504 q 133 689 93 658 q 251 719 172 719 q 316 715 281 719 q 374 704 351 711 l 374 658 q 257 675 317 675 q 163 649 193 675 q 122 558 132 624 q 111 356 111 492 q 122 148 111 214 q 163 58 132 82 q 260 33 193 33 q 324 38 290 33 q 378 51 357 43 l 378 6 z "},"ć":{"ha":419,"x_min":63,"x_max":378,"o":"m 378 6 q 322 -6 356 -1 q 256 -11 288 -11 q 127 24 168 -11 q 74 131 86 58 q 63 353 63 204 q 78 581 63 504 q 133 689 93 658 q 251 719 172 719 q 316 715 281 719 q 374 704 351 711 l 374 658 q 257 675 317 675 q 163 649 193 675 q 122 558 132 624 q 111 356 111 492 q 122 148 111 214 q 163 58 132 82 q 260 33 193 33 q 324 38 290 33 q 378 51 357 43 l 378 6 m 189 840 l 189 847 l 235 1032 l 290 1032 l 290 1025 l 221 840 l 189 840 z "},"č":{"ha":419,"x_min":63,"x_max":378,"o":"m 378 6 q 322 -6 356 -1 q 256 -11 288 -11 q 127 24 168 -11 q 74 131 86 58 q 63 353 63 204 q 78 581 63 504 q 133 689 93 658 q 251 719 172 719 q 316 715 281 719 q 374 704 351 711 l 374 658 q 257 675 317 675 q 163 649 193 675 q 122 558 132 624 q 111 356 111 492 q 122 148 111 214 q 163 58 132 82 q 260 33 193 33 q 324 38 290 33 q 378 51 357 43 l 378 6 m 178 840 l 85 1025 l 85 1032 l 122 1032 l 210 882 l 297 1032 l 335 1032 l 335 1025 l 242 840 l 178 840 z "},"ç":{"ha":419,"x_min":63,"x_max":378,"o":"m 260 33 q 324 38 290 33 q 378 51 357 43 l 378 6 q 322 -6 356 -1 q 256 -11 288 -11 q 225 -10 235 -11 l 167 -264 l 111 -264 l 111 -257 l 188 -4 q 106 49 132 8 q 71 158 79 89 q 63 353 63 226 q 78 581 63 504 q 133 689 93 658 q 251 719 172 719 q 316 715 281 719 q 374 704 351 711 l 374 658 q 257 675 317 675 q 163 649 193 675 q 122 558 132 624 q 111 356 111 492 q 122 148 111 214 q 163 58 132 82 q 260 33 193 33 z "},"ĉ":{"ha":419,"x_min":63,"x_max":378,"o":"m 378 6 q 322 -6 356 -1 q 256 -11 288 -11 q 127 24 168 -11 q 74 131 86 58 q 63 353 63 204 q 78 581 63 504 q 133 689 93 658 q 251 719 172 719 q 316 715 281 719 q 374 704 351 711 l 374 658 q 257 675 317 675 q 163 649 193 675 q 122 558 132 624 q 111 356 111 492 q 122 148 111 214 q 163 58 132 82 q 260 33 193 33 q 324 38 290 33 q 378 51 357 43 l 378 6 m 85 840 l 85 847 l 178 1032 l 242 1032 l 335 847 l 335 840 l 297 840 l 210 990 l 122 840 l 85 840 z "},"ċ":{"ha":419,"x_min":63,"x_max":378,"o":"m 378 6 q 322 -6 356 -1 q 256 -11 288 -11 q 127 24 168 -11 q 74 131 86 58 q 63 353 63 204 q 78 581 63 504 q 133 689 93 658 q 251 719 172 719 q 316 715 281 719 q 374 704 351 711 l 374 658 q 257 675 317 675 q 163 649 193 675 q 122 558 132 624 q 111 356 111 492 q 122 148 111 214 q 163 58 132 82 q 260 33 193 33 q 324 38 290 33 q 378 51 357 43 l 378 6 m 181 929 l 181 1014 l 238 1014 l 238 929 l 181 929 z "},"d":{"ha":536,"x_min":63,"x_max":453,"o":"m 250 -11 q 131 19 169 -11 q 77 124 92 49 q 63 354 63 200 q 77 585 63 510 q 131 690 92 660 q 250 719 169 719 q 349 696 313 719 q 399 617 385 672 l 404 617 l 404 1032 l 453 1032 l 453 0 l 415 0 l 410 104 l 404 104 q 349 12 388 35 q 250 -11 310 -11 m 258 33 q 347 59 314 33 q 390 139 379 85 q 401 236 399 185 q 404 374 404 288 q 392 556 404 492 q 345 647 378 619 q 253 675 313 675 q 160 653 189 675 q 122 565 132 631 q 111 354 111 500 q 122 142 111 207 q 162 56 132 78 q 258 33 192 33 z "},"ð":{"ha":522,"x_min":63,"x_max":460,"o":"m 261 -11 q 126 19 167 -11 q 74 119 85 49 q 63 353 63 190 q 74 591 63 519 q 125 691 85 663 q 261 719 165 719 q 385 669 344 719 l 390 672 q 318 901 363 807 l 188 881 l 188 925 l 297 942 q 243 1026 274 985 l 243 1032 l 299 1032 q 350 950 331 989 l 444 965 l 444 921 l 371 910 q 424 740 403 833 q 453 561 446 646 q 460 388 460 476 q 450 129 460 204 q 399 22 440 54 q 261 -11 358 -11 m 261 33 q 367 59 336 33 q 404 144 397 85 q 411 353 411 204 q 404 546 411 485 q 365 641 397 607 q 261 675 333 675 q 155 651 185 675 q 118 568 125 628 q 111 353 111 508 q 118 144 111 204 q 156 59 125 85 q 261 33 186 33 z "},"ď":{"ha":536,"x_min":63,"x_max":565,"o":"m 250 -11 q 131 19 169 -11 q 77 124 92 49 q 63 354 63 200 q 77 585 63 510 q 131 690 92 660 q 250 719 169 719 q 349 696 313 719 q 399 617 385 672 l 404 617 l 404 1032 l 453 1032 l 453 0 l 415 0 l 410 104 l 404 104 q 349 12 388 35 q 250 -11 310 -11 m 258 33 q 347 59 314 33 q 390 139 379 85 q 401 236 399 185 q 404 374 404 288 q 392 556 404 492 q 345 647 378 619 q 253 675 313 675 q 160 653 189 675 q 122 565 132 631 q 111 354 111 500 q 122 142 111 207 q 162 56 132 78 q 258 33 192 33 m 494 631 l 511 832 l 511 956 l 565 956 l 565 832 l 526 631 l 494 631 z "},"đ":{"ha":536,"x_min":63,"x_max":528,"o":"m 528 911 l 453 911 l 453 0 l 415 0 l 410 104 l 404 104 q 349 12 388 35 q 250 -11 310 -11 q 131 19 169 -11 q 77 124 92 49 q 63 354 63 200 q 77 585 63 510 q 131 690 92 660 q 250 719 169 719 q 349 696 313 719 q 399 617 385 672 l 404 617 l 404 911 l 243 911 l 243 956 l 404 956 l 404 1032 l 453 1032 l 453 956 l 528 956 l 528 911 m 390 139 q 401 236 399 185 q 404 374 404 288 q 392 556 404 492 q 345 647 378 619 q 253 675 313 675 q 160 653 189 675 q 122 565 132 631 q 111 354 111 500 q 122 142 111 207 q 162 56 132 78 q 258 33 192 33 q 347 59 314 33 q 390 139 379 85 z "},"ḍ":{"ha":536,"x_min":63,"x_max":453,"o":"m 250 -11 q 131 19 169 -11 q 77 124 92 49 q 63 354 63 200 q 77 585 63 510 q 131 690 92 660 q 250 719 169 719 q 349 696 313 719 q 399 617 385 672 l 404 617 l 404 1032 l 453 1032 l 453 0 l 415 0 l 410 104 l 404 104 q 349 12 388 35 q 250 -11 310 -11 m 258 33 q 347 59 314 33 q 390 139 379 85 q 401 236 399 185 q 404 374 404 288 q 392 556 404 492 q 345 647 378 619 q 253 675 313 675 q 160 653 189 675 q 122 565 132 631 q 111 354 111 500 q 122 142 111 207 q 162 56 132 78 q 258 33 192 33 m 238 -176 l 238 -86 l 299 -86 l 299 -176 l 238 -176 z "},"ǳ":{"ha":950,"x_min":63,"x_max":914,"o":"m 250 -11 q 131 19 169 -11 q 77 124 92 49 q 63 354 63 200 q 77 585 63 510 q 131 690 92 660 q 250 719 169 719 q 349 696 313 719 q 399 617 385 672 l 404 617 l 404 1032 l 453 1032 l 453 0 l 415 0 l 410 104 l 404 104 q 349 12 388 35 q 250 -11 310 -11 m 258 33 q 347 59 314 33 q 390 139 379 85 q 401 236 399 185 q 404 374 404 288 q 392 556 404 492 q 345 647 378 619 q 253 675 313 675 q 160 653 189 675 q 122 565 132 631 q 111 354 111 500 q 122 142 111 207 q 162 56 132 78 q 258 33 192 33 m 572 0 l 572 39 l 857 664 l 582 664 l 582 708 l 913 708 l 913 669 l 628 44 l 914 44 l 914 0 l 572 0 z "},"ǆ":{"ha":950,"x_min":63,"x_max":914,"o":"m 250 -11 q 131 19 169 -11 q 77 124 92 49 q 63 354 63 200 q 77 585 63 510 q 131 690 92 660 q 250 719 169 719 q 349 696 313 719 q 399 617 385 672 l 404 617 l 404 1032 l 453 1032 l 453 0 l 415 0 l 410 104 l 404 104 q 349 12 388 35 q 250 -11 310 -11 m 258 33 q 347 59 314 33 q 390 139 379 85 q 401 236 399 185 q 404 374 404 288 q 392 556 404 492 q 345 647 378 619 q 253 675 313 675 q 160 653 189 675 q 122 565 132 631 q 111 354 111 500 q 122 142 111 207 q 162 56 132 78 q 258 33 192 33 m 572 0 l 572 39 l 857 664 l 582 664 l 582 708 l 913 708 l 913 669 l 628 44 l 914 44 l 914 0 l 572 0 m 703 840 l 610 1025 l 610 1032 l 647 1032 l 735 882 l 822 1032 l 860 1032 l 860 1025 l 767 840 l 703 840 z "},"e":{"ha":508,"x_min":63,"x_max":446,"o":"m 446 338 l 111 338 q 122 144 111 204 q 165 58 132 83 q 272 33 199 33 q 353 39 310 33 q 429 53 397 44 l 429 7 q 357 -6 403 0 q 268 -11 311 -11 q 135 19 178 -11 q 77 124 92 49 q 63 353 63 199 q 74 582 63 511 q 126 686 85 653 q 265 719 168 719 q 388 688 350 719 q 435 585 425 657 q 446 356 446 514 l 446 338 m 263 675 q 161 654 192 675 q 121 576 131 633 q 111 382 111 518 l 397 382 l 397 411 q 385 585 397 531 q 347 658 374 640 q 263 675 319 675 z "},"é":{"ha":508,"x_min":63,"x_max":446,"o":"m 446 338 l 111 338 q 122 144 111 204 q 165 58 132 83 q 272 33 199 33 q 353 39 310 33 q 429 53 397 44 l 429 7 q 357 -6 403 0 q 268 -11 311 -11 q 135 19 178 -11 q 77 124 92 49 q 63 353 63 199 q 74 582 63 511 q 126 686 85 653 q 265 719 168 719 q 388 688 350 719 q 435 585 425 657 q 446 356 446 514 l 446 338 m 263 675 q 161 654 192 675 q 121 576 131 633 q 111 382 111 518 l 397 382 l 397 411 q 385 585 397 531 q 347 658 374 640 q 263 675 319 675 m 249 840 l 249 847 l 294 1032 l 350 1032 l 350 1025 l 281 840 l 249 840 z "},"ĕ":{"ha":508,"x_min":63,"x_max":446,"o":"m 446 338 l 111 338 q 122 144 111 204 q 165 58 132 83 q 272 33 199 33 q 353 39 310 33 q 429 53 397 44 l 429 7 q 357 -6 403 0 q 268 -11 311 -11 q 135 19 178 -11 q 77 124 92 49 q 63 353 63 199 q 74 582 63 511 q 126 686 85 653 q 265 719 168 719 q 388 688 350 719 q 435 585 425 657 q 446 356 446 514 l 446 338 m 263 675 q 161 654 192 675 q 121 576 131 633 q 111 382 111 518 l 397 382 l 397 411 q 385 585 397 531 q 347 658 374 640 q 263 675 319 675 m 381 1032 q 374 922 381 961 q 340 860 368 883 q 253 836 313 836 q 166 860 193 836 q 133 922 139 883 q 126 1032 126 960 l 172 1032 q 176 939 172 969 q 198 892 181 908 q 253 875 215 875 q 309 892 292 875 q 331 939 326 908 q 335 1032 335 969 l 381 1032 z "},"ě":{"ha":508,"x_min":63,"x_max":446,"o":"m 446 338 l 111 338 q 122 144 111 204 q 165 58 132 83 q 272 33 199 33 q 353 39 310 33 q 429 53 397 44 l 429 7 q 357 -6 403 0 q 268 -11 311 -11 q 135 19 178 -11 q 77 124 92 49 q 63 353 63 199 q 74 582 63 511 q 126 686 85 653 q 265 719 168 719 q 388 688 350 719 q 435 585 425 657 q 446 356 446 514 l 446 338 m 263 675 q 161 654 192 675 q 121 576 131 633 q 111 382 111 518 l 397 382 l 397 411 q 385 585 397 531 q 347 658 374 640 q 263 675 319 675 m 222 840 l 129 1025 l 129 1032 l 167 1032 l 254 882 l 342 1032 l 379 1032 l 379 1025 l 286 840 l 222 840 z "},"ê":{"ha":508,"x_min":63,"x_max":446,"o":"m 446 338 l 111 338 q 122 144 111 204 q 165 58 132 83 q 272 33 199 33 q 353 39 310 33 q 429 53 397 44 l 429 7 q 357 -6 403 0 q 268 -11 311 -11 q 135 19 178 -11 q 77 124 92 49 q 63 353 63 199 q 74 582 63 511 q 126 686 85 653 q 265 719 168 719 q 388 688 350 719 q 435 585 425 657 q 446 356 446 514 l 446 338 m 263 675 q 161 654 192 675 q 121 576 131 633 q 111 382 111 518 l 397 382 l 397 411 q 385 585 397 531 q 347 658 374 640 q 263 675 319 675 m 133 840 l 133 847 l 226 1032 l 290 1032 l 383 847 l 383 840 l 346 840 l 258 990 l 171 840 l 133 840 z "},"ế":{"ha":508,"x_min":63,"x_max":446,"o":"m 446 338 l 111 338 q 122 144 111 204 q 165 58 132 83 q 272 33 199 33 q 353 39 310 33 q 429 53 397 44 l 429 7 q 357 -6 403 0 q 268 -11 311 -11 q 135 19 178 -11 q 77 124 92 49 q 63 353 63 199 q 74 582 63 511 q 126 686 85 653 q 265 719 168 719 q 388 688 350 719 q 435 585 425 657 q 446 356 446 514 l 446 338 m 263 675 q 161 654 192 675 q 121 576 131 633 q 111 382 111 518 l 397 382 l 397 411 q 385 585 397 531 q 347 658 374 640 q 263 675 319 675 m 128 840 l 128 847 l 221 1032 l 285 1032 l 378 847 l 378 840 l 340 840 l 253 990 l 165 840 l 128 840 m 336 1032 l 336 1039 l 382 1224 l 438 1224 l 438 1217 l 368 1032 l 336 1032 z "},"ệ":{"ha":508,"x_min":63,"x_max":446,"o":"m 446 338 l 111 338 q 122 144 111 204 q 165 58 132 83 q 272 33 199 33 q 353 39 310 33 q 429 53 397 44 l 429 7 q 357 -6 403 0 q 268 -11 311 -11 q 135 19 178 -11 q 77 124 92 49 q 63 353 63 199 q 74 582 63 511 q 126 686 85 653 q 265 719 168 719 q 388 688 350 719 q 435 585 425 657 q 446 356 446 514 l 446 338 m 263 675 q 161 654 192 675 q 121 576 131 633 q 111 382 111 518 l 397 382 l 397 411 q 385 585 397 531 q 347 658 374 640 q 263 675 319 675 m 224 -176 l 224 -86 l 285 -86 l 285 -176 l 224 -176 m 129 840 l 129 847 l 222 1032 l 286 1032 l 379 847 l 379 840 l 342 840 l 254 990 l 167 840 l 129 840 z "},"ề":{"ha":508,"x_min":63,"x_max":446,"o":"m 446 338 l 111 338 q 122 144 111 204 q 165 58 132 83 q 272 33 199 33 q 353 39 310 33 q 429 53 397 44 l 429 7 q 357 -6 403 0 q 268 -11 311 -11 q 135 19 178 -11 q 77 124 92 49 q 63 353 63 199 q 74 582 63 511 q 126 686 85 653 q 265 719 168 719 q 388 688 350 719 q 435 585 425 657 q 446 356 446 514 l 446 338 m 263 675 q 161 654 192 675 q 121 576 131 633 q 111 382 111 518 l 397 382 l 397 411 q 385 585 397 531 q 347 658 374 640 q 263 675 319 675 m 129 840 l 129 847 l 222 1032 l 286 1032 l 379 847 l 379 840 l 342 840 l 254 990 l 167 840 l 129 840 m 336 1032 l 267 1217 l 267 1224 l 322 1224 l 368 1039 l 368 1032 l 336 1032 z "},"ể":{"ha":508,"x_min":63,"x_max":467,"o":"m 446 338 l 111 338 q 122 144 111 204 q 165 58 132 83 q 272 33 199 33 q 353 39 310 33 q 429 53 397 44 l 429 7 q 357 -6 403 0 q 268 -11 311 -11 q 135 19 178 -11 q 77 124 92 49 q 63 353 63 199 q 74 582 63 511 q 126 686 85 653 q 265 719 168 719 q 388 688 350 719 q 435 585 425 657 q 446 356 446 514 l 446 338 m 263 675 q 161 654 192 675 q 121 576 131 633 q 111 382 111 518 l 397 382 l 397 411 q 385 585 397 531 q 347 658 374 640 q 263 675 319 675 m 129 840 l 129 847 l 222 1032 l 286 1032 l 379 847 l 379 840 l 342 840 l 254 990 l 167 840 l 129 840 m 307 1043 q 318 1081 307 1071 q 356 1100 329 1092 l 371 1104 q 413 1125 401 1114 q 425 1165 425 1136 q 421 1199 425 1189 q 399 1213 417 1208 q 340 1218 381 1218 q 240 1213 324 1218 l 240 1249 q 347 1257 318 1257 q 424 1248 397 1257 q 458 1221 450 1239 q 467 1172 467 1203 q 458 1114 467 1133 q 414 1082 450 1094 l 401 1078 q 356 1058 364 1065 q 347 1032 347 1051 l 307 1032 l 307 1043 z "},"ễ":{"ha":508,"x_min":63,"x_max":446,"o":"m 446 338 l 111 338 q 122 144 111 204 q 165 58 132 83 q 272 33 199 33 q 353 39 310 33 q 429 53 397 44 l 429 7 q 357 -6 403 0 q 268 -11 311 -11 q 135 19 178 -11 q 77 124 92 49 q 63 353 63 199 q 74 582 63 511 q 126 686 85 653 q 265 719 168 719 q 388 688 350 719 q 435 585 425 657 q 446 356 446 514 l 446 338 m 263 675 q 161 654 192 675 q 121 576 131 633 q 111 382 111 518 l 397 382 l 397 411 q 385 585 397 531 q 347 658 374 640 q 263 675 319 675 m 126 840 l 126 847 l 219 1032 l 283 1032 l 376 847 l 376 840 l 339 840 l 251 990 l 164 840 l 126 840 m 411 1272 q 398 1169 411 1197 q 344 1140 385 1140 q 301 1149 322 1140 q 249 1176 279 1158 q 201 1202 221 1193 q 163 1211 181 1211 q 139 1193 144 1211 q 133 1125 133 1175 l 96 1125 q 109 1228 96 1200 q 163 1257 122 1257 q 208 1247 186 1257 q 264 1218 231 1238 q 344 1186 317 1186 q 368 1204 363 1186 q 374 1272 374 1222 l 411 1272 z "},"ȅ":{"ha":508,"x_min":63,"x_max":446,"o":"m 446 338 l 111 338 q 122 144 111 204 q 165 58 132 83 q 272 33 199 33 q 353 39 310 33 q 429 53 397 44 l 429 7 q 357 -6 403 0 q 268 -11 311 -11 q 135 19 178 -11 q 77 124 92 49 q 63 353 63 199 q 74 582 63 511 q 126 686 85 653 q 265 719 168 719 q 388 688 350 719 q 435 585 425 657 q 446 356 446 514 l 446 338 m 263 675 q 161 654 192 675 q 121 576 131 633 q 111 382 111 518 l 397 382 l 397 411 q 385 585 397 531 q 347 658 374 640 q 263 675 319 675 m 201 849 l 169 849 l 103 1007 l 103 1014 l 158 1014 l 201 856 l 201 849 m 340 849 l 308 849 l 242 1007 l 242 1014 l 297 1014 l 340 856 l 340 849 z "},"ë":{"ha":508,"x_min":63,"x_max":446,"o":"m 446 338 l 111 338 q 122 144 111 204 q 165 58 132 83 q 272 33 199 33 q 353 39 310 33 q 429 53 397 44 l 429 7 q 357 -6 403 0 q 268 -11 311 -11 q 135 19 178 -11 q 77 124 92 49 q 63 353 63 199 q 74 582 63 511 q 126 686 85 653 q 265 719 168 719 q 388 688 350 719 q 435 585 425 657 q 446 356 446 514 l 446 338 m 263 675 q 161 654 192 675 q 121 576 131 633 q 111 382 111 518 l 397 382 l 397 411 q 385 585 397 531 q 347 658 374 640 q 263 675 319 675 m 115 929 l 115 1014 l 172 1014 l 172 929 l 115 929 m 351 929 l 351 1014 l 408 1014 l 408 929 l 351 929 z "},"ė":{"ha":508,"x_min":63,"x_max":446,"o":"m 446 338 l 111 338 q 122 144 111 204 q 165 58 132 83 q 272 33 199 33 q 353 39 310 33 q 429 53 397 44 l 429 7 q 357 -6 403 0 q 268 -11 311 -11 q 135 19 178 -11 q 77 124 92 49 q 63 353 63 199 q 74 582 63 511 q 126 686 85 653 q 265 719 168 719 q 388 688 350 719 q 435 585 425 657 q 446 356 446 514 l 446 338 m 263 675 q 161 654 192 675 q 121 576 131 633 q 111 382 111 518 l 397 382 l 397 411 q 385 585 397 531 q 347 658 374 640 q 263 675 319 675 m 225 929 l 225 1014 l 282 1014 l 282 929 l 225 929 z "},"ẹ":{"ha":508,"x_min":63,"x_max":446,"o":"m 446 338 l 111 338 q 122 144 111 204 q 165 58 132 83 q 272 33 199 33 q 353 39 310 33 q 429 53 397 44 l 429 7 q 357 -6 403 0 q 268 -11 311 -11 q 135 19 178 -11 q 77 124 92 49 q 63 353 63 199 q 74 582 63 511 q 126 686 85 653 q 265 719 168 719 q 388 688 350 719 q 435 585 425 657 q 446 356 446 514 l 446 338 m 263 675 q 161 654 192 675 q 121 576 131 633 q 111 382 111 518 l 397 382 l 397 411 q 385 585 397 531 q 347 658 374 640 q 263 675 319 675 m 224 -176 l 224 -86 l 285 -86 l 285 -176 l 224 -176 z "},"è":{"ha":508,"x_min":63,"x_max":446,"o":"m 446 338 l 111 338 q 122 144 111 204 q 165 58 132 83 q 272 33 199 33 q 353 39 310 33 q 429 53 397 44 l 429 7 q 357 -6 403 0 q 268 -11 311 -11 q 135 19 178 -11 q 77 124 92 49 q 63 353 63 199 q 74 582 63 511 q 126 686 85 653 q 265 719 168 719 q 388 688 350 719 q 435 585 425 657 q 446 356 446 514 l 446 338 m 263 675 q 161 654 192 675 q 121 576 131 633 q 111 382 111 518 l 397 382 l 397 411 q 385 585 397 531 q 347 658 374 640 q 263 675 319 675 m 250 840 l 181 1025 l 181 1032 l 236 1032 l 282 847 l 282 840 l 250 840 z "},"ẻ":{"ha":508,"x_min":63,"x_max":446,"o":"m 446 338 l 111 338 q 122 144 111 204 q 165 58 132 83 q 272 33 199 33 q 353 39 310 33 q 429 53 397 44 l 429 7 q 357 -6 403 0 q 268 -11 311 -11 q 135 19 178 -11 q 77 124 92 49 q 63 353 63 199 q 74 582 63 511 q 126 686 85 653 q 265 719 168 719 q 388 688 350 719 q 435 585 425 657 q 446 356 446 514 l 446 338 m 263 675 q 161 654 192 675 q 121 576 131 633 q 111 382 111 518 l 397 382 l 397 411 q 385 585 397 531 q 347 658 374 640 q 263 675 319 675 m 207 860 q 218 898 207 888 q 256 917 229 908 l 271 921 q 313 942 301 931 q 325 982 325 953 q 321 1015 325 1006 q 299 1030 317 1025 q 240 1035 281 1035 q 140 1029 224 1035 l 140 1065 q 247 1074 218 1074 q 324 1065 297 1074 q 358 1038 350 1056 q 367 989 367 1019 q 358 931 367 950 q 314 899 350 911 l 301 894 q 256 875 264 882 q 247 849 247 868 l 207 849 l 207 860 z "},"ȇ":{"ha":508,"x_min":63,"x_max":446,"o":"m 446 338 l 111 338 q 122 144 111 204 q 165 58 132 83 q 272 33 199 33 q 353 39 310 33 q 429 53 397 44 l 429 7 q 357 -6 403 0 q 268 -11 311 -11 q 135 19 178 -11 q 77 124 92 49 q 63 353 63 199 q 74 582 63 511 q 126 686 85 653 q 265 719 168 719 q 388 688 350 719 q 435 585 425 657 q 446 356 446 514 l 446 338 m 263 675 q 161 654 192 675 q 121 576 131 633 q 111 382 111 518 l 397 382 l 397 411 q 385 585 397 531 q 347 658 374 640 q 263 675 319 675 m 126 844 q 133 954 126 915 q 167 1017 139 993 q 254 1040 194 1040 q 341 1017 314 1040 q 374 955 368 993 q 381 844 381 917 l 335 844 q 331 938 335 907 q 309 985 326 968 q 254 1001 292 1001 q 198 985 215 1001 q 176 938 181 968 q 172 844 172 907 l 126 844 z "},"ē":{"ha":508,"x_min":63,"x_max":446,"o":"m 446 338 l 111 338 q 122 144 111 204 q 165 58 132 83 q 272 33 199 33 q 353 39 310 33 q 429 53 397 44 l 429 7 q 357 -6 403 0 q 268 -11 311 -11 q 135 19 178 -11 q 77 124 92 49 q 63 353 63 199 q 74 582 63 511 q 126 686 85 653 q 265 719 168 719 q 388 688 350 719 q 435 585 425 657 q 446 356 446 514 l 446 338 m 263 675 q 161 654 192 675 q 121 576 131 633 q 111 382 111 518 l 397 382 l 397 411 q 385 585 397 531 q 347 658 374 640 q 263 675 319 675 m 139 982 l 139 1032 l 368 1032 l 368 982 l 139 982 z "},"ę":{"ha":508,"x_min":63,"x_max":446,"o":"m 446 338 l 111 338 q 122 144 111 204 q 165 58 132 83 q 272 33 199 33 q 353 39 310 33 q 429 53 397 44 l 429 7 q 363 -72 394 -21 q 331 -165 331 -124 q 346 -210 331 -193 q 396 -228 361 -228 l 419 -226 l 419 -271 q 389 -272 407 -272 q 309 -245 335 -272 q 283 -175 283 -218 q 306 -87 283 -133 q 367 -4 329 -42 q 268 -11 318 -11 q 135 19 178 -11 q 77 124 92 49 q 63 353 63 199 q 74 582 63 511 q 126 686 85 653 q 265 719 168 719 q 388 688 350 719 q 435 585 425 657 q 446 356 446 514 l 446 338 m 263 675 q 161 654 192 675 q 121 576 131 633 q 111 382 111 518 l 397 382 l 397 411 q 385 585 397 531 q 347 658 374 640 q 263 675 319 675 z "},"ẽ":{"ha":508,"x_min":63,"x_max":446,"o":"m 446 338 l 111 338 q 122 144 111 204 q 165 58 132 83 q 272 33 199 33 q 353 39 310 33 q 429 53 397 44 l 429 7 q 357 -6 403 0 q 268 -11 311 -11 q 135 19 178 -11 q 77 124 92 49 q 63 353 63 199 q 74 582 63 511 q 126 686 85 653 q 265 719 168 719 q 388 688 350 719 q 435 585 425 657 q 446 356 446 514 l 446 338 m 263 675 q 161 654 192 675 q 121 576 131 633 q 111 382 111 518 l 397 382 l 397 411 q 385 585 397 531 q 347 658 374 640 q 263 675 319 675 m 411 1032 q 398 928 411 957 q 344 900 385 900 q 301 909 322 900 q 249 936 279 918 q 201 962 221 953 q 163 971 181 971 q 139 953 144 971 q 133 885 133 935 l 96 885 q 109 988 96 960 q 163 1017 122 1017 q 208 1007 186 1017 q 264 978 231 997 q 344 946 317 946 q 368 964 363 946 q 374 1032 374 982 l 411 1032 z "},"ə":{"ha":508,"x_min":63,"x_max":446,"o":"m 240 719 q 374 690 331 719 q 431 585 417 660 q 446 356 446 510 q 435 126 446 197 q 382 22 424 56 q 243 -11 340 -11 q 121 20 158 -11 q 73 123 83 51 q 63 353 63 194 l 63 371 l 397 371 q 387 565 397 504 q 343 650 376 625 q 236 675 310 675 q 155 669 199 675 q 79 656 111 664 l 79 701 q 151 714 106 708 q 240 719 197 719 m 246 33 q 347 54 317 33 q 388 133 378 75 q 397 326 397 190 l 111 326 l 111 297 q 123 123 111 178 q 162 51 135 68 q 246 33 189 33 z "},"f":{"ha":307,"x_min":28,"x_max":279,"o":"m 118 664 l 28 664 l 28 708 l 118 708 l 118 868 q 135 974 118 939 q 186 1021 153 1010 q 279 1032 219 1032 l 279 990 q 210 981 233 990 q 176 948 186 972 q 167 876 167 924 l 167 708 l 279 708 l 279 664 l 167 664 l 167 0 l 118 0 l 118 664 z "},"g":{"ha":536,"x_min":63,"x_max":453,"o":"m 228 -272 q 72 -268 151 -272 l 72 -222 q 224 -228 144 -228 q 342 -201 304 -228 q 392 -110 379 -174 q 404 86 404 -47 l 404 92 l 399 92 q 349 13 385 36 q 250 -11 313 -11 q 131 19 169 -11 q 77 124 92 49 q 63 354 63 199 q 77 585 63 510 q 131 690 92 660 q 250 719 169 719 q 349 697 310 719 q 404 604 388 674 l 410 604 l 415 708 l 453 708 l 453 114 q 437 -122 453 -43 q 374 -237 421 -201 q 228 -272 326 -272 m 258 33 q 346 60 314 33 q 390 146 378 88 q 404 354 404 217 q 393 553 404 496 q 347 647 379 619 q 258 675 315 675 q 162 653 192 675 q 122 566 132 631 q 111 354 111 501 q 122 142 111 207 q 162 56 132 78 q 258 33 192 33 z "},"ǵ":{"ha":536,"x_min":63,"x_max":453,"o":"m 228 -272 q 72 -268 151 -272 l 72 -222 q 224 -228 144 -228 q 342 -201 304 -228 q 392 -110 379 -174 q 404 86 404 -47 l 404 92 l 399 92 q 349 13 385 36 q 250 -11 313 -11 q 131 19 169 -11 q 77 124 92 49 q 63 354 63 199 q 77 585 63 510 q 131 690 92 660 q 250 719 169 719 q 349 697 310 719 q 404 604 388 674 l 410 604 l 415 708 l 453 708 l 453 114 q 437 -122 453 -43 q 374 -237 421 -201 q 228 -272 326 -272 m 258 33 q 346 60 314 33 q 390 146 378 88 q 404 354 404 217 q 393 553 404 496 q 347 647 379 619 q 258 675 315 675 q 162 653 192 675 q 122 566 132 631 q 111 354 111 501 q 122 142 111 207 q 162 56 132 78 q 258 33 192 33 m 247 840 l 247 847 l 293 1032 l 349 1032 l 349 1025 l 279 840 l 247 840 z "},"ğ":{"ha":536,"x_min":63,"x_max":453,"o":"m 228 -272 q 72 -268 151 -272 l 72 -222 q 224 -228 144 -228 q 342 -201 304 -228 q 392 -110 379 -174 q 404 86 404 -47 l 404 92 l 399 92 q 349 13 385 36 q 250 -11 313 -11 q 131 19 169 -11 q 77 124 92 49 q 63 354 63 199 q 77 585 63 510 q 131 690 92 660 q 250 719 169 719 q 349 697 310 719 q 404 604 388 674 l 410 604 l 415 708 l 453 708 l 453 114 q 437 -122 453 -43 q 374 -237 421 -201 q 228 -272 326 -272 m 258 33 q 346 60 314 33 q 390 146 378 88 q 404 354 404 217 q 393 553 404 496 q 347 647 379 619 q 258 675 315 675 q 162 653 192 675 q 122 566 132 631 q 111 354 111 501 q 122 142 111 207 q 162 56 132 78 q 258 33 192 33 m 394 1032 q 388 922 394 961 q 354 860 382 883 q 267 836 326 836 q 180 860 207 836 q 147 922 153 883 q 140 1032 140 960 l 186 1032 q 190 939 186 969 q 212 892 194 908 q 267 875 229 875 q 323 892 306 875 q 344 939 340 908 q 349 1032 349 969 l 394 1032 z "},"ǧ":{"ha":536,"x_min":63,"x_max":453,"o":"m 228 -272 q 72 -268 151 -272 l 72 -222 q 224 -228 144 -228 q 342 -201 304 -228 q 392 -110 379 -174 q 404 86 404 -47 l 404 92 l 399 92 q 349 13 385 36 q 250 -11 313 -11 q 131 19 169 -11 q 77 124 92 49 q 63 354 63 199 q 77 585 63 510 q 131 690 92 660 q 250 719 169 719 q 349 697 310 719 q 404 604 388 674 l 410 604 l 415 708 l 453 708 l 453 114 q 437 -122 453 -43 q 374 -237 421 -201 q 228 -272 326 -272 m 258 33 q 346 60 314 33 q 390 146 378 88 q 404 354 404 217 q 393 553 404 496 q 347 647 379 619 q 258 675 315 675 q 162 653 192 675 q 122 566 132 631 q 111 354 111 501 q 122 142 111 207 q 162 56 132 78 q 258 33 192 33 m 236 840 l 143 1025 l 143 1032 l 181 1032 l 268 882 l 356 1032 l 393 1032 l 393 1025 l 300 840 l 236 840 z "},"ĝ":{"ha":536,"x_min":63,"x_max":453,"o":"m 228 -272 q 72 -268 151 -272 l 72 -222 q 224 -228 144 -228 q 342 -201 304 -228 q 392 -110 379 -174 q 404 86 404 -47 l 404 92 l 399 92 q 349 13 385 36 q 250 -11 313 -11 q 131 19 169 -11 q 77 124 92 49 q 63 354 63 199 q 77 585 63 510 q 131 690 92 660 q 250 719 169 719 q 349 697 310 719 q 404 604 388 674 l 410 604 l 415 708 l 453 708 l 453 114 q 437 -122 453 -43 q 374 -237 421 -201 q 228 -272 326 -272 m 258 33 q 346 60 314 33 q 390 146 378 88 q 404 354 404 217 q 393 553 404 496 q 347 647 379 619 q 258 675 315 675 q 162 653 192 675 q 122 566 132 631 q 111 354 111 501 q 122 142 111 207 q 162 56 132 78 q 258 33 192 33 m 143 840 l 143 847 l 236 1032 l 300 1032 l 393 847 l 393 840 l 356 840 l 268 990 l 181 840 l 143 840 z "},"ģ":{"ha":536,"x_min":63,"x_max":453,"o":"m 228 -272 q 72 -268 151 -272 l 72 -222 q 224 -228 144 -228 q 342 -201 304 -228 q 392 -110 379 -174 q 404 86 404 -47 l 404 92 l 399 92 q 349 13 385 36 q 250 -11 313 -11 q 131 19 169 -11 q 77 124 92 49 q 63 354 63 199 q 77 585 63 510 q 131 690 92 660 q 250 719 169 719 q 349 697 310 719 q 404 604 388 674 l 410 604 l 415 708 l 453 708 l 453 114 q 437 -122 453 -43 q 374 -237 421 -201 q 228 -272 326 -272 m 258 33 q 346 60 314 33 q 390 146 378 88 q 404 354 404 217 q 393 553 404 496 q 347 647 379 619 q 258 675 315 675 q 162 653 192 675 q 122 566 132 631 q 111 354 111 501 q 122 142 111 207 q 162 56 132 78 q 258 33 192 33 m 333 1043 q 292 1035 304 1043 q 276 1011 279 1028 q 272 956 272 994 l 272 932 l 300 932 l 300 842 l 236 842 l 236 946 q 244 1024 236 997 q 272 1061 251 1050 q 333 1072 293 1072 l 333 1043 z "},"ġ":{"ha":536,"x_min":63,"x_max":453,"o":"m 228 -272 q 72 -268 151 -272 l 72 -222 q 224 -228 144 -228 q 342 -201 304 -228 q 392 -110 379 -174 q 404 86 404 -47 l 404 92 l 399 92 q 349 13 385 36 q 250 -11 313 -11 q 131 19 169 -11 q 77 124 92 49 q 63 354 63 199 q 77 585 63 510 q 131 690 92 660 q 250 719 169 719 q 349 697 310 719 q 404 604 388 674 l 410 604 l 415 708 l 453 708 l 453 114 q 437 -122 453 -43 q 374 -237 421 -201 q 228 -272 326 -272 m 258 33 q 346 60 314 33 q 390 146 378 88 q 404 354 404 217 q 393 553 404 496 q 347 647 379 619 q 258 675 315 675 q 162 653 192 675 q 122 566 132 631 q 111 354 111 501 q 122 142 111 207 q 162 56 132 78 q 258 33 192 33 m 239 929 l 239 1014 l 296 1014 l 296 929 l 239 929 z "},"h":{"ha":536,"x_min":83,"x_max":458,"o":"m 410 438 q 400 593 410 544 q 363 658 390 642 q 278 675 336 675 q 178 636 210 675 q 139 537 146 597 q 132 367 132 476 l 132 0 l 83 0 l 83 1032 l 132 1032 l 132 624 l 138 624 q 184 692 151 664 q 290 719 217 719 q 399 693 363 719 q 447 610 435 667 q 458 444 458 553 l 458 0 l 410 0 l 410 438 z "},"ħ":{"ha":536,"x_min":8,"x_max":458,"o":"m 290 719 q 399 693 363 719 q 447 610 435 667 q 458 444 458 553 l 458 0 l 410 0 l 410 438 q 400 593 410 544 q 363 658 390 642 q 278 675 336 675 q 178 636 210 675 q 139 537 146 597 q 132 367 132 476 l 132 0 l 83 0 l 83 911 l 8 911 l 8 956 l 83 956 l 83 1032 l 132 1032 l 132 956 l 293 956 l 293 911 l 132 911 l 132 624 l 138 624 q 184 692 151 664 q 290 719 217 719 z "},"ĥ":{"ha":536,"x_min":-17,"x_max":458,"o":"m 410 438 q 400 593 410 544 q 363 658 390 642 q 278 675 336 675 q 178 636 210 675 q 139 537 146 597 q 132 367 132 476 l 132 0 l 83 0 l 83 1032 l 132 1032 l 132 624 l 138 624 q 184 692 151 664 q 290 719 217 719 q 399 693 363 719 q 447 610 435 667 q 458 444 458 553 l 458 0 l 410 0 l 410 438 m -17 1088 l -17 1094 l 76 1279 l 140 1279 l 233 1094 l 233 1088 l 196 1088 l 108 1238 l 21 1088 l -17 1088 z "},"ḥ":{"ha":536,"x_min":83,"x_max":458,"o":"m 410 438 q 400 593 410 544 q 363 658 390 642 q 278 675 336 675 q 178 636 210 675 q 139 537 146 597 q 132 367 132 476 l 132 0 l 83 0 l 83 1032 l 132 1032 l 132 624 l 138 624 q 184 692 151 664 q 290 719 217 719 q 399 693 363 719 q 447 610 435 667 q 458 444 458 553 l 458 0 l 410 0 l 410 438 m 238 -176 l 238 -86 l 299 -86 l 299 -176 l 238 -176 z "},"i":{"ha":215,"x_min":81,"x_max":135,"o":"m 81 947 l 81 1032 l 135 1032 l 135 947 l 81 947 m 83 0 l 83 708 l 132 708 l 132 0 l 83 0 z "},"ı":{"ha":215,"x_min":83,"x_max":132,"o":"m 83 0 l 83 708 l 132 708 l 132 0 l 83 0 z "},"í":{"ha":215,"x_min":83,"x_max":185,"o":"m 83 0 l 83 708 l 132 708 l 132 0 l 83 0 m 83 840 l 83 847 l 129 1032 l 185 1032 l 185 1025 l 115 840 l 83 840 z "},"ĭ":{"ha":215,"x_min":-19,"x_max":235,"o":"m 83 0 l 83 708 l 132 708 l 132 0 l 83 0 m 235 1032 q 228 922 235 961 q 194 860 222 883 q 107 836 167 836 q 20 860 47 836 q -13 922 -7 883 q -19 1032 -19 960 l 26 1032 q 31 939 26 969 q 52 892 35 908 q 107 875 69 875 q 163 892 146 875 q 185 939 181 908 q 189 1032 189 969 l 235 1032 z "},"ǐ":{"ha":215,"x_min":-17,"x_max":233,"o":"m 83 0 l 83 708 l 132 708 l 132 0 l 83 0 m 76 840 l -17 1025 l -17 1032 l 21 1032 l 108 882 l 196 1032 l 233 1032 l 233 1025 l 140 840 l 76 840 z "},"î":{"ha":215,"x_min":-17,"x_max":233,"o":"m 83 0 l 83 708 l 132 708 l 132 0 l 83 0 m -17 840 l -17 847 l 76 1032 l 140 1032 l 233 847 l 233 840 l 196 840 l 108 990 l 21 840 l -17 840 z "},"ȉ":{"ha":215,"x_min":-43,"x_max":194,"o":"m 83 0 l 83 708 l 132 708 l 132 0 l 83 0 m 56 849 l 24 849 l -43 1007 l -43 1014 l 13 1014 l 56 856 l 56 849 m 194 849 l 163 849 l 96 1007 l 96 1014 l 151 1014 l 194 856 l 194 849 z "},"ï":{"ha":215,"x_min":-39,"x_max":254,"o":"m 83 0 l 83 708 l 132 708 l 132 0 l 83 0 m -39 929 l -39 1014 l 18 1014 l 18 929 l -39 929 m 197 929 l 197 1014 l 254 1014 l 254 929 l 197 929 z "},"ị":{"ha":215,"x_min":75,"x_max":136,"o":"m 81 947 l 81 1032 l 135 1032 l 135 947 l 81 947 m 83 0 l 83 708 l 132 708 l 132 0 l 83 0 m 75 -176 l 75 -86 l 136 -86 l 136 -176 l 75 -176 z "},"ì":{"ha":215,"x_min":31,"x_max":132,"o":"m 83 0 l 83 708 l 132 708 l 132 0 l 83 0 m 100 840 l 31 1025 l 31 1032 l 86 1032 l 132 847 l 132 840 l 100 840 z "},"ỉ":{"ha":215,"x_min":-6,"x_max":221,"o":"m 83 0 l 83 708 l 132 708 l 132 0 l 83 0 m 61 860 q 72 898 61 888 q 110 917 83 908 l 125 921 q 167 942 156 931 q 179 982 179 953 q 175 1015 179 1006 q 153 1030 171 1025 q 94 1035 135 1035 q -6 1029 78 1035 l -6 1065 q 101 1074 72 1074 q 178 1065 151 1074 q 213 1038 204 1056 q 221 989 221 1019 q 213 931 221 950 q 168 899 204 911 l 156 894 q 110 875 118 882 q 101 849 101 868 l 61 849 l 61 860 z "},"ȋ":{"ha":215,"x_min":-19,"x_max":235,"o":"m 83 0 l 83 708 l 132 708 l 132 0 l 83 0 m -19 844 q -13 954 -19 915 q 21 1017 -7 993 q 108 1040 49 1040 q 195 1017 168 1040 q 228 955 222 993 q 235 844 235 917 l 189 844 q 185 938 189 907 q 163 985 181 968 q 108 1001 146 1001 q 52 985 69 1001 q 31 938 35 968 q 26 844 26 907 l -19 844 z "},"ĳ":{"ha":431,"x_min":81,"x_max":350,"o":"m 81 947 l 81 1032 l 135 1032 l 135 947 l 81 947 m 83 0 l 83 708 l 132 708 l 132 0 l 83 0 m 296 947 l 296 1032 l 350 1032 l 350 947 l 296 947 m 214 -222 q 270 -215 253 -222 q 293 -193 288 -208 q 299 -143 299 -178 l 299 708 l 347 708 l 347 -129 q 333 -220 347 -192 q 293 -256 319 -249 q 214 -264 267 -264 l 214 -222 z "},"ī":{"ha":215,"x_min":-7,"x_max":222,"o":"m 83 0 l 83 708 l 132 708 l 132 0 l 83 0 m -7 982 l -7 1032 l 222 1032 l 222 982 l -7 982 z "},"į":{"ha":215,"x_min":-3,"x_max":136,"o":"m 79 1014 l 136 1014 l 136 929 l 79 929 l 79 1014 m 44 -164 q 110 -228 44 -228 l 133 -226 l 133 -271 q 103 -272 121 -272 q 23 -245 49 -272 q -3 -172 -3 -218 q 21 -85 -3 -132 q 83 0 44 -37 l 83 708 l 132 708 l 132 0 q 73 -76 101 -26 q 44 -164 44 -125 z "},"ĩ":{"ha":215,"x_min":-50,"x_max":265,"o":"m 83 0 l 83 708 l 132 708 l 132 0 l 83 0 m 265 1032 q 252 928 265 957 q 199 900 239 900 q 155 909 176 900 q 103 936 133 918 q 55 962 75 953 q 17 971 35 971 q -7 953 -1 971 q -12 885 -12 935 l -50 885 q -37 988 -50 960 q 17 1017 -24 1017 q 63 1007 40 1017 q 118 978 85 997 q 199 946 171 946 q 222 964 217 946 q 228 1032 228 982 l 265 1032 z "},"j":{"ha":215,"x_min":-1,"x_max":135,"o":"m 81 947 l 81 1032 l 135 1032 l 135 947 l 81 947 m -1 -222 q 55 -215 38 -222 q 78 -193 72 -208 q 83 -143 83 -178 l 83 708 l 132 708 l 132 -129 q 118 -220 132 -192 q 78 -256 104 -249 q -1 -264 51 -264 l -1 -222 z "},"ȷ":{"ha":215,"x_min":-1,"x_max":132,"o":"m -1 -222 q 55 -215 38 -222 q 78 -193 72 -208 q 83 -143 83 -178 l 83 708 l 132 708 l 132 -129 q 118 -220 132 -192 q 78 -256 104 -249 q -1 -264 51 -264 l -1 -222 z "},"ĵ":{"ha":215,"x_min":-17,"x_max":233,"o":"m -1 -222 q 55 -215 38 -222 q 78 -193 72 -208 q 83 -143 83 -178 l 83 708 l 132 708 l 132 -129 q 118 -220 132 -192 q 78 -256 104 -249 q -1 -264 51 -264 l -1 -222 m -17 840 l -17 847 l 76 1032 l 140 1032 l 233 847 l 233 840 l 196 840 l 108 990 l 21 840 l -17 840 z "},"k":{"ha":464,"x_min":83,"x_max":439,"o":"m 383 0 l 217 338 l 132 338 l 132 0 l 83 0 l 83 1032 l 132 1032 l 132 385 l 217 385 l 378 708 l 432 708 l 257 364 l 439 0 l 383 0 z "},"ķ":{"ha":464,"x_min":83,"x_max":439,"o":"m 383 0 l 217 338 l 132 338 l 132 0 l 83 0 l 83 1032 l 132 1032 l 132 385 l 217 385 l 378 708 l 432 708 l 257 364 l 439 0 l 383 0 m 183 -287 q 225 -280 213 -287 q 241 -256 238 -272 q 244 -200 244 -239 l 244 -176 l 217 -176 l 217 -86 l 281 -86 l 281 -190 q 273 -268 281 -242 q 244 -306 265 -294 q 183 -317 224 -317 l 183 -287 z "},"ĸ":{"ha":464,"x_min":83,"x_max":439,"o":"m 383 0 l 217 338 l 132 338 l 132 0 l 83 0 l 83 708 l 132 708 l 132 385 l 217 385 l 378 708 l 432 708 l 257 364 l 439 0 l 383 0 z "},"l":{"ha":215,"x_min":83,"x_max":132,"o":"m 83 0 l 83 1032 l 132 1032 l 132 0 l 83 0 z "},"ĺ":{"ha":215,"x_min":83,"x_max":189,"o":"m 83 0 l 83 1032 l 132 1032 l 132 0 l 83 0 m 88 1088 l 88 1094 l 133 1279 l 189 1279 l 189 1272 l 119 1088 l 88 1088 z "},"ľ":{"ha":215,"x_min":83,"x_max":244,"o":"m 83 0 l 83 1032 l 132 1032 l 132 0 l 83 0 m 174 631 l 190 832 l 190 956 l 244 956 l 244 832 l 206 631 l 174 631 z "},"ļ":{"ha":215,"x_min":60,"x_max":157,"o":"m 83 0 l 83 1032 l 132 1032 l 132 0 l 83 0 m 60 -287 q 101 -280 89 -287 q 117 -256 114 -272 q 121 -200 121 -239 l 121 -176 l 93 -176 l 93 -86 l 157 -86 l 157 -190 q 149 -268 157 -242 q 121 -306 142 -294 q 60 -317 100 -317 l 60 -287 z "},"ŀ":{"ha":269,"x_min":83,"x_max":268,"o":"m 83 0 l 83 1032 l 132 1032 l 132 0 l 83 0 m 207 371 l 207 461 l 268 461 l 268 371 l 207 371 z "},"ǉ":{"ha":431,"x_min":83,"x_max":350,"o":"m 83 0 l 83 1032 l 132 1032 l 132 0 l 83 0 m 296 947 l 296 1032 l 350 1032 l 350 947 l 296 947 m 214 -222 q 270 -215 253 -222 q 293 -193 288 -208 q 299 -143 299 -178 l 299 708 l 347 708 l 347 -129 q 333 -220 347 -192 q 293 -256 319 -249 q 214 -264 267 -264 l 214 -222 z "},"ł":{"ha":222,"x_min":17,"x_max":206,"o":"m 83 0 l 83 457 l 17 433 l 17 482 l 83 506 l 83 1032 l 132 1032 l 132 522 l 206 549 l 206 500 l 132 474 l 132 0 l 83 0 z "},"m":{"ha":843,"x_min":83,"x_max":765,"o":"m 717 438 q 708 593 717 544 q 674 658 699 642 q 594 675 649 675 q 494 639 525 675 q 456 543 463 603 q 449 367 449 483 l 449 0 l 400 0 l 400 438 q 391 593 400 544 q 358 658 382 642 q 279 675 333 675 q 179 636 211 675 q 140 536 147 597 q 132 367 132 475 l 132 0 l 83 0 l 83 708 l 121 708 l 126 604 l 133 604 q 177 688 143 656 q 285 719 211 719 q 393 694 360 719 q 439 604 426 668 l 446 604 q 600 719 471 719 q 706 693 671 719 q 753 610 742 667 q 765 444 765 553 l 765 0 l 717 0 l 717 438 z "},"n":{"ha":536,"x_min":83,"x_max":458,"o":"m 410 438 q 400 593 410 544 q 363 658 390 642 q 278 675 336 675 q 178 636 210 675 q 139 537 146 597 q 132 367 132 476 l 132 0 l 83 0 l 83 708 l 121 708 l 126 604 l 132 604 q 179 688 144 657 q 290 719 214 719 q 399 693 363 719 q 447 610 435 667 q 458 444 458 553 l 458 0 l 410 0 l 410 438 z "},"ń":{"ha":536,"x_min":83,"x_max":458,"o":"m 410 438 q 400 593 410 544 q 363 658 390 642 q 278 675 336 675 q 178 636 210 675 q 139 537 146 597 q 132 367 132 476 l 132 0 l 83 0 l 83 708 l 121 708 l 126 604 l 132 604 q 179 688 144 657 q 290 719 214 719 q 399 693 363 719 q 447 610 435 667 q 458 444 458 553 l 458 0 l 410 0 l 410 438 m 247 840 l 247 847 l 293 1032 l 349 1032 l 349 1025 l 279 840 l 247 840 z "},"ŉ":{"ha":536,"x_min":4,"x_max":458,"o":"m 4 831 q 46 838 33 831 q 62 863 58 846 q 65 918 65 879 l 65 942 l 38 942 l 38 1032 l 101 1032 l 101 928 q 94 850 101 876 q 65 813 86 824 q 4 801 44 801 l 4 831 m 410 438 q 400 593 410 544 q 363 658 390 642 q 278 675 336 675 q 178 636 210 675 q 139 537 146 597 q 132 367 132 476 l 132 0 l 83 0 l 83 708 l 121 708 l 126 604 l 132 604 q 179 688 144 657 q 290 719 214 719 q 399 693 363 719 q 447 610 435 667 q 458 444 458 553 l 458 0 l 410 0 l 410 438 z "},"ň":{"ha":536,"x_min":83,"x_max":458,"o":"m 410 438 q 400 593 410 544 q 363 658 390 642 q 278 675 336 675 q 178 636 210 675 q 139 537 146 597 q 132 367 132 476 l 132 0 l 83 0 l 83 708 l 121 708 l 126 604 l 132 604 q 179 688 144 657 q 290 719 214 719 q 399 693 363 719 q 447 610 435 667 q 458 444 458 553 l 458 0 l 410 0 l 410 438 m 236 840 l 143 1025 l 143 1032 l 181 1032 l 268 882 l 356 1032 l 393 1032 l 393 1025 l 300 840 l 236 840 z "},"ņ":{"ha":536,"x_min":83,"x_max":458,"o":"m 410 438 q 400 593 410 544 q 363 658 390 642 q 278 675 336 675 q 178 636 210 675 q 139 537 146 597 q 132 367 132 476 l 132 0 l 83 0 l 83 708 l 121 708 l 126 604 l 132 604 q 179 688 144 657 q 290 719 214 719 q 399 693 363 719 q 447 610 435 667 q 458 444 458 553 l 458 0 l 410 0 l 410 438 m 219 -287 q 261 -280 249 -287 q 277 -256 274 -272 q 281 -200 281 -239 l 281 -176 l 253 -176 l 253 -86 l 317 -86 l 317 -190 q 309 -268 317 -242 q 281 -306 301 -294 q 219 -317 260 -317 l 219 -287 z "},"ṅ":{"ha":536,"x_min":83,"x_max":458,"o":"m 410 438 q 400 593 410 544 q 363 658 390 642 q 278 675 336 675 q 178 636 210 675 q 139 537 146 597 q 132 367 132 476 l 132 0 l 83 0 l 83 708 l 121 708 l 126 604 l 132 604 q 179 688 144 657 q 290 719 214 719 q 399 693 363 719 q 447 610 435 667 q 458 444 458 553 l 458 0 l 410 0 l 410 438 m 239 929 l 239 1014 l 296 1014 l 296 929 l 239 929 z "},"ŋ":{"ha":536,"x_min":83,"x_max":458,"o":"m 290 719 q 399 693 363 719 q 447 610 435 667 q 458 444 458 553 l 458 -129 q 444 -220 458 -192 q 404 -256 431 -249 q 325 -264 378 -264 l 325 -222 q 381 -215 364 -222 q 404 -193 399 -208 q 410 -143 410 -178 l 410 438 q 400 593 410 544 q 363 658 390 642 q 278 675 336 675 q 178 636 210 675 q 139 537 146 597 q 132 367 132 476 l 132 0 l 83 0 l 83 708 l 121 708 l 126 604 l 132 604 q 179 688 144 657 q 290 719 214 719 z "},"ɲ":{"ha":536,"x_min":-1,"x_max":458,"o":"m -1 -222 q 55 -215 38 -222 q 78 -193 72 -208 q 83 -143 83 -178 l 83 708 l 121 708 l 126 604 l 132 604 q 179 688 144 657 q 290 719 214 719 q 399 693 363 719 q 447 610 435 667 q 458 444 458 553 l 458 0 l 410 0 l 410 438 q 400 593 410 544 q 363 658 390 642 q 278 675 336 675 q 178 636 210 675 q 139 538 146 597 q 132 368 132 478 l 132 -129 q 118 -220 132 -192 q 78 -256 104 -249 q -1 -264 51 -264 l -1 -222 z "},"ǌ":{"ha":751,"x_min":83,"x_max":671,"o":"m 410 438 q 400 593 410 544 q 363 658 390 642 q 278 675 336 675 q 178 636 210 675 q 139 537 146 597 q 132 367 132 476 l 132 0 l 83 0 l 83 708 l 121 708 l 126 604 l 132 604 q 179 688 144 657 q 290 719 214 719 q 399 693 363 719 q 447 610 435 667 q 458 444 458 553 l 458 0 l 410 0 l 410 438 m 617 947 l 617 1032 l 671 1032 l 671 947 l 617 947 m 535 -222 q 591 -215 574 -222 q 614 -193 608 -208 q 619 -143 619 -178 l 619 708 l 668 708 l 668 -129 q 654 -220 668 -192 q 614 -256 640 -249 q 535 -264 588 -264 l 535 -222 z "},"ñ":{"ha":536,"x_min":83,"x_max":458,"o":"m 410 438 q 400 593 410 544 q 363 658 390 642 q 278 675 336 675 q 178 636 210 675 q 139 537 146 597 q 132 367 132 476 l 132 0 l 83 0 l 83 708 l 121 708 l 126 604 l 132 604 q 179 688 144 657 q 290 719 214 719 q 399 693 363 719 q 447 610 435 667 q 458 444 458 553 l 458 0 l 410 0 l 410 438 m 433 1032 q 420 928 433 957 q 367 900 407 900 q 323 909 344 900 q 271 936 301 918 q 223 962 243 953 q 185 971 203 971 q 161 953 167 971 q 156 885 156 935 l 118 885 q 131 988 118 960 q 185 1017 144 1017 q 231 1007 208 1017 q 286 978 253 997 q 367 946 339 946 q 390 964 385 946 q 396 1032 396 982 l 433 1032 z "},"o":{"ha":522,"x_min":63,"x_max":460,"o":"m 261 -11 q 128 17 169 -11 q 75 118 88 46 q 63 353 63 190 q 75 589 63 515 q 128 691 88 663 q 261 719 169 719 q 394 691 353 719 q 447 589 435 663 q 460 353 460 515 q 447 118 460 190 q 394 17 435 46 q 261 -11 353 -11 m 261 33 q 364 57 333 33 q 403 142 394 81 q 411 353 411 204 q 403 565 411 503 q 364 651 394 626 q 261 675 333 675 q 158 651 189 675 q 119 565 128 626 q 111 353 111 503 q 119 142 111 204 q 158 57 128 81 q 261 33 189 33 z "},"ó":{"ha":522,"x_min":63,"x_max":460,"o":"m 261 -11 q 128 17 169 -11 q 75 118 88 46 q 63 353 63 190 q 75 589 63 515 q 128 691 88 663 q 261 719 169 719 q 394 691 353 719 q 447 589 435 663 q 460 353 460 515 q 447 118 460 190 q 394 17 435 46 q 261 -11 353 -11 m 261 33 q 364 57 333 33 q 403 142 394 81 q 411 353 411 204 q 403 565 411 503 q 364 651 394 626 q 261 675 333 675 q 158 651 189 675 q 119 565 128 626 q 111 353 111 503 q 119 142 111 204 q 158 57 128 81 q 261 33 189 33 m 229 840 l 229 847 l 275 1032 l 331 1032 l 331 1025 l 261 840 l 229 840 z "},"ŏ":{"ha":522,"x_min":63,"x_max":460,"o":"m 261 -11 q 128 17 169 -11 q 75 118 88 46 q 63 353 63 190 q 75 589 63 515 q 128 691 88 663 q 261 719 169 719 q 394 691 353 719 q 447 589 435 663 q 460 353 460 515 q 447 118 460 190 q 394 17 435 46 q 261 -11 353 -11 m 261 33 q 364 57 333 33 q 403 142 394 81 q 411 353 411 204 q 403 565 411 503 q 364 651 394 626 q 261 675 333 675 q 158 651 189 675 q 119 565 128 626 q 111 353 111 503 q 119 142 111 204 q 158 57 128 81 q 261 33 189 33 m 388 1032 q 381 922 388 961 q 347 860 375 883 q 260 836 319 836 q 173 860 200 836 q 140 922 146 883 q 133 1032 133 960 l 179 1032 q 183 939 179 969 q 205 892 188 908 q 260 875 222 875 q 316 892 299 875 q 338 939 333 908 q 342 1032 342 969 l 388 1032 z "},"ǒ":{"ha":522,"x_min":63,"x_max":460,"o":"m 261 -11 q 128 17 169 -11 q 75 118 88 46 q 63 353 63 190 q 75 589 63 515 q 128 691 88 663 q 261 719 169 719 q 394 691 353 719 q 447 589 435 663 q 460 353 460 515 q 447 118 460 190 q 394 17 435 46 q 261 -11 353 -11 m 261 33 q 364 57 333 33 q 403 142 394 81 q 411 353 411 204 q 403 565 411 503 q 364 651 394 626 q 261 675 333 675 q 158 651 189 675 q 119 565 128 626 q 111 353 111 503 q 119 142 111 204 q 158 57 128 81 q 261 33 189 33 m 229 840 l 136 1025 l 136 1032 l 174 1032 l 261 882 l 349 1032 l 386 1032 l 386 1025 l 293 840 l 229 840 z "},"ô":{"ha":522,"x_min":63,"x_max":460,"o":"m 261 -11 q 128 17 169 -11 q 75 118 88 46 q 63 353 63 190 q 75 589 63 515 q 128 691 88 663 q 261 719 169 719 q 394 691 353 719 q 447 589 435 663 q 460 353 460 515 q 447 118 460 190 q 394 17 435 46 q 261 -11 353 -11 m 261 33 q 364 57 333 33 q 403 142 394 81 q 411 353 411 204 q 403 565 411 503 q 364 651 394 626 q 261 675 333 675 q 158 651 189 675 q 119 565 128 626 q 111 353 111 503 q 119 142 111 204 q 158 57 128 81 q 261 33 189 33 m 139 840 l 139 847 l 232 1032 l 296 1032 l 389 847 l 389 840 l 351 840 l 264 990 l 176 840 l 139 840 z "},"ố":{"ha":522,"x_min":63,"x_max":460,"o":"m 261 -11 q 128 17 169 -11 q 75 118 88 46 q 63 353 63 190 q 75 589 63 515 q 128 691 88 663 q 261 719 169 719 q 394 691 353 719 q 447 589 435 663 q 460 353 460 515 q 447 118 460 190 q 394 17 435 46 q 261 -11 353 -11 m 261 33 q 364 57 333 33 q 403 142 394 81 q 411 353 411 204 q 403 565 411 503 q 364 651 394 626 q 261 675 333 675 q 158 651 189 675 q 119 565 128 626 q 111 353 111 503 q 119 142 111 204 q 158 57 128 81 q 261 33 189 33 m 135 840 l 135 847 l 228 1032 l 292 1032 l 385 847 l 385 840 l 347 840 l 260 990 l 172 840 l 135 840 m 343 1032 l 343 1039 l 389 1224 l 444 1224 l 444 1217 l 375 1032 l 343 1032 z "},"ộ":{"ha":522,"x_min":63,"x_max":460,"o":"m 261 -11 q 128 17 169 -11 q 75 118 88 46 q 63 353 63 190 q 75 589 63 515 q 128 691 88 663 q 261 719 169 719 q 394 691 353 719 q 447 589 435 663 q 460 353 460 515 q 447 118 460 190 q 394 17 435 46 q 261 -11 353 -11 m 261 33 q 364 57 333 33 q 403 142 394 81 q 411 353 411 204 q 403 565 411 503 q 364 651 394 626 q 261 675 333 675 q 158 651 189 675 q 119 565 128 626 q 111 353 111 503 q 119 142 111 204 q 158 57 128 81 q 261 33 189 33 m 231 -176 l 231 -86 l 292 -86 l 292 -176 l 231 -176 m 136 840 l 136 847 l 229 1032 l 293 1032 l 386 847 l 386 840 l 349 840 l 261 990 l 174 840 l 136 840 z "},"ồ":{"ha":522,"x_min":63,"x_max":460,"o":"m 261 -11 q 128 17 169 -11 q 75 118 88 46 q 63 353 63 190 q 75 589 63 515 q 128 691 88 663 q 261 719 169 719 q 394 691 353 719 q 447 589 435 663 q 460 353 460 515 q 447 118 460 190 q 394 17 435 46 q 261 -11 353 -11 m 261 33 q 364 57 333 33 q 403 142 394 81 q 411 353 411 204 q 403 565 411 503 q 364 651 394 626 q 261 675 333 675 q 158 651 189 675 q 119 565 128 626 q 111 353 111 503 q 119 142 111 204 q 158 57 128 81 q 261 33 189 33 m 136 840 l 136 847 l 229 1032 l 293 1032 l 386 847 l 386 840 l 349 840 l 261 990 l 174 840 l 136 840 m 343 1032 l 274 1217 l 274 1224 l 329 1224 l 375 1039 l 375 1032 l 343 1032 z "},"ổ":{"ha":522,"x_min":63,"x_max":474,"o":"m 261 -11 q 128 17 169 -11 q 75 118 88 46 q 63 353 63 190 q 75 589 63 515 q 128 691 88 663 q 261 719 169 719 q 394 691 353 719 q 447 589 435 663 q 460 353 460 515 q 447 118 460 190 q 394 17 435 46 q 261 -11 353 -11 m 261 33 q 364 57 333 33 q 403 142 394 81 q 411 353 411 204 q 403 565 411 503 q 364 651 394 626 q 261 675 333 675 q 158 651 189 675 q 119 565 128 626 q 111 353 111 503 q 119 142 111 204 q 158 57 128 81 q 261 33 189 33 m 136 840 l 136 847 l 229 1032 l 293 1032 l 386 847 l 386 840 l 349 840 l 261 990 l 174 840 l 136 840 m 314 1043 q 325 1081 314 1071 q 363 1100 336 1092 l 378 1104 q 420 1125 408 1114 q 432 1165 432 1136 q 428 1199 432 1189 q 406 1213 424 1208 q 347 1218 388 1218 q 247 1213 331 1218 l 247 1249 q 354 1257 325 1257 q 431 1248 404 1257 q 465 1221 457 1239 q 474 1172 474 1203 q 465 1114 474 1133 q 421 1082 457 1094 l 408 1078 q 363 1058 371 1065 q 354 1032 354 1051 l 314 1032 l 314 1043 z "},"ỗ":{"ha":522,"x_min":63,"x_max":460,"o":"m 261 -11 q 128 17 169 -11 q 75 118 88 46 q 63 353 63 190 q 75 589 63 515 q 128 691 88 663 q 261 719 169 719 q 394 691 353 719 q 447 589 435 663 q 460 353 460 515 q 447 118 460 190 q 394 17 435 46 q 261 -11 353 -11 m 261 33 q 364 57 333 33 q 403 142 394 81 q 411 353 411 204 q 403 565 411 503 q 364 651 394 626 q 261 675 333 675 q 158 651 189 675 q 119 565 128 626 q 111 353 111 503 q 119 142 111 204 q 158 57 128 81 q 261 33 189 33 m 133 840 l 133 847 l 226 1032 l 290 1032 l 383 847 l 383 840 l 346 840 l 258 990 l 171 840 l 133 840 m 418 1272 q 405 1169 418 1197 q 351 1140 392 1140 q 308 1149 329 1140 q 256 1176 286 1158 q 208 1202 228 1193 q 169 1211 188 1211 q 146 1193 151 1211 q 140 1125 140 1175 l 103 1125 q 116 1228 103 1200 q 169 1257 129 1257 q 215 1247 193 1257 q 271 1218 238 1238 q 351 1186 324 1186 q 375 1204 369 1186 q 381 1272 381 1222 l 418 1272 z "},"ȍ":{"ha":522,"x_min":63,"x_max":460,"o":"m 261 -11 q 128 17 169 -11 q 75 118 88 46 q 63 353 63 190 q 75 589 63 515 q 128 691 88 663 q 261 719 169 719 q 394 691 353 719 q 447 589 435 663 q 460 353 460 515 q 447 118 460 190 q 394 17 435 46 q 261 -11 353 -11 m 261 33 q 364 57 333 33 q 403 142 394 81 q 411 353 411 204 q 403 565 411 503 q 364 651 394 626 q 261 675 333 675 q 158 651 189 675 q 119 565 128 626 q 111 353 111 503 q 119 142 111 204 q 158 57 128 81 q 261 33 189 33 m 208 849 l 176 849 l 110 1007 l 110 1014 l 165 1014 l 208 856 l 208 849 m 347 849 l 315 849 l 249 1007 l 249 1014 l 304 1014 l 347 856 l 347 849 z "},"ö":{"ha":522,"x_min":63,"x_max":460,"o":"m 261 -11 q 128 17 169 -11 q 75 118 88 46 q 63 353 63 190 q 75 589 63 515 q 128 691 88 663 q 261 719 169 719 q 394 691 353 719 q 447 589 435 663 q 460 353 460 515 q 447 118 460 190 q 394 17 435 46 q 261 -11 353 -11 m 261 33 q 364 57 333 33 q 403 142 394 81 q 411 353 411 204 q 403 565 411 503 q 364 651 394 626 q 261 675 333 675 q 158 651 189 675 q 119 565 128 626 q 111 353 111 503 q 119 142 111 204 q 158 57 128 81 q 261 33 189 33 m 118 929 l 118 1014 l 175 1014 l 175 929 l 118 929 m 354 929 l 354 1014 l 411 1014 l 411 929 l 354 929 z "},"ọ":{"ha":522,"x_min":63,"x_max":460,"o":"m 261 -11 q 128 17 169 -11 q 75 118 88 46 q 63 353 63 190 q 75 589 63 515 q 128 691 88 663 q 261 719 169 719 q 394 691 353 719 q 447 589 435 663 q 460 353 460 515 q 447 118 460 190 q 394 17 435 46 q 261 -11 353 -11 m 261 33 q 364 57 333 33 q 403 142 394 81 q 411 353 411 204 q 403 565 411 503 q 364 651 394 626 q 261 675 333 675 q 158 651 189 675 q 119 565 128 626 q 111 353 111 503 q 119 142 111 204 q 158 57 128 81 q 261 33 189 33 m 231 -176 l 231 -86 l 292 -86 l 292 -176 l 231 -176 z "},"ò":{"ha":522,"x_min":63,"x_max":460,"o":"m 261 -11 q 128 17 169 -11 q 75 118 88 46 q 63 353 63 190 q 75 589 63 515 q 128 691 88 663 q 261 719 169 719 q 394 691 353 719 q 447 589 435 663 q 460 353 460 515 q 447 118 460 190 q 394 17 435 46 q 261 -11 353 -11 m 261 33 q 364 57 333 33 q 403 142 394 81 q 411 353 411 204 q 403 565 411 503 q 364 651 394 626 q 261 675 333 675 q 158 651 189 675 q 119 565 128 626 q 111 353 111 503 q 119 142 111 204 q 158 57 128 81 q 261 33 189 33 m 251 840 l 182 1025 l 182 1032 l 238 1032 l 283 847 l 283 840 l 251 840 z "},"ỏ":{"ha":522,"x_min":63,"x_max":460,"o":"m 261 -11 q 128 17 169 -11 q 75 118 88 46 q 63 353 63 190 q 75 589 63 515 q 128 691 88 663 q 261 719 169 719 q 394 691 353 719 q 447 589 435 663 q 460 353 460 515 q 447 118 460 190 q 394 17 435 46 q 261 -11 353 -11 m 261 33 q 364 57 333 33 q 403 142 394 81 q 411 353 411 204 q 403 565 411 503 q 364 651 394 626 q 261 675 333 675 q 158 651 189 675 q 119 565 128 626 q 111 353 111 503 q 119 142 111 204 q 158 57 128 81 q 261 33 189 33 m 214 860 q 225 898 214 888 q 263 917 236 908 l 278 921 q 320 942 308 931 q 332 982 332 953 q 328 1015 332 1006 q 306 1030 324 1025 q 247 1035 288 1035 q 147 1029 231 1035 l 147 1065 q 254 1074 225 1074 q 331 1065 304 1074 q 365 1038 357 1056 q 374 989 374 1019 q 365 931 374 950 q 321 899 357 911 l 308 894 q 263 875 271 882 q 254 849 254 868 l 214 849 l 214 860 z "},"ơ":{"ha":522,"x_min":63,"x_max":519,"o":"m 519 844 l 519 796 q 511 718 519 744 q 481 681 503 692 q 415 669 458 669 q 451 565 443 635 q 460 353 460 494 q 447 118 460 190 q 394 17 435 46 q 261 -11 353 -11 q 128 17 169 -11 q 75 118 88 46 q 63 353 63 190 q 75 589 63 515 q 128 691 88 663 q 261 719 169 719 q 358 708 325 719 l 415 708 q 466 724 456 708 q 476 786 476 740 l 476 844 l 519 844 m 261 33 q 364 57 333 33 q 403 142 394 81 q 411 353 411 204 q 403 565 411 503 q 364 651 394 626 q 261 675 333 675 q 158 651 189 675 q 119 565 128 626 q 111 353 111 503 q 119 142 111 204 q 158 57 128 81 q 261 33 189 33 z "},"ớ":{"ha":522,"x_min":63,"x_max":519,"o":"m 519 844 l 519 796 q 511 718 519 744 q 481 681 503 692 q 415 669 458 669 q 451 565 443 635 q 460 353 460 494 q 447 118 460 190 q 394 17 435 46 q 261 -11 353 -11 q 128 17 169 -11 q 75 118 88 46 q 63 353 63 190 q 75 589 63 515 q 128 691 88 663 q 261 719 169 719 q 358 708 325 719 l 415 708 q 466 724 456 708 q 476 786 476 740 l 476 844 l 519 844 m 261 33 q 364 57 333 33 q 403 142 394 81 q 411 353 411 204 q 403 565 411 503 q 364 651 394 626 q 261 675 333 675 q 158 651 189 675 q 119 565 128 626 q 111 353 111 503 q 119 142 111 204 q 158 57 128 81 q 261 33 189 33 m 240 840 l 240 847 l 286 1032 l 342 1032 l 342 1025 l 272 840 l 240 840 z "},"ợ":{"ha":522,"x_min":63,"x_max":519,"o":"m 519 844 l 519 796 q 511 718 519 744 q 481 681 503 692 q 415 669 458 669 q 451 565 443 635 q 460 353 460 494 q 447 118 460 190 q 394 17 435 46 q 261 -11 353 -11 q 128 17 169 -11 q 75 118 88 46 q 63 353 63 190 q 75 589 63 515 q 128 691 88 663 q 261 719 169 719 q 358 708 325 719 l 415 708 q 466 724 456 708 q 476 786 476 740 l 476 844 l 519 844 m 261 33 q 364 57 333 33 q 403 142 394 81 q 411 353 411 204 q 403 565 411 503 q 364 651 394 626 q 261 675 333 675 q 158 651 189 675 q 119 565 128 626 q 111 353 111 503 q 119 142 111 204 q 158 57 128 81 q 261 33 189 33 m 231 -176 l 231 -86 l 292 -86 l 292 -176 l 231 -176 z "},"ờ":{"ha":522,"x_min":63,"x_max":519,"o":"m 519 844 l 519 796 q 511 718 519 744 q 481 681 503 692 q 415 669 458 669 q 451 565 443 635 q 460 353 460 494 q 447 118 460 190 q 394 17 435 46 q 261 -11 353 -11 q 128 17 169 -11 q 75 118 88 46 q 63 353 63 190 q 75 589 63 515 q 128 691 88 663 q 261 719 169 719 q 358 708 325 719 l 415 708 q 466 724 456 708 q 476 786 476 740 l 476 844 l 519 844 m 261 33 q 364 57 333 33 q 403 142 394 81 q 411 353 411 204 q 403 565 411 503 q 364 651 394 626 q 261 675 333 675 q 158 651 189 675 q 119 565 128 626 q 111 353 111 503 q 119 142 111 204 q 158 57 128 81 q 261 33 189 33 m 244 840 l 175 1025 l 175 1032 l 231 1032 l 276 847 l 276 840 l 244 840 z "},"ở":{"ha":522,"x_min":63,"x_max":519,"o":"m 519 844 l 519 796 q 511 718 519 744 q 481 681 503 692 q 415 669 458 669 q 451 565 443 635 q 460 353 460 494 q 447 118 460 190 q 394 17 435 46 q 261 -11 353 -11 q 128 17 169 -11 q 75 118 88 46 q 63 353 63 190 q 75 589 63 515 q 128 691 88 663 q 261 719 169 719 q 358 708 325 719 l 415 708 q 466 724 456 708 q 476 786 476 740 l 476 844 l 519 844 m 261 33 q 364 57 333 33 q 403 142 394 81 q 411 353 411 204 q 403 565 411 503 q 364 651 394 626 q 261 675 333 675 q 158 651 189 675 q 119 565 128 626 q 111 353 111 503 q 119 142 111 204 q 158 57 128 81 q 261 33 189 33 m 214 860 q 225 898 214 888 q 263 917 236 908 l 278 921 q 320 942 308 931 q 332 982 332 953 q 328 1015 332 1006 q 306 1030 324 1025 q 247 1035 288 1035 q 147 1029 231 1035 l 147 1065 q 254 1074 225 1074 q 331 1065 304 1074 q 365 1038 357 1056 q 374 989 374 1019 q 365 931 374 950 q 321 899 357 911 l 308 894 q 263 875 271 882 q 254 849 254 868 l 214 849 l 214 860 z "},"ỡ":{"ha":522,"x_min":63,"x_max":519,"o":"m 519 844 l 519 796 q 511 718 519 744 q 481 681 503 692 q 415 669 458 669 q 451 565 443 635 q 460 353 460 494 q 447 118 460 190 q 394 17 435 46 q 261 -11 353 -11 q 128 17 169 -11 q 75 118 88 46 q 63 353 63 190 q 75 589 63 515 q 128 691 88 663 q 261 719 169 719 q 358 708 325 719 l 415 708 q 466 724 456 708 q 476 786 476 740 l 476 844 l 519 844 m 261 33 q 364 57 333 33 q 403 142 394 81 q 411 353 411 204 q 403 565 411 503 q 364 651 394 626 q 261 675 333 675 q 158 651 189 675 q 119 565 128 626 q 111 353 111 503 q 119 142 111 204 q 158 57 128 81 q 261 33 189 33 m 418 1032 q 405 928 418 957 q 351 900 392 900 q 308 909 329 900 q 256 936 286 918 q 208 962 228 953 q 169 971 188 971 q 146 953 151 971 q 140 885 140 935 l 103 885 q 116 988 103 960 q 169 1017 129 1017 q 215 1007 193 1017 q 271 978 238 997 q 351 946 324 946 q 375 964 369 946 q 381 1032 381 982 l 418 1032 z "},"ő":{"ha":522,"x_min":63,"x_max":460,"o":"m 261 -11 q 128 17 169 -11 q 75 118 88 46 q 63 353 63 190 q 75 589 63 515 q 128 691 88 663 q 261 719 169 719 q 394 691 353 719 q 447 589 435 663 q 460 353 460 515 q 447 118 460 190 q 394 17 435 46 q 261 -11 353 -11 m 261 33 q 364 57 333 33 q 403 142 394 81 q 411 353 411 204 q 403 565 411 503 q 364 651 394 626 q 261 675 333 675 q 158 651 189 675 q 119 565 128 626 q 111 353 111 503 q 119 142 111 204 q 158 57 128 81 q 261 33 189 33 m 190 849 l 190 856 l 233 1014 l 289 1014 l 289 1007 l 222 849 l 190 849 m 329 849 l 329 856 l 372 1014 l 428 1014 l 428 1007 l 361 849 l 329 849 z "},"ȏ":{"ha":522,"x_min":63,"x_max":460,"o":"m 261 -11 q 128 17 169 -11 q 75 118 88 46 q 63 353 63 190 q 75 589 63 515 q 128 691 88 663 q 261 719 169 719 q 394 691 353 719 q 447 589 435 663 q 460 353 460 515 q 447 118 460 190 q 394 17 435 46 q 261 -11 353 -11 m 261 33 q 364 57 333 33 q 403 142 394 81 q 411 353 411 204 q 403 565 411 503 q 364 651 394 626 q 261 675 333 675 q 158 651 189 675 q 119 565 128 626 q 111 353 111 503 q 119 142 111 204 q 158 57 128 81 q 261 33 189 33 m 133 844 q 140 954 133 915 q 174 1017 146 993 q 261 1040 201 1040 q 348 1017 321 1040 q 381 955 375 993 q 388 844 388 917 l 342 844 q 338 938 342 907 q 316 985 333 968 q 261 1001 299 1001 q 205 985 222 1001 q 183 938 188 968 q 179 844 179 907 l 133 844 z "},"ō":{"ha":522,"x_min":63,"x_max":460,"o":"m 261 -11 q 128 17 169 -11 q 75 118 88 46 q 63 353 63 190 q 75 589 63 515 q 128 691 88 663 q 261 719 169 719 q 394 691 353 719 q 447 589 435 663 q 460 353 460 515 q 447 118 460 190 q 394 17 435 46 q 261 -11 353 -11 m 261 33 q 364 57 333 33 q 403 142 394 81 q 411 353 411 204 q 403 565 411 503 q 364 651 394 626 q 261 675 333 675 q 158 651 189 675 q 119 565 128 626 q 111 353 111 503 q 119 142 111 204 q 158 57 128 81 q 261 33 189 33 m 146 982 l 146 1032 l 375 1032 l 375 982 l 146 982 z "},"ǫ":{"ha":522,"x_min":63,"x_max":460,"o":"m 261 719 q 394 691 353 719 q 447 589 435 663 q 460 353 460 515 q 447 117 460 189 q 392 15 435 44 q 327 -64 357 -8 q 297 -164 297 -119 q 363 -228 297 -228 l 386 -226 l 386 -271 q 356 -272 374 -272 q 276 -245 301 -272 q 250 -172 250 -218 q 271 -89 250 -133 q 326 -7 292 -44 q 261 -11 297 -11 q 128 17 169 -11 q 75 118 88 46 q 63 353 63 190 q 75 589 63 515 q 128 691 88 663 q 261 719 169 719 m 261 33 q 364 57 333 33 q 403 142 394 81 q 411 353 411 204 q 403 565 411 503 q 364 651 394 626 q 261 675 333 675 q 158 651 189 675 q 119 565 128 626 q 111 353 111 503 q 119 142 111 204 q 158 57 128 81 q 261 33 189 33 z "},"ø":{"ha":522,"x_min":63,"x_max":460,"o":"m 414 672 q 451 567 442 638 q 460 353 460 496 q 447 118 460 190 q 394 17 435 46 q 261 -11 353 -11 q 144 7 182 -11 l 111 -76 l 63 -76 l 108 36 q 72 140 81 71 q 63 353 63 210 q 75 589 63 515 q 128 691 88 663 q 261 719 169 719 q 376 700 338 719 l 411 785 l 460 785 l 414 672 m 111 353 q 115 176 111 233 q 129 89 118 119 l 360 657 q 261 675 331 675 q 158 651 189 675 q 119 565 128 626 q 111 353 111 503 m 411 353 q 408 532 411 478 q 392 618 406 586 l 163 49 q 261 33 188 33 q 364 57 333 33 q 403 142 394 81 q 411 353 411 204 z "},"ǿ":{"ha":522,"x_min":63,"x_max":460,"o":"m 414 672 q 451 567 442 638 q 460 353 460 496 q 447 118 460 190 q 394 17 435 46 q 261 -11 353 -11 q 144 7 182 -11 l 111 -76 l 63 -76 l 108 36 q 72 140 81 71 q 63 353 63 210 q 75 589 63 515 q 128 691 88 663 q 261 719 169 719 q 376 700 338 719 l 411 785 l 460 785 l 414 672 m 111 353 q 115 176 111 233 q 129 89 118 119 l 360 657 q 261 675 331 675 q 158 651 189 675 q 119 565 128 626 q 111 353 111 503 m 411 353 q 408 532 411 478 q 392 618 406 586 l 163 49 q 261 33 188 33 q 364 57 333 33 q 403 142 394 81 q 411 353 411 204 m 240 840 l 240 847 l 286 1032 l 342 1032 l 342 1025 l 272 840 l 240 840 z "},"õ":{"ha":522,"x_min":63,"x_max":460,"o":"m 261 -11 q 128 17 169 -11 q 75 118 88 46 q 63 353 63 190 q 75 589 63 515 q 128 691 88 663 q 261 719 169 719 q 394 691 353 719 q 447 589 435 663 q 460 353 460 515 q 447 118 460 190 q 394 17 435 46 q 261 -11 353 -11 m 261 33 q 364 57 333 33 q 403 142 394 81 q 411 353 411 204 q 403 565 411 503 q 364 651 394 626 q 261 675 333 675 q 158 651 189 675 q 119 565 128 626 q 111 353 111 503 q 119 142 111 204 q 158 57 128 81 q 261 33 189 33 m 419 1032 q 406 928 419 957 q 353 900 393 900 q 309 909 331 900 q 257 936 288 918 q 209 962 229 953 q 171 971 189 971 q 147 953 153 971 q 142 885 142 935 l 104 885 q 117 988 104 960 q 171 1017 131 1017 q 217 1007 194 1017 q 272 978 239 997 q 353 946 325 946 q 376 964 371 946 q 382 1032 382 982 l 419 1032 z "},"œ":{"ha":857,"x_min":63,"x_max":794,"o":"m 794 338 l 460 338 q 470 144 460 204 q 514 58 481 83 q 621 33 547 33 q 702 39 658 33 q 778 53 746 44 l 778 7 q 706 -6 751 0 q 617 -11 660 -11 q 499 12 540 -11 q 436 90 457 35 q 380 10 419 32 q 261 -11 340 -11 q 128 17 169 -11 q 75 118 88 46 q 63 353 63 190 q 75 589 63 515 q 128 691 88 663 q 261 719 169 719 q 378 699 339 719 q 435 624 417 678 q 496 697 454 675 q 614 719 538 719 q 736 688 699 719 q 784 585 774 657 q 794 356 794 514 l 794 338 m 261 33 q 364 57 333 33 q 403 142 394 81 q 411 353 411 204 q 403 565 411 503 q 364 651 394 626 q 261 675 333 675 q 158 651 189 675 q 119 565 128 626 q 111 353 111 503 q 119 142 111 204 q 158 57 128 81 q 261 33 189 33 m 611 675 q 510 654 540 675 q 469 576 479 633 q 460 382 460 518 l 746 382 l 746 411 q 734 585 746 531 q 695 658 722 640 q 611 675 668 675 z "},"p":{"ha":536,"x_min":83,"x_max":474,"o":"m 83 708 l 121 708 l 126 604 l 132 604 q 188 697 149 674 q 286 719 226 719 q 406 690 367 719 q 459 584 444 660 q 474 354 474 508 q 459 124 474 199 q 406 19 444 49 q 286 -11 367 -11 q 188 13 224 -11 q 138 92 151 36 l 132 92 l 132 -264 l 83 -264 l 83 708 m 278 33 q 374 56 344 33 q 415 142 404 78 q 425 354 425 207 q 415 566 425 501 q 374 653 404 631 q 278 675 344 675 q 189 648 221 675 q 144 561 157 621 q 134 474 136 521 q 132 354 132 426 q 143 160 132 217 q 189 63 157 92 q 278 33 221 33 z "},"þ":{"ha":536,"x_min":83,"x_max":474,"o":"m 83 1032 l 132 1032 l 132 617 l 138 617 q 188 696 151 672 q 286 719 224 719 q 406 690 367 719 q 459 584 444 660 q 474 354 474 508 q 459 124 474 199 q 406 19 444 49 q 286 -11 367 -11 q 188 13 224 -11 q 138 92 151 36 l 132 92 l 132 -264 l 83 -264 l 83 1032 m 278 33 q 374 56 344 33 q 415 142 404 78 q 425 354 425 207 q 415 566 425 501 q 374 653 404 631 q 278 675 344 675 q 189 647 221 675 q 143 554 157 619 q 132 354 132 496 q 142 165 132 218 q 189 63 157 93 q 278 33 221 33 z "},"q":{"ha":536,"x_min":63,"x_max":453,"o":"m 404 92 l 399 92 q 349 13 385 36 q 250 -11 313 -11 q 131 19 169 -11 q 77 124 92 49 q 63 354 63 199 q 77 584 63 508 q 131 690 92 660 q 250 719 169 719 q 349 697 310 719 q 404 604 388 674 l 410 604 l 415 708 l 453 708 l 453 -264 l 404 -264 l 404 92 m 258 33 q 346 61 314 33 q 392 151 378 89 q 404 354 404 218 q 401 475 404 426 q 390 569 399 524 q 347 649 379 624 q 258 675 314 675 q 162 653 192 675 q 122 566 132 631 q 111 354 111 501 q 122 142 111 207 q 162 56 132 78 q 258 33 192 33 z "},"r":{"ha":319,"x_min":83,"x_max":299,"o":"m 83 708 l 121 708 l 126 571 l 132 571 q 189 688 147 657 q 299 719 231 719 l 299 669 q 167 594 201 669 q 132 360 132 519 l 132 0 l 83 0 l 83 708 z "},"ŕ":{"ha":319,"x_min":83,"x_max":299,"o":"m 83 708 l 121 708 l 126 571 l 132 571 q 189 688 147 657 q 299 719 231 719 l 299 669 q 167 594 201 669 q 132 360 132 519 l 132 0 l 83 0 l 83 708 m 139 840 l 139 847 l 185 1032 l 240 1032 l 240 1025 l 171 840 l 139 840 z "},"ř":{"ha":319,"x_min":35,"x_max":299,"o":"m 83 708 l 121 708 l 126 571 l 132 571 q 189 688 147 657 q 299 719 231 719 l 299 669 q 167 594 201 669 q 132 360 132 519 l 132 0 l 83 0 l 83 708 m 128 840 l 35 1025 l 35 1032 l 72 1032 l 160 882 l 247 1032 l 285 1032 l 285 1025 l 192 840 l 128 840 z "},"ŗ":{"ha":319,"x_min":60,"x_max":299,"o":"m 83 708 l 121 708 l 126 571 l 132 571 q 189 688 147 657 q 299 719 231 719 l 299 669 q 167 594 201 669 q 132 360 132 519 l 132 0 l 83 0 l 83 708 m 60 -287 q 101 -280 89 -287 q 117 -256 114 -272 q 121 -200 121 -239 l 121 -176 l 93 -176 l 93 -86 l 157 -86 l 157 -190 q 149 -268 157 -242 q 121 -306 142 -294 q 60 -317 100 -317 l 60 -287 z "},"ȑ":{"ha":319,"x_min":8,"x_max":299,"o":"m 83 708 l 121 708 l 126 571 l 132 571 q 189 688 147 657 q 299 719 231 719 l 299 669 q 167 594 201 669 q 132 360 132 519 l 132 0 l 83 0 l 83 708 m 107 849 l 75 849 l 8 1007 l 8 1014 l 64 1014 l 107 856 l 107 849 m 246 849 l 214 849 l 147 1007 l 147 1014 l 203 1014 l 246 856 l 246 849 z "},"ṛ":{"ha":319,"x_min":78,"x_max":299,"o":"m 83 708 l 121 708 l 126 571 l 132 571 q 189 688 147 657 q 299 719 231 719 l 299 669 q 167 594 201 669 q 132 360 132 519 l 132 0 l 83 0 l 83 708 m 78 -176 l 78 -86 l 139 -86 l 139 -176 l 78 -176 z "},"ȓ":{"ha":319,"x_min":32,"x_max":299,"o":"m 83 708 l 121 708 l 126 571 l 132 571 q 189 688 147 657 q 299 719 231 719 l 299 669 q 167 594 201 669 q 132 360 132 519 l 132 0 l 83 0 l 83 708 m 32 844 q 38 954 32 915 q 72 1017 44 993 q 160 1040 100 1040 q 247 1017 219 1040 q 280 955 274 993 q 286 844 286 917 l 240 844 q 236 938 240 907 q 215 985 232 968 q 160 1001 197 1001 q 103 985 121 1001 q 82 938 86 968 q 78 844 78 907 l 32 844 z "},"s":{"ha":444,"x_min":49,"x_max":396,"o":"m 213 -11 q 130 -7 172 -11 q 63 4 88 -3 l 63 50 q 131 38 85 43 q 225 33 178 33 q 322 72 297 33 q 347 185 347 110 q 341 276 347 249 q 322 313 335 304 q 278 326 308 322 l 151 347 q 71 395 93 357 q 49 518 49 433 q 95 678 49 636 q 235 719 142 719 q 310 715 271 719 q 372 703 350 710 l 372 657 q 309 670 351 665 q 221 675 267 675 q 129 644 161 675 q 97 528 97 613 q 103 445 97 472 q 124 408 110 418 q 167 393 138 397 l 292 374 q 356 350 333 367 q 387 296 378 333 q 396 185 396 258 q 353 34 396 79 q 213 -11 311 -11 z "},"ś":{"ha":444,"x_min":49,"x_max":396,"o":"m 213 -11 q 130 -7 172 -11 q 63 4 88 -3 l 63 50 q 131 38 85 43 q 225 33 178 33 q 322 72 297 33 q 347 185 347 110 q 341 276 347 249 q 322 313 335 304 q 278 326 308 322 l 151 347 q 71 395 93 357 q 49 518 49 433 q 95 678 49 636 q 235 719 142 719 q 310 715 271 719 q 372 703 350 710 l 372 657 q 309 670 351 665 q 221 675 267 675 q 129 644 161 675 q 97 528 97 613 q 103 445 97 472 q 124 408 110 418 q 167 393 138 397 l 292 374 q 356 350 333 367 q 387 296 378 333 q 396 185 396 258 q 353 34 396 79 q 213 -11 311 -11 m 201 840 l 201 847 l 247 1032 l 303 1032 l 303 1025 l 233 840 l 201 840 z "},"ꞌ":{"ha":110,"x_min":28,"x_max":82,"o":"m 28 408 l 28 1032 l 82 1032 l 82 708 l 60 408 l 28 408 z "},"š":{"ha":444,"x_min":49,"x_max":396,"o":"m 213 -11 q 130 -7 172 -11 q 63 4 88 -3 l 63 50 q 131 38 85 43 q 225 33 178 33 q 322 72 297 33 q 347 185 347 110 q 341 276 347 249 q 322 313 335 304 q 278 326 308 322 l 151 347 q 71 395 93 357 q 49 518 49 433 q 95 678 49 636 q 235 719 142 719 q 310 715 271 719 q 372 703 350 710 l 372 657 q 309 670 351 665 q 221 675 267 675 q 129 644 161 675 q 97 528 97 613 q 103 445 97 472 q 124 408 110 418 q 167 393 138 397 l 292 374 q 356 350 333 367 q 387 296 378 333 q 396 185 396 258 q 353 34 396 79 q 213 -11 311 -11 m 194 840 l 101 1025 l 101 1032 l 139 1032 l 226 882 l 314 1032 l 351 1032 l 351 1025 l 258 840 l 194 840 z "},"ş":{"ha":444,"x_min":49,"x_max":396,"o":"m 396 185 q 359 40 396 85 q 238 -10 322 -6 l 179 -264 l 124 -264 l 124 -257 l 197 -11 q 63 4 117 -8 l 63 50 q 131 38 85 43 q 225 33 178 33 q 322 72 297 33 q 347 185 347 110 q 341 276 347 249 q 322 313 335 304 q 278 326 308 322 l 151 347 q 71 395 93 357 q 49 518 49 433 q 95 678 49 636 q 235 719 142 719 q 310 715 271 719 q 372 703 350 710 l 372 657 q 309 670 351 665 q 221 675 267 675 q 129 644 161 675 q 97 528 97 613 q 103 445 97 472 q 124 408 110 418 q 167 393 138 397 l 292 374 q 356 350 333 367 q 387 296 378 333 q 396 185 396 258 z "},"ŝ":{"ha":444,"x_min":49,"x_max":396,"o":"m 213 -11 q 130 -7 172 -11 q 63 4 88 -3 l 63 50 q 131 38 85 43 q 225 33 178 33 q 322 72 297 33 q 347 185 347 110 q 341 276 347 249 q 322 313 335 304 q 278 326 308 322 l 151 347 q 71 395 93 357 q 49 518 49 433 q 95 678 49 636 q 235 719 142 719 q 310 715 271 719 q 372 703 350 710 l 372 657 q 309 670 351 665 q 221 675 267 675 q 129 644 161 675 q 97 528 97 613 q 103 445 97 472 q 124 408 110 418 q 167 393 138 397 l 292 374 q 356 350 333 367 q 387 296 378 333 q 396 185 396 258 q 353 34 396 79 q 213 -11 311 -11 m 97 840 l 97 847 l 190 1032 l 254 1032 l 347 847 l 347 840 l 310 840 l 222 990 l 135 840 l 97 840 z "},"ș":{"ha":444,"x_min":49,"x_max":396,"o":"m 213 -11 q 130 -7 172 -11 q 63 4 88 -3 l 63 50 q 131 38 85 43 q 225 33 178 33 q 322 72 297 33 q 347 185 347 110 q 341 276 347 249 q 322 313 335 304 q 278 326 308 322 l 151 347 q 71 395 93 357 q 49 518 49 433 q 95 678 49 636 q 235 719 142 719 q 310 715 271 719 q 372 703 350 710 l 372 657 q 309 670 351 665 q 221 675 267 675 q 129 644 161 675 q 97 528 97 613 q 103 445 97 472 q 124 408 110 418 q 167 393 138 397 l 292 374 q 356 350 333 367 q 387 296 378 333 q 396 185 396 258 q 353 34 396 79 q 213 -11 311 -11 m 174 -287 q 215 -280 203 -287 q 231 -256 228 -272 q 235 -200 235 -239 l 235 -176 l 207 -176 l 207 -86 l 271 -86 l 271 -190 q 263 -268 271 -242 q 235 -306 256 -294 q 174 -317 214 -317 l 174 -287 z "},"ṣ":{"ha":444,"x_min":49,"x_max":396,"o":"m 213 -11 q 130 -7 172 -11 q 63 4 88 -3 l 63 50 q 131 38 85 43 q 225 33 178 33 q 322 72 297 33 q 347 185 347 110 q 341 276 347 249 q 322 313 335 304 q 278 326 308 322 l 151 347 q 71 395 93 357 q 49 518 49 433 q 95 678 49 636 q 235 719 142 719 q 310 715 271 719 q 372 703 350 710 l 372 657 q 309 670 351 665 q 221 675 267 675 q 129 644 161 675 q 97 528 97 613 q 103 445 97 472 q 124 408 110 418 q 167 393 138 397 l 292 374 q 356 350 333 367 q 387 296 378 333 q 396 185 396 258 q 353 34 396 79 q 213 -11 311 -11 m 192 -176 l 192 -86 l 253 -86 l 253 -176 l 192 -176 z "},"ß":{"ha":553,"x_min":83,"x_max":486,"o":"m 232 0 l 232 44 l 279 44 q 385 63 353 44 q 427 139 417 82 q 438 329 438 196 q 425 490 438 433 q 383 569 413 546 q 300 593 354 593 l 265 593 l 265 638 l 300 638 q 401 680 371 638 q 431 818 431 722 q 397 958 431 918 q 281 997 364 997 q 165 951 199 997 q 131 793 131 906 l 131 0 l 83 0 l 83 782 q 105 940 83 883 q 169 1019 126 996 q 281 1042 211 1042 q 432 993 385 1042 q 479 817 479 944 q 453 680 479 724 q 368 622 426 636 l 368 617 q 458 540 429 603 q 486 342 486 478 q 472 133 486 203 q 419 31 458 63 q 296 0 379 0 l 232 0 z "},"ſ":{"ha":293,"x_min":28,"x_max":279,"o":"m 118 664 l 28 664 l 28 708 l 118 708 l 118 868 q 135 974 118 939 q 186 1021 153 1010 q 279 1032 219 1032 l 279 990 q 210 981 233 990 q 176 948 186 972 q 167 876 167 924 l 167 0 l 118 0 l 118 664 z "},"t":{"ha":299,"x_min":28,"x_max":271,"o":"m 118 0 l 118 664 l 28 664 l 28 708 l 118 708 l 118 914 l 167 914 l 167 708 l 271 708 l 271 664 l 167 664 l 167 0 l 118 0 z "},"ŧ":{"ha":299,"x_min":28,"x_max":271,"o":"m 271 664 l 167 664 l 167 378 l 263 378 l 263 333 l 167 333 l 167 0 l 118 0 l 118 333 l 44 333 l 44 378 l 118 378 l 118 664 l 28 664 l 28 708 l 118 708 l 118 914 l 167 914 l 167 708 l 271 708 l 271 664 z "},"ť":{"ha":299,"x_min":28,"x_max":379,"o":"m 118 0 l 118 664 l 28 664 l 28 708 l 118 708 l 118 914 l 167 914 l 167 708 l 271 708 l 271 664 l 167 664 l 167 0 l 118 0 m 308 631 l 325 832 l 325 956 l 379 956 l 379 832 l 340 631 l 308 631 z "},"ţ":{"ha":299,"x_min":28,"x_max":271,"o":"m 167 708 l 271 708 l 271 664 l 167 664 l 167 0 l 160 0 l 100 -264 l 44 -264 l 44 -257 l 122 0 l 118 0 l 118 664 l 28 664 l 28 708 l 118 708 l 118 914 l 167 914 l 167 708 z "},"ț":{"ha":299,"x_min":28,"x_max":271,"o":"m 118 0 l 118 664 l 28 664 l 28 708 l 118 708 l 118 914 l 167 914 l 167 708 l 271 708 l 271 664 l 167 664 l 167 0 l 118 0 m 94 -287 q 136 -280 124 -287 q 152 -256 149 -272 q 156 -200 156 -239 l 156 -176 l 128 -176 l 128 -86 l 192 -86 l 192 -190 q 184 -268 192 -242 q 156 -306 176 -294 q 94 -317 135 -317 l 94 -287 z "},"ṭ":{"ha":299,"x_min":28,"x_max":271,"o":"m 118 0 l 118 664 l 28 664 l 28 708 l 118 708 l 118 914 l 167 914 l 167 708 l 271 708 l 271 664 l 167 664 l 167 0 l 118 0 m 113 -176 l 113 -86 l 174 -86 l 174 -176 l 113 -176 z "},"u":{"ha":536,"x_min":78,"x_max":453,"o":"m 410 104 l 404 104 q 357 20 392 51 q 246 -11 322 -11 q 138 15 174 -11 q 90 98 101 42 q 78 264 78 154 l 78 708 l 126 708 l 126 271 q 136 115 126 164 q 173 50 146 67 q 258 33 200 33 q 358 72 326 33 q 397 172 390 111 q 404 342 404 232 l 404 708 l 453 708 l 453 0 l 415 0 l 410 104 z "},"ú":{"ha":536,"x_min":78,"x_max":453,"o":"m 410 104 l 404 104 q 357 20 392 51 q 246 -11 322 -11 q 138 15 174 -11 q 90 98 101 42 q 78 264 78 154 l 78 708 l 126 708 l 126 271 q 136 115 126 164 q 173 50 146 67 q 258 33 200 33 q 358 72 326 33 q 397 172 390 111 q 404 342 404 232 l 404 708 l 453 708 l 453 0 l 415 0 l 410 104 m 249 840 l 249 847 l 294 1032 l 350 1032 l 350 1025 l 281 840 l 249 840 z "},"ŭ":{"ha":536,"x_min":78,"x_max":453,"o":"m 410 104 l 404 104 q 357 20 392 51 q 246 -11 322 -11 q 138 15 174 -11 q 90 98 101 42 q 78 264 78 154 l 78 708 l 126 708 l 126 271 q 136 115 126 164 q 173 50 146 67 q 258 33 200 33 q 358 72 326 33 q 397 172 390 111 q 404 342 404 232 l 404 708 l 453 708 l 453 0 l 415 0 l 410 104 m 394 1032 q 388 922 394 961 q 354 860 382 883 q 267 836 326 836 q 180 860 207 836 q 147 922 153 883 q 140 1032 140 960 l 186 1032 q 190 939 186 969 q 212 892 194 908 q 267 875 229 875 q 323 892 306 875 q 344 939 340 908 q 349 1032 349 969 l 394 1032 z "},"ǔ":{"ha":536,"x_min":78,"x_max":453,"o":"m 410 104 l 404 104 q 357 20 392 51 q 246 -11 322 -11 q 138 15 174 -11 q 90 98 101 42 q 78 264 78 154 l 78 708 l 126 708 l 126 271 q 136 115 126 164 q 173 50 146 67 q 258 33 200 33 q 358 72 326 33 q 397 172 390 111 q 404 342 404 232 l 404 708 l 453 708 l 453 0 l 415 0 l 410 104 m 236 840 l 143 1025 l 143 1032 l 181 1032 l 268 882 l 356 1032 l 393 1032 l 393 1025 l 300 840 l 236 840 z "},"û":{"ha":536,"x_min":78,"x_max":453,"o":"m 410 104 l 404 104 q 357 20 392 51 q 246 -11 322 -11 q 138 15 174 -11 q 90 98 101 42 q 78 264 78 154 l 78 708 l 126 708 l 126 271 q 136 115 126 164 q 173 50 146 67 q 258 33 200 33 q 358 72 326 33 q 397 172 390 111 q 404 342 404 232 l 404 708 l 453 708 l 453 0 l 415 0 l 410 104 m 142 840 l 142 847 l 235 1032 l 299 1032 l 392 847 l 392 840 l 354 840 l 267 990 l 179 840 l 142 840 z "},"ȕ":{"ha":536,"x_min":78,"x_max":453,"o":"m 410 104 l 404 104 q 357 20 392 51 q 246 -11 322 -11 q 138 15 174 -11 q 90 98 101 42 q 78 264 78 154 l 78 708 l 126 708 l 126 271 q 136 115 126 164 q 173 50 146 67 q 258 33 200 33 q 358 72 326 33 q 397 172 390 111 q 404 342 404 232 l 404 708 l 453 708 l 453 0 l 415 0 l 410 104 m 215 849 l 183 849 l 117 1007 l 117 1014 l 172 1014 l 215 856 l 215 849 m 354 849 l 322 849 l 256 1007 l 256 1014 l 311 1014 l 354 856 l 354 849 z "},"ü":{"ha":536,"x_min":78,"x_max":453,"o":"m 410 104 l 404 104 q 357 20 392 51 q 246 -11 322 -11 q 138 15 174 -11 q 90 98 101 42 q 78 264 78 154 l 78 708 l 126 708 l 126 271 q 136 115 126 164 q 173 50 146 67 q 258 33 200 33 q 358 72 326 33 q 397 172 390 111 q 404 342 404 232 l 404 708 l 453 708 l 453 0 l 415 0 l 410 104 m 118 929 l 118 1014 l 175 1014 l 175 929 l 118 929 m 354 929 l 354 1014 l 411 1014 l 411 929 l 354 929 z "},"ǘ":{"ha":536,"x_min":78,"x_max":453,"o":"m 410 104 l 404 104 q 357 20 392 51 q 246 -11 322 -11 q 138 15 174 -11 q 90 98 101 42 q 78 264 78 154 l 78 708 l 126 708 l 126 271 q 136 115 126 164 q 173 50 146 67 q 258 33 200 33 q 358 72 326 33 q 397 172 390 111 q 404 342 404 232 l 404 708 l 453 708 l 453 0 l 415 0 l 410 104 m 121 929 l 121 1014 l 178 1014 l 178 929 l 121 929 m 357 929 l 357 1014 l 414 1014 l 414 929 l 357 929 m 250 1063 l 250 1069 l 296 1254 l 351 1254 l 351 1247 l 282 1063 l 250 1063 z "},"ǚ":{"ha":536,"x_min":78,"x_max":453,"o":"m 410 104 l 404 104 q 357 20 392 51 q 246 -11 322 -11 q 138 15 174 -11 q 90 98 101 42 q 78 264 78 154 l 78 708 l 126 708 l 126 271 q 136 115 126 164 q 173 50 146 67 q 258 33 200 33 q 358 72 326 33 q 397 172 390 111 q 404 342 404 232 l 404 708 l 453 708 l 453 0 l 415 0 l 410 104 m 121 929 l 121 1014 l 178 1014 l 178 929 l 121 929 m 357 929 l 357 1014 l 414 1014 l 414 929 l 357 929 m 239 1063 l 146 1247 l 146 1254 l 183 1254 l 271 1104 l 358 1254 l 396 1254 l 396 1247 l 303 1063 l 239 1063 z "},"ǜ":{"ha":536,"x_min":78,"x_max":453,"o":"m 410 104 l 404 104 q 357 20 392 51 q 246 -11 322 -11 q 138 15 174 -11 q 90 98 101 42 q 78 264 78 154 l 78 708 l 126 708 l 126 271 q 136 115 126 164 q 173 50 146 67 q 258 33 200 33 q 358 72 326 33 q 397 172 390 111 q 404 342 404 232 l 404 708 l 453 708 l 453 0 l 415 0 l 410 104 m 121 929 l 121 1014 l 178 1014 l 178 929 l 121 929 m 357 929 l 357 1014 l 414 1014 l 414 929 l 357 929 m 254 1063 l 185 1247 l 185 1254 l 240 1254 l 286 1069 l 286 1063 l 254 1063 z "},"ǖ":{"ha":536,"x_min":78,"x_max":453,"o":"m 410 104 l 404 104 q 357 20 392 51 q 246 -11 322 -11 q 138 15 174 -11 q 90 98 101 42 q 78 264 78 154 l 78 708 l 126 708 l 126 271 q 136 115 126 164 q 173 50 146 67 q 258 33 200 33 q 358 72 326 33 q 397 172 390 111 q 404 342 404 232 l 404 708 l 453 708 l 453 0 l 415 0 l 410 104 m 121 929 l 121 1014 l 178 1014 l 178 929 l 121 929 m 357 929 l 357 1014 l 414 1014 l 414 929 l 357 929 m 156 1204 l 156 1254 l 385 1254 l 385 1204 l 156 1204 z "},"ụ":{"ha":536,"x_min":78,"x_max":453,"o":"m 410 104 l 404 104 q 357 20 392 51 q 246 -11 322 -11 q 138 15 174 -11 q 90 98 101 42 q 78 264 78 154 l 78 708 l 126 708 l 126 271 q 136 115 126 164 q 173 50 146 67 q 258 33 200 33 q 358 72 326 33 q 397 172 390 111 q 404 342 404 232 l 404 708 l 453 708 l 453 0 l 415 0 l 410 104 m 224 -176 l 224 -86 l 285 -86 l 285 -176 l 224 -176 z "},"ù":{"ha":536,"x_min":78,"x_max":453,"o":"m 410 104 l 404 104 q 357 20 392 51 q 246 -11 322 -11 q 138 15 174 -11 q 90 98 101 42 q 78 264 78 154 l 78 708 l 126 708 l 126 271 q 136 115 126 164 q 173 50 146 67 q 258 33 200 33 q 358 72 326 33 q 397 172 390 111 q 404 342 404 232 l 404 708 l 453 708 l 453 0 l 415 0 l 410 104 m 263 840 l 193 1025 l 193 1032 l 249 1032 l 294 847 l 294 840 l 263 840 z "},"ủ":{"ha":536,"x_min":78,"x_max":453,"o":"m 410 104 l 404 104 q 357 20 392 51 q 246 -11 322 -11 q 138 15 174 -11 q 90 98 101 42 q 78 264 78 154 l 78 708 l 126 708 l 126 271 q 136 115 126 164 q 173 50 146 67 q 258 33 200 33 q 358 72 326 33 q 397 172 390 111 q 404 342 404 232 l 404 708 l 453 708 l 453 0 l 415 0 l 410 104 m 221 860 q 232 898 221 888 q 269 917 243 908 l 285 921 q 327 942 315 931 q 339 982 339 953 q 335 1015 339 1006 q 313 1030 331 1025 q 254 1035 294 1035 q 154 1029 238 1035 l 154 1065 q 261 1074 232 1074 q 338 1065 311 1074 q 372 1038 364 1056 q 381 989 381 1019 q 372 931 381 950 q 328 899 364 911 l 315 894 q 269 875 278 882 q 261 849 261 868 l 221 849 l 221 860 z "},"ư":{"ha":536,"x_min":78,"x_max":565,"o":"m 565 844 l 565 796 q 557 718 565 744 q 526 681 549 692 q 461 669 504 669 l 453 669 l 453 0 l 415 0 l 410 104 l 404 104 q 357 20 392 51 q 246 -11 322 -11 q 138 15 174 -11 q 90 98 101 42 q 78 264 78 154 l 78 708 l 126 708 l 126 271 q 136 115 126 164 q 173 50 146 67 q 258 33 200 33 q 358 72 326 33 q 397 172 390 111 q 404 342 404 232 l 404 708 l 461 708 q 512 724 501 708 q 522 786 522 740 l 522 844 l 565 844 z "}}}
